<?xml version="1.0" encoding="UTF-8" standalone="no"?>
<svg
   viewBox="0 0 561 152"
   fill="#fff"
   fill-rule="evenodd"
   stroke="#000"
   stroke-linecap="round"
   stroke-linejoin="round"
   version="1.1"
   id="svg11"
   sodipodi:docname="FreeBSD-colors.svg"
   inkscape:export-filename="freebsd-official.svg"
   inkscape:export-xdpi="96"
   inkscape:export-ydpi="96"
   inkscape:version="1.2.1 (9c6d41e410, 2022-07-14)"
   xmlns:inkscape="http://www.inkscape.org/namespaces/inkscape"
   xmlns:sodipodi="http://sodipodi.sourceforge.net/DTD/sodipodi-0.dtd"
   xmlns:xlink="http://www.w3.org/1999/xlink"
   xmlns="http://www.w3.org/2000/svg"
   xmlns:svg="http://www.w3.org/2000/svg">
  <defs
     id="defs15" />
  <sodipodi:namedview
     id="namedview13"
     pagecolor="#ffffff"
     bordercolor="#000000"
     borderopacity="0.25"
     inkscape:showpageshadow="2"
     inkscape:pageopacity="0.0"
     inkscape:pagecheckerboard="0"
     inkscape:deskcolor="#d1d1d1"
     showgrid="false"
     inkscape:zoom="3.1052633"
     inkscape:cx="544.72032"
     inkscape:cy="114.32203"
     inkscape:window-width="1280"
     inkscape:window-height="895"
     inkscape:window-x="1280"
     inkscape:window-y="0"
     inkscape:window-maximized="1"
     inkscape:current-layer="svg11" />
  <use
     xlink:href="#A"
     x="0"
     y="0"
     id="use2"
     inkscape:label="logo"
     transform="translate(0.5,0.5)" />
  <text
     xml:space="preserve"
     style="font-size:6px;fill:#000000;fill-opacity:0"
     x="159.96211"
     y="10.23839"
     id="text224"
     inkscape:label="copyright"><tspan
       sodipodi:role="line"
       id="tspan222"
       x="159.96211"
       y="10.23839">®</tspan></text>
  <symbol
     id="A"
     overflow="visible"
     inkscape:label="FreeBSD-logo">
    <g
       stroke="none"
       fill-rule="nonzero"
       id="g8"
       inkscape:label="container">
      <path
         d="M423.524 38.213c6.2 1.7 11.5 7.2 13.2 13.4 1.9 6.7-.2 13.5-4.7 18.6 5.5 3 10.2 7.7 12 13.8 1.7 5.7 1.3 12.3-1.6 17.5-3.2 5.7-9.2 10.3-15.6 11.7-3.5.7-7.2.5-10.8.5h-21.8c-2.8 0-4.2-2-4.2-4.5v-51.1c.1-25.9 27.6-21.5 33.5-19.9zm-26 21v9.6h22.8c8.9 0 10.3-12.4 9.1-16-1.3-3.8-4.9-6.3-8.5-7.5-3-.7-23.4-5.5-23.4 13.9zm0 16.6v30.3c0 .8 0 .7.8.7h17c4.7 0 9.6.2 14-2 5.5-2.7 8.8-10 8.2-16s-4.7-10.1-10.2-12.2c-2.7-1-6.5-.9-9.5-.9-3 .1-20.3.1-20.3.1zm104.5-33.7c0-3.3 2-5 6-5h20.6c20.5 0 31 19.8 31 38.8 0 19.4-12.7 38.2-33.1 38.2h-20.2c-3.3 0-4.4-.6-4.4-4.3v-67.7zm7.7 2.6v61.8h16.3c16.5 0 25.4-15.2 25.4-30.6 0-15.8-8-31.2-23.9-31.2zm-38.9.2c-6.7 0-12.9 5.5-12.9 12.7 0 6.5 8.7 10.2 17.3 14.9 9.1 5 18.9 9.9 18.9 20.5 0 14.5-10.9 22-24.9 22-6.4 0-12.3-1.7-17.4-5.1-1.8-1.2-2.7-2.7-2.7-4.5 0-2.3 1.1-3.4 3.4-3.4 1.1 0 2.3.4 3.6 1.2 4 2.4 9 3.9 13.5 3.9 8.8 0 16.3-3.9 16.3-13.6 0-6.1-7.3-9.9-15.2-14.1-9.9-5.2-21.1-10.9-21.1-21.4 0-13.3 10.1-21 22.8-21 5.5 0 11.5 1.5 17.2 4.7 1.9 1.1 2.8 2.9 2.8 4.7 0 2-1.4 4-3.5 4-1.2 0-2.4-.9-3.9-1.8-3.1-2.2-8.9-3.7-14.2-3.7zm-235.9 65.6c-.1 1.8-1.3 3.4-3.6 3.4s-3.5-1.7-3.5-3.5v-33.8c0-9.5 6.6-17.1 19.1-17.1 6.5 0 11.5 1.1 15.6 2.8 1.6.7 2.6 2.2 2.6 3.4 0 2.2-1.6 2.9-3.2 2.9-2.9 0-6.9-2.3-13-2.3-8.9 0-14.1 4.3-14.1 10.8zm-42.5-34.6v34.7c-.1 1.8-1.3 3.3-3.5 3.3-2.3 0-3.5-1.7-3.5-3.5v-50.7c.4-16.1 11.2-24.1 22.5-24.1h13.6c3 0 4.6 1.3 4.6 3.7 0 2.3-1.6 3.5-4.6 3.5h-13.3c-8.5 0-15.7 5.3-15.7 17.1l-.1 5s0-1.6 0 4.1h23.4c1.9 0 3.5 1.6 3.5 3.5s-1.6 3.5-3.5 3.5zm187.7 7.1c-.9-6.8-4.5-13.1-10.1-17.8-4.6-3.8-10.4-5.8-16.7-5.8-12.6 0-24.4 10-26.4 22.4-2.1 12.9 5.5 25.8 17.6 30 5.3 1.8 11.3 1.8 17.8-.1 2-.6 4.3-1.4 5.6-3 1-1.2 1-3.4 0-4.5-.7-.8-1.9-1.2-3.2-1.2-.4 0-.8.2-1.3.4-.1.1-.3.2-.5.2l-2.7 1.1c-3.6 1.3-7.2 1.5-10.8.8-3.9-.8-7.1-2.5-9.8-5.3-2.3-2.3-4-5.2-5-8.4l-.1-.4h41.8c1.3 0 2.3-.4 2.9-1.1 1.4-1.6 1.2-4.7.9-7.3zm-7.2 1.4h-39v-.4c.7-5.2 3.6-10.1 8-13.5 3.1-2.4 6.9-3.6 11.5-3.6 4.7 0 8.7 1.4 12.5 4.5 3.4 2.8 6.9 8 6.9 12.6v.4zm-54-1.4c-.9-6.8-4.5-13.1-10.1-17.8-4.6-3.8-10.4-5.8-16.7-5.8-12.6 0-24.4 10-26.4 22.4-2.1 12.9 5.5 25.8 17.6 30 5.3 1.8 11.3 1.8 17.8-.1 2-.6 4.3-1.4 5.6-3 1-1.2 1-3.4 0-4.5-.7-.8-1.9-1.2-3.2-1.2-.5 0-.8.2-1.3.4-.1.1-.3.2-.5.2l-2.7 1.1c-3.6 1.3-7.2 1.5-10.8.8-3.9-.8-7.1-2.5-9.8-5.3-2.3-2.3-4-5.2-5-8.4l-.1-.4h41.8c1.3 0 2.3-.4 2.9-1.1 1.4-1.6 1.2-4.7.9-7.3zm-7.3 1.4h-39l.1-.4c.7-5.2 3.6-10.1 8-13.5 3.1-2.4 6.9-3.6 11.5-3.6 4.7 0 8.7 1.4 12.5 4.5 3.4 2.8 6.9 8 6.9 12.6z"
         fill="#070909"
         id="path4"
         inkscape:label="text" />
      <path
         d="M151.124 2.513c8.1 8.1-14.4 43.7-18.2 47.5s-13.4.3-21.5-7.8-11.6-17.7-7.8-21.5c3.8-3.9 39.4-26.3 47.5-18.2zm-113.6 8.6c-12.4-7-30-14.8-35.6-9.2-5.7 5.7 2.4 23.7 9.5 36.1 6.3-11.1 15.3-20.3 26.1-26.9zm101.2 36.1c1.1 3.9.9 7.1-.9 8.9-4.3 4.3-16-.3-26.5-10.3-.7-.7-1.5-1.3-2.2-2.1-3.8-3.8-6.8-7.8-8.6-11.6-3.7-6.6-4.6-12.4-1.8-15.2 1.5-1.5 3.9-1.9 6.9-1.4a148.97 148.97 0 0 1 6.7-4 73.24 73.24 0 0 0-33.9-8.3c-40.6 0-73.5 32.9-73.5 73.5s32.9 73.5 73.5 73.5 73.5-32.9 73.5-73.5c0-13.1-3.4-25.4-9.5-36.1-1.2 2.5-2.5 4.7-3.7 6.6z"
         fill="#ad2829"
         id="path6"
         inkscape:label="image" />
    </g>
  </symbol>
  <text
     xml:space="preserve"
     style="font-size:6px;fill:#000000;fill-opacity:0"
     x="551.95764"
     y="43.234615"
     id="text224-1"
     inkscape:label="copyright"><tspan
       sodipodi:role="line"
       id="tspan222-0"
       x="551.95764"
       y="43.234615">®</tspan></text>
</svg>
