<?xml version="1.0" encoding="UTF-8" standalone="no"?>
<!-- Creator: fig2dev Version 3.2.8a -->

<!-- CreationDate: 2023-10-29 11:19:36 -->

<!-- Magnification: 1 -->

<svg
   width="380.49536pt"
   height="413.83743pt"
   viewBox="866 649 6328.3432 6889.0005"
   version="1.1"
   id="svg34"
   sodipodi:docname="beastie.svg"
   xmlns:inkscape="http://www.inkscape.org/namespaces/inkscape"
   xmlns:sodipodi="http://sodipodi.sourceforge.net/DTD/sodipodi-0.dtd"
   xmlns="http://www.w3.org/2000/svg"
   xmlns:svg="http://www.w3.org/2000/svg">
  <defs
     id="defs34" />
  <sodipodi:namedview
     id="namedview34"
     pagecolor="#ffffff"
     bordercolor="#000000"
     borderopacity="0.25"
     inkscape:showpageshadow="2"
     inkscape:pageopacity="0.0"
     inkscape:pagecheckerboard="0"
     inkscape:deskcolor="#d1d1d1"
     inkscape:document-units="pt" />
  <desc
     id="desc1">SPDX-License-Identifier: Beerware</desc>
  <desc
     id="desc2" />
  <desc
     id="desc3">----------------------------------------------------------------------------</desc>
  <desc
     id="desc4">&quot;THE BEER-WARE LICENSE&quot; (Revision 42):</desc>
  <desc
     id="desc5">&lt;phk@FreeBSD.ORG&gt; wrote this file.  As long as you retain this notice you</desc>
  <desc
     id="desc6">can do whatever you want with this stuff. If we meet some day, and you think</desc>
  <desc
     id="desc7">this stuff is worth it, you can buy me a beer in return.   Poul-Henning Kamp</desc>
  <desc
     id="desc8">----------------------------------------------------------------------------</desc>
  <desc
     id="desc9" />
  <desc
     id="desc10">$FreeBSD$</desc>
  <desc
     id="desc11" />
  <g
     fill="none"
     id="g34"
     transform="matrix(-1,0,0,1,8081.1364,-18)">
    <!-- Line -->
    <polygon
       points="2219,2886 2227,2873 2236,2861 2246,2848 2254,2839 2262,2829 2270,2818 2280,2807 2289,2795 2299,2783 2309,2770 2319,2756 2329,2743 2338,2730 2347,2718 2355,2705 2362,2693 2369,2681 2374,2669 2380,2657 2385,2644 2390,2631 2394,2617 2399,2603 2403,2588 2406,2573 2410,2558 2414,2543 2417,2528 2420,2513 2423,2498 2427,2484 2430,2469 2434,2453 2439,2436 2443,2419 2448,2401 2452,2383 2457,2365 2461,2347 2466,2329 2470,2313 2473,2297 2476,2282 2479,2269 2481,2256 2483,2240 2485,2224 2485,2209 2485,2194 2485,2180 2483,2167 2482,2155 2480,2143 2478,2132 2476,2122 2474,2113 2472,2104 2470,2094 2468,2083 2466,2071 2463,2059 2461,2046 2458,2032 2456,2019 2453,2005 2450,1990 2448,1975 2445,1962 2442,1947 2439,1932 2437,1916 2433,1898 2430,1880 2427,1862 2424,1844 2421,1826 2419,1808 2416,1791 2414,1775 2412,1760 2411,1746 2409,1730 2408,1715 2407,1699 2406,1684 2406,1668 2407,1653 2408,1638 2409,1624 2410,1610 2412,1597 2415,1584 2418,1571 2421,1559 2424,1545 2428,1532 2432,1517 2437,1503 2442,1489 2446,1475 2451,1462 2455,1450 2459,1439 2463,1429 2466,1420 2469,1411 2472,1403 2475,1395 2479,1386 2483,1378 2489,1369 2495,1359 2502,1349 2511,1338 2521,1325 2529,1316 2537,1306 2546,1295 2556,1283 2568,1270 2580,1255 2593,1241 2607,1225 2621,1209 2636,1193 2651,1178 2665,1162 2680,1147 2694,1132 2709,1117 2723,1103 2735,1091 2748,1078 2762,1066 2775,1053 2789,1041 2804,1028 2819,1015 2834,1002 2849,989 2864,976 2879,964 2894,951 2909,940 2924,929 2938,918 2951,908 2964,898 2978,889 2992,878 3008,868 3023,857 3039,847 3055,836 3071,826 3088,815 3104,805 3121,795 3136,786 3152,777 3167,768 3181,760 3194,753 3207,746 3219,740 3234,731 3250,724 3265,716 3281,709 3296,703 3311,697 3325,692 3339,688 3351,685 3363,683 3374,682 3384,682 3393,683 3402,684 3412,687 3420,690 3429,694 3436,698 3443,703 3448,709 3453,715 3456,720 3457,726 3458,732 3457,738 3455,745 3450,753 3444,761 3437,770 3429,779 3419,788 3410,797 3400,805 3391,815 3382,822 3374,831 3365,840 3355,850 3345,860 3335,871 3325,882 3315,893 3305,904 3296,915 3287,925 3278,936 3269,946 3260,957 3251,969 3242,981 3232,993 3223,1005 3214,1017 3205,1029 3197,1040 3189,1050 3182,1060 3176,1069 3168,1080 3161,1090 3154,1100 3148,1110 3141,1120 3136,1130 3131,1139 3126,1148 3123,1156 3120,1164 3116,1174 3113,1185 3111,1196 3109,1209 3108,1221 3107,1233 3106,1245 3106,1257 3106,1268 3107,1281 3107,1294 3109,1308 3110,1321 3112,1334 3114,1345 3117,1356 3120,1365 3124,1375 3128,1383 3133,1392 3139,1399 3145,1405 3152,1410 3159,1414 3166,1416 3175,1418 3185,1419 3196,1418 3208,1416 3221,1414 3234,1410 3248,1405 3258,1401 3268,1397 3280,1392 3292,1387 3305,1381 3319,1375 3334,1368 3348,1362 3363,1356 3378,1350 3392,1344 3407,1339 3419,1334 3432,1329 3446,1325 3461,1320 3476,1316 3492,1311 3509,1307 3525,1303 3542,1299 3559,1296 3575,1292 3591,1289 3607,1287 3622,1285 3638,1282 3654,1280 3671,1279 3688,1277 3707,1275 3726,1274 3745,1273 3764,1272 3784,1272 3803,1271 3822,1271 3840,1272 3858,1272 3875,1273 3890,1273 3906,1274 3923,1275 3940,1277 3958,1278 3976,1281 3996,1283 4016,1286 4036,1289 4057,1293 4078,1297 4099,1301 4120,1306 4141,1311 4162,1317 4183,1323 4201,1328 4219,1333 4238,1339 4257,1345 4278,1352 4299,1359 4320,1366 4342,1374 4364,1383 4386,1391 4408,1400 4430,1409 4451,1417 4472,1426 4491,1435 4510,1443 4528,1452 4545,1460 4561,1468 4576,1476 4596,1487 4616,1499 4634,1511 4652,1523 4669,1535 4686,1547 4701,1560 4715,1572 4728,1583 4740,1594 4751,1604 4760,1614 4769,1623 4777,1631 4787,1642 4797,1653 4807,1663 4817,1672 4827,1681 4836,1689 4846,1696 4855,1701 4864,1705 4874,1709 4882,1711 4891,1712 4902,1713 4913,1713 4925,1712 4938,1710 4952,1708 4966,1705 4981,1701 4996,1697 5011,1692 5026,1686 5040,1681 5055,1675 5070,1668 5086,1661 5103,1653 5120,1644 5136,1636 5153,1627 5169,1618 5184,1609 5198,1601 5210,1593 5221,1585 5231,1578 5241,1570 5250,1562 5258,1553 5264,1545 5270,1536 5274,1526 5278,1516 5280,1505 5282,1494 5283,1483 5284,1471 5284,1459 5285,1447 5285,1434 5284,1420 5284,1405 5283,1388 5282,1371 5281,1353 5279,1335 5277,1316 5274,1298 5271,1280 5267,1263 5263,1246 5259,1230 5254,1214 5248,1198 5241,1181 5234,1165 5227,1148 5219,1131 5210,1115 5202,1098 5193,1083 5185,1069 5178,1055 5170,1043 5164,1031 5158,1021 5150,1007 5143,993 5136,981 5131,969 5126,957 5123,947 5121,938 5120,929 5121,922 5122,916 5125,910 5129,905 5135,899 5141,894 5149,890 5158,886 5167,883 5177,880 5187,879 5197,878 5208,877 5219,877 5232,878 5245,880 5259,883 5273,887 5287,891 5300,896 5314,902 5326,908 5335,913 5345,918 5354,925 5365,932 5375,940 5386,949 5398,958 5410,969 5422,980 5434,992 5446,1004 5458,1016 5470,1030 5482,1044 5492,1055 5502,1067 5513,1080 5524,1093 5536,1108 5548,1123 5560,1139 5573,1155 5585,1172 5598,1189 5610,1206 5622,1223 5633,1240 5644,1256 5654,1272 5663,1287 5673,1302 5681,1317 5690,1333 5699,1349 5707,1365 5715,1382 5723,1399 5730,1416 5737,1434 5744,1451 5750,1468 5756,1485 5762,1502 5767,1518 5771,1534 5776,1549 5780,1563 5783,1578 5787,1592 5790,1607 5794,1622 5797,1637 5800,1653 5804,1670 5806,1687 5809,1704 5811,1721 5813,1738 5815,1754 5816,1771 5817,1786 5817,1802 5817,1817 5816,1832 5815,1847 5814,1862 5812,1877 5810,1893 5807,1910 5803,1928 5799,1945 5794,1964 5788,1982 5782,2000 5775,2019 5768,2037 5760,2055 5752,2072 5744,2089 5735,2107 5726,2122 5717,2138 5707,2155 5697,2172 5686,2190 5674,2208 5661,2227 5647,2245 5634,2264 5619,2283 5605,2302 5590,2320 5576,2338 5561,2355 5547,2371 5532,2387 5518,2402 5504,2417 5490,2431 5475,2445 5460,2458 5445,2472 5429,2486 5412,2500 5396,2514 5379,2527 5362,2540 5346,2553 5330,2566 5314,2577 5299,2589 5284,2599 5270,2609 5257,2618 5245,2627 5233,2636 5216,2648 5199,2659 5183,2671 5168,2681 5153,2692 5139,2701 5126,2710 5115,2718 5105,2724 5097,2730 5090,2734 5085,2737 5081,2739 5078,2741 5075,2743 5073,2744 5072,2746 5071,2747 5070,2750 5070,2753 5070,2756 5071,2761 5071,2766 5072,2772 5073,2780 5073,2789 5074,2798 5074,2809 5074,2821 5074,2834 5074,2849 5074,2865 5073,2883 5073,2901 5072,2921 5070,2940 5069,2960 5067,2979 5066,2999 5064,3018 5061,3036 5059,3055 5056,3073 5053,3092 5050,3111 5046,3130 5042,3150 5037,3170 5032,3190 5026,3211 5021,3231 5015,3251 5008,3270 5002,3289 4996,3307 4989,3324 4982,3340 4976,3356 4968,3372 4961,3387 4953,3403 4944,3419 4935,3436 4925,3452 4915,3469 4904,3486 4893,3503 4882,3519 4870,3535 4859,3550 4847,3565 4835,3580 4823,3594 4812,3608 4799,3622 4786,3636 4773,3650 4759,3665 4744,3680 4730,3695 4714,3710 4699,3726 4684,3741 4670,3756 4656,3770 4643,3783 4630,3796 4619,3808 4608,3819 4599,3830 4587,3843 4576,3856 4565,3869 4556,3882 4547,3895 4539,3907 4532,3919 4526,3930 4521,3941 4517,3951 4513,3961 4510,3970 4506,3981 4503,3992 4501,4004 4498,4016 4496,4029 4494,4042 4493,4054 4493,4066 4493,4078 4493,4089 4493,4100 4494,4112 4496,4124 4498,4137 4501,4150 4504,4164 4507,4177 4511,4189 4515,4200 4520,4212 4525,4223 4530,4234 4537,4246 4543,4259 4551,4272 4558,4284 4565,4297 4572,4309 4579,4320 4585,4331 4591,4343 4597,4354 4603,4367 4609,4380 4615,4394 4621,4408 4626,4422 4631,4436 4636,4450 4640,4464 4643,4474 4646,4485 4649,4496 4652,4508 4654,4521 4657,4534 4660,4549 4663,4563 4665,4579 4667,4594 4669,4610 4671,4625 4673,4641 4675,4658 4676,4672 4677,4688 4678,4704 4679,4721 4680,4739 4681,4757 4682,4776 4682,4795 4683,4814 4683,4832 4683,4851 4684,4868 4684,4884 4683,4900 4683,4915 4683,4929 4682,4946 4682,4963 4681,4980 4679,4996 4678,5012 4676,5028 4674,5043 4671,5056 4669,5069 4666,5081 4663,5092 4661,5103 4657,5115 4652,5128 4648,5141 4643,5154 4638,5168 4633,5181 4628,5194 4624,5206 4621,5218 4618,5229 4616,5238 4615,5247 4614,5257 4613,5268 4613,5280 4614,5292 4616,5305 4618,5319 4620,5334 4624,5349 4628,5365 4632,5382 4636,5395 4640,5410 4645,5425 4650,5442 4656,5460 4663,5479 4670,5498 4677,5519 4685,5540 4693,5560 4702,5581 4710,5602 4719,5621 4728,5641 4737,5660 4746,5678 4754,5694 4762,5711 4771,5727 4780,5744 4790,5762 4801,5779 4812,5797 4823,5814 4834,5832 4846,5849 4859,5866 4871,5883 4883,5899 4895,5914 4908,5929 4920,5943 4932,5957 4944,5970 4957,5983 4970,5996 4984,6009 4998,6021 5013,6034 5028,6048 5044,6061 5061,6074 5078,6087 5095,6099 5113,6112 5130,6124 5147,6135 5164,6146 5181,6156 5198,6167 5214,6176 5230,6186 5247,6195 5264,6204 5281,6213 5299,6222 5318,6232 5337,6241 5357,6250 5378,6260 5399,6269 5420,6278 5441,6287 5462,6295 5483,6303 5503,6311 5523,6318 5543,6325 5563,6332 5582,6338 5600,6344 5618,6350 5637,6355 5656,6361 5676,6366 5697,6372 5718,6377 5740,6383 5762,6389 5785,6394 5807,6400 5830,6405 5853,6410 5875,6416 5898,6421 5919,6425 5941,6430 5962,6435 5983,6439 6004,6444 6025,6448 6046,6453 6068,6457 6090,6462 6113,6467 6136,6472 6160,6477 6185,6482 6209,6487 6233,6492 6258,6497 6282,6502 6305,6507 6328,6512 6350,6517 6371,6522 6391,6526 6411,6531 6430,6535 6448,6539 6470,6544 6491,6549 6513,6555 6535,6560 6556,6565 6578,6571 6599,6576 6620,6582 6640,6587 6659,6593 6678,6598 6695,6603 6712,6608 6727,6613 6742,6618 6756,6622 6772,6627 6788,6632 6803,6638 6819,6643 6835,6649 6851,6655 6867,6662 6882,6668 6897,6674 6912,6681 6925,6687 6938,6694 6951,6700 6963,6707 6975,6713 6987,6721 7000,6728 7012,6736 7025,6745 7038,6754 7051,6763 7063,6773 7075,6783 7086,6792 7096,6802 7106,6811 7115,6820 7123,6829 7132,6840 7140,6851 7148,6863 7156,6875 7163,6888 7170,6901 7176,6914 7181,6927 7186,6940 7189,6951 7193,6963 7196,6974 7198,6987 7200,7000 7202,7014 7203,7029 7202,7043 7201,7058 7198,7072 7194,7086 7189,7099 7183,7111 7177,7122 7170,7132 7162,7144 7153,7155 7143,7167 7132,7179 7120,7190 7108,7201 7097,7211 7085,7221 7074,7230 7063,7238 7054,7245 7044,7252 7034,7258 7023,7265 7012,7271 6999,7277 6986,7284 6973,7290 6958,7295 6943,7301 6928,7306 6912,7311 6895,7316 6878,7321 6862,7325 6844,7330 6826,7334 6806,7339 6786,7343 6764,7348 6742,7352 6720,7357 6699,7361 6677,7366 6657,7370 6638,7373 6620,7377 6604,7380 6589,7383 6576,7385 6560,7388 6546,7391 6534,7393 6524,7396 6515,7398 6507,7400 6502,7403 6498,7405 6495,7408 6493,7411 6493,7414 6493,7417 6494,7425 6496,7436 6499,7448 6502,7460 6504,7471 6504,7480 6502,7484 6500,7487 6497,7491 6491,7493 6484,7495 6475,7497 6464,7499 6450,7500 6435,7500 6418,7501 6408,7501 6396,7502 6384,7502 6370,7502 6355,7502 6338,7503 6321,7503 6302,7503 6282,7504 6262,7504 6241,7505 6219,7505 6198,7505 6176,7506 6154,7506 6131,7507 6109,7507 6087,7508 6066,7509 6044,7509 6022,7510 5999,7511 5975,7511 5951,7512 5925,7513 5900,7514 5873,7515 5847,7516 5821,7517 5795,7518 5770,7519 5745,7520 5722,7521 5699,7522 5677,7523 5656,7524 5636,7525 5617,7526 5594,7527 5571,7528 5549,7530 5528,7531 5506,7532 5485,7533 5465,7535 5446,7536 5428,7537 5410,7538 5394,7539 5380,7539 5367,7540 5355,7540 5344,7541 5334,7541 5320,7541 5307,7541 5296,7540 5286,7539 5277,7538 5270,7536 5266,7534 5262,7532 5261,7530 5260,7527 5260,7525 5262,7522 5265,7518 5270,7514 5277,7508 5286,7502 5298,7494 5313,7485 5330,7474 5350,7462 5373,7449 5399,7435 5414,7426 5431,7417 5449,7407 5468,7396 5488,7385 5510,7373 5533,7361 5556,7348 5581,7334 5606,7321 5632,7306 5657,7292 5683,7278 5708,7264 5733,7251 5758,7237 5781,7224 5804,7212 5825,7200 5846,7189 5865,7178 5884,7168 5908,7154 5932,7141 5954,7128 5975,7116 5996,7104 6016,7092 6035,7081 6052,7071 6069,7061 6084,7052 6098,7043 6111,7035 6122,7028 6133,7021 6142,7015 6151,7010 6163,7001 6175,6993 6187,6985 6197,6977 6207,6971 6217,6965 6225,6961 6232,6958 6238,6956 6244,6956 6249,6956 6254,6957 6259,6960 6264,6964 6269,6968 6274,6974 6279,6980 6284,6986 6288,6992 6293,6999 6298,7007 6304,7016 6310,7026 6316,7036 6322,7046 6328,7057 6333,7066 6338,7076 6342,7085 6346,7095 6351,7105 6355,7115 6359,7125 6363,7134 6367,7142 6370,7150 6373,7156 6377,7162 6381,7167 6386,7172 6392,7177 6399,7182 6406,7185 6415,7188 6424,7190 6435,7191 6444,7191 6455,7191 6467,7190 6481,7189 6495,7187 6510,7185 6526,7183 6542,7180 6557,7177 6572,7173 6586,7170 6599,7167 6613,7163 6626,7159 6639,7155 6653,7151 6667,7146 6680,7141 6694,7136 6706,7131 6719,7126 6730,7121 6741,7116 6752,7111 6764,7104 6776,7098 6789,7090 6801,7083 6813,7075 6825,7066 6835,7058 6844,7050 6851,7043 6857,7036 6861,7030 6864,7024 6867,7017 6869,7010 6870,7004 6870,6996 6869,6989 6867,6982 6865,6975 6862,6968 6858,6961 6853,6954 6848,6947 6842,6939 6835,6931 6826,6923 6817,6914 6807,6905 6796,6896 6784,6888 6773,6879 6761,6871 6748,6864 6736,6857 6726,6852 6716,6847 6705,6842 6694,6837 6681,6831 6667,6826 6652,6821 6636,6816 6620,6811 6602,6806 6584,6801 6565,6797 6546,6792 6526,6788 6506,6784 6485,6780 6467,6777 6448,6774 6428,6770 6407,6767 6384,6764 6361,6760 6337,6757 6312,6753 6286,6749 6259,6746 6232,6742 6206,6738 6179,6735 6153,6731 6127,6728 6102,6724 6078,6721 6054,6717 6031,6714 6009,6711 5986,6707 5964,6704 5942,6700 5920,6696 5897,6693 5874,6689 5851,6685 5828,6681 5805,6676 5783,6672 5760,6668 5738,6664 5717,6660 5696,6655 5676,6651 5657,6647 5639,6644 5622,6640 5605,6636 5588,6633 5568,6628 5547,6623 5527,6619 5507,6614 5486,6609 5465,6603 5444,6598 5423,6593 5402,6587 5382,6582 5363,6577 5344,6571 5326,6566 5309,6561 5292,6557 5276,6552 5260,6547 5243,6542 5227,6537 5210,6531 5192,6526 5175,6520 5157,6514 5140,6508 5122,6502 5105,6496 5089,6491 5073,6485 5058,6480 5044,6475 5030,6470 5017,6465 5003,6460 4988,6454 4974,6449 4959,6443 4944,6437 4929,6431 4915,6425 4900,6419 4887,6413 4873,6407 4861,6401 4849,6395 4838,6389 4827,6383 4814,6375 4801,6368 4788,6360 4775,6351 4762,6342 4748,6333 4735,6324 4722,6315 4710,6306 4698,6298 4687,6290 4676,6283 4666,6275 4655,6268 4644,6260 4633,6252 4621,6244 4610,6236 4598,6227 4587,6219 4577,6211 4566,6203 4557,6195 4547,6187 4536,6177 4525,6167 4513,6156 4501,6145 4490,6133 4478,6123 4467,6113 4457,6105 4448,6098 4440,6093 4433,6089 4427,6086 4419,6085 4410,6084 4400,6086 4388,6088 4373,6092 4356,6097 4337,6104 4316,6113 4292,6122 4265,6133 4250,6139 4234,6146 4217,6153 4198,6160 4179,6167 4158,6175 4136,6183 4112,6191 4088,6199 4062,6207 4036,6215 4009,6223 3982,6230 3954,6237 3926,6243 3897,6248 3869,6253 3841,6257 3814,6261 3787,6263 3760,6265 3733,6265 3707,6265 3681,6264 3655,6261 3629,6258 3603,6254 3577,6248 3550,6242 3523,6235 3496,6227 3469,6218 3441,6208 3414,6198 3387,6187 3361,6176 3335,6165 3310,6153 3286,6141 3263,6130 3242,6118 3221,6107 3201,6096 3183,6085 3166,6075 3151,6066 3136,6057 3123,6048 3102,6035 3083,6022 3067,6011 3052,6000 3039,5990 3028,5980 3019,5971 3010,5963 3003,5955 2997,5947 2992,5939 2987,5932 2982,5924 2977,5916 2972,5907 2966,5897 2959,5886 2952,5874 2944,5862 2936,5849 2927,5835 2918,5821 2910,5807 2902,5793 2894,5780 2886,5767 2879,5755 2873,5744 2865,5730 2858,5717 2852,5704 2845,5690 2839,5676 2834,5663 2828,5649 2824,5636 2820,5624 2816,5612 2813,5600 2811,5589 2809,5578 2807,5566 2805,5554 2804,5541 2803,5528 2802,5515 2801,5502 2801,5489 2801,5477 2801,5465 2802,5454 2802,5444 2803,5431 2805,5418 2806,5406 2808,5392 2810,5379 2813,5366 2816,5354 2819,5343 2822,5332 2825,5322 2830,5309 2835,5297 2840,5284 2846,5271 2852,5259 2857,5248 2862,5239 2866,5231 2870,5221 2874,5212 2876,5205 2877,5197 2878,5191 2877,5186 2875,5181 2872,5175 2867,5168 2862,5161 2855,5154 2848,5146 2841,5139 2834,5131 2826,5122 2817,5113 2809,5103 2802,5093 2795,5083 2789,5074 2785,5064 2781,5054 2778,5043 2775,5032 2774,5022 2773,5012 2773,5003 2774,4995 2774,4988 2776,4981 2777,4974 2778,4968 2778,4962 2777,4957 2775,4953 2772,4951 2766,4948 2756,4945 2745,4944 2732,4942 2720,4941 2709,4940 2700,4938 2691,4936 2682,4933 2675,4929 2668,4925 2663,4921 2658,4916 2652,4910 2647,4904 2641,4898 2635,4892 2628,4888 2624,4885 2620,4882 2614,4878 2607,4873 2599,4866 2589,4857 2578,4846 2565,4832 2551,4816 2536,4796 2526,4784 2516,4770 2505,4755 2493,4739 2481,4722 2469,4703 2456,4683 2443,4663 2431,4643 2418,4622 2407,4601 2396,4580 2386,4561 2377,4542 2369,4524 2363,4507 2358,4491 2354,4476 2352,4463 2351,4451 2351,4439 2352,4428 2354,4417 2357,4407 2361,4397 2366,4388 2372,4379 2379,4370 2387,4362 2395,4355 2404,4348 2414,4342 2424,4337 2434,4331 2445,4327 2455,4323 2466,4319 2477,4315 2492,4311 2507,4307 2522,4304 2539,4301 2556,4298 2574,4295 2592,4292 2611,4290 2630,4288 2649,4287 2668,4285 2686,4284 2703,4284 2720,4283 2736,4283 2752,4283 2769,4284 2787,4284 2805,4285 2823,4286 2841,4287 2860,4289 2878,4291 2895,4292 2912,4294 2928,4296 2943,4298 2957,4300 2970,4302 2983,4304 2999,4306 3015,4308 3030,4311 3046,4312 3061,4314 3075,4314 3088,4314 3099,4313 3110,4311 3119,4308 3128,4304 3137,4299 3146,4292 3155,4285 3163,4276 3170,4267 3177,4257 3183,4248 3188,4238 3193,4229 3196,4219 3200,4209 3203,4199 3205,4188 3207,4177 3208,4166 3208,4155 3208,4145 3208,4135 3207,4126 3205,4114 3201,4102 3197,4090 3192,4078 3186,4066 3179,4056 3172,4046 3165,4039 3157,4031 3147,4025 3137,4019 3126,4013 3114,4007 3102,4002 3091,3997 3081,3992 3072,3988 3063,3984 3053,3979 3043,3974 3033,3969 3023,3963 3013,3957 3003,3950 2993,3944 2984,3938 2975,3931 2965,3923 2955,3915 2943,3906 2932,3897 2920,3888 2908,3879 2896,3870 2885,3861 2873,3853 2863,3846 2853,3840 2842,3833 2831,3826 2819,3818 2807,3811 2795,3804 2783,3797 2771,3790 2761,3784 2751,3777 2741,3772 2730,3764 2719,3757 2707,3750 2696,3743 2684,3735 2672,3728 2660,3721 2649,3715 2638,3710 2627,3705 2618,3701 2608,3697 2597,3693 2586,3689 2574,3685 2562,3681 2550,3677 2537,3672 2525,3668 2513,3663 2501,3659 2490,3654 2478,3649 2466,3643 2454,3636 2441,3629 2428,3621 2414,3613 2401,3604 2388,3595 2375,3585 2363,3576 2352,3567 2342,3557 2331,3547 2321,3537 2311,3526 2300,3514 2290,3502 2280,3490 2270,3477 2261,3465 2252,3454 2244,3443 2237,3433 2231,3424 2223,3413 2216,3402 2209,3391 2202,3380 2195,3368 2189,3357 2184,3346 2178,3335 2174,3325 2170,3314 2166,3303 2162,3291 2158,3278 2154,3265 2151,3251 2148,3237 2145,3223 2142,3211 2141,3199 2139,3188 2138,3177 2137,3166 2136,3156 2136,3145 2136,3133 2136,3122 2137,3112 2138,3101 2140,3092 2141,3082 2143,3072 2145,3061 2148,3049 2151,3037 2154,3025 2158,3012 2162,3000 2166,2988 2170,2977 2174,2967 2179,2956 2183,2946 2189,2935 2195,2923 2202,2911 2210,2898 "
       fill="#d10000"
       stroke="#000000"
       stroke-width="30px"
       stroke-linejoin="bevel"
       id="polygon11" />
    <!-- Line -->
    <polygon
       points="2511,6445 2524,6445 2536,6445 2548,6445 2560,6444 2572,6444 2584,6444 2597,6444 2610,6444 2623,6444 2635,6444 2647,6444 2658,6444 2669,6444 2679,6443 2689,6443 2700,6443 2711,6442 2722,6441 2733,6440 2743,6439 2752,6437 2761,6435 2770,6433 2780,6429 2790,6424 2801,6419 2812,6413 2822,6407 2833,6401 2843,6396 2854,6391 2864,6386 2875,6382 2887,6377 2900,6372 2913,6368 2925,6364 2936,6360 2947,6356 2957,6352 2967,6348 2977,6344 2987,6339 2997,6335 3006,6330 3013,6326 3021,6323 3029,6318 3037,6312 3045,6306 3051,6300 3056,6292 3060,6285 3061,6278 3062,6270 3062,6261 3062,6251 3061,6241 3059,6232 3057,6223 3055,6215 3052,6207 3049,6198 3046,6190 3042,6181 3038,6173 3034,6164 3030,6156 3027,6148 3023,6139 3019,6129 3015,6119 3011,6108 3008,6096 3004,6086 3001,6075 2999,6066 2995,6054 2992,6041 2990,6029 2989,6018 2989,6009 2990,6003 2991,6000 2992,5998 2995,5996 2997,5994 3001,5994 3004,5993 3008,5994 3012,5995 3017,5996 3021,5998 3029,6001 3037,6006 3047,6012 3057,6018 3065,6025 3073,6031 3080,6038 3088,6044 3095,6051 3103,6057 3110,6062 3118,6065 3126,6066 3136,6066 3147,6065 3158,6064 3169,6062 3180,6061 3188,6060 3197,6059 3206,6059 3215,6059 3224,6059 3233,6059 3241,6060 3249,6060 3258,6060 3268,6061 3279,6062 3289,6064 3297,6066 3305,6068 3312,6071 3320,6075 3327,6081 3335,6087 3342,6093 3348,6100 3355,6106 3362,6114 3370,6122 3378,6129 3387,6134 3395,6138 3404,6140 3413,6140 3424,6140 3434,6138 3443,6137 3452,6136 3460,6135 3468,6134 3477,6135 3484,6137 3491,6139 3496,6143 3501,6148 3505,6154 3510,6162 3514,6171 3517,6180 3520,6189 3522,6196 3524,6204 3526,6212 3528,6221 3530,6229 3532,6238 3533,6245 3534,6253 3535,6262 3536,6271 3538,6279 3539,6285 3541,6288 3543,6288 3545,6285 3548,6279 3552,6270 3556,6259 3560,6247 3564,6236 3567,6227 3571,6218 3574,6208 3578,6198 3582,6188 3586,6178 3590,6169 3594,6161 3598,6152 3602,6143 3607,6134 3612,6126 3617,6117 3623,6109 3628,6103 3634,6097 3639,6091 3646,6086 3653,6081 3661,6076 3670,6072 3678,6069 3686,6066 3694,6064 3701,6062 3710,6060 3719,6059 3728,6058 3737,6057 3746,6057 3755,6057 3763,6058 3770,6058 3778,6059 3787,6061 3795,6063 3804,6065 3812,6068 3820,6070 3828,6074 3835,6077 3843,6081 3851,6086 3860,6091 3869,6096 3877,6102 3885,6107 3893,6112 3900,6117 3908,6123 3916,6129 3924,6135 3931,6141 3938,6147 3944,6153 3950,6159 3956,6166 3962,6173 3967,6179 3971,6184 3974,6188 3977,6189 3979,6187 3981,6182 3983,6175 3986,6168 3989,6161 3992,6157 3995,6154 3999,6151 4004,6148 4010,6146 4016,6144 4023,6142 4030,6141 4038,6140 4046,6139 4056,6139 4067,6138 4078,6138 4089,6138 4099,6137 4110,6137 4120,6137 4131,6136 4142,6135 4154,6134 4166,6133 4177,6132 4188,6130 4198,6128 4208,6126 4218,6123 4229,6120 4240,6117 4251,6113 4261,6110 4271,6107 4280,6104 4288,6101 4296,6098 4305,6095 4314,6091 4323,6088 4332,6085 4340,6081 4348,6078 4356,6074 4365,6071 4374,6067 4383,6064 4392,6062 4401,6062 4409,6063 4416,6066 4423,6070 4429,6077 4436,6086 4443,6097 4450,6109 4456,6122 4462,6134 4468,6147 4473,6157 4478,6168 4483,6180 4489,6192 4495,6205 4501,6218 4507,6231 4513,6243 4518,6255 4524,6267 4528,6277 4533,6287 4537,6298 4542,6310 4548,6321 4553,6334 4558,6346 4563,6358 4567,6370 4572,6381 4576,6392 4580,6403 4584,6414 4588,6425 4592,6437 4596,6449 4600,6461 4604,6474 4608,6486 4611,6498 4615,6510 4618,6521 4622,6531 4625,6542 4629,6553 4633,6565 4637,6578 4641,6590 4645,6602 4649,6614 4653,6625 4657,6635 4660,6644 4663,6653 4665,6660 4667,6668 4669,6675 4670,6682 4670,6690 4669,6698 4667,6705 4663,6713 4659,6720 4653,6728 4647,6734 4641,6740 4633,6747 4625,6755 4614,6763 4602,6771 4589,6781 4574,6790 4558,6800 4540,6810 4522,6820 4503,6831 4482,6841 4461,6852 4447,6858 4431,6866 4415,6873 4398,6880 4380,6888 4361,6896 4341,6905 4320,6913 4299,6922 4276,6931 4253,6940 4230,6949 4206,6957 4183,6966 4159,6974 4136,6982 4112,6990 4089,6997 4067,7004 4045,7011 4022,7018 4001,7024 3979,7030 3956,7036 3934,7042 3910,7047 3887,7053 3862,7058 3837,7063 3812,7068 3786,7073 3759,7078 3732,7083 3705,7087 3679,7091 3652,7095 3625,7098 3599,7102 3573,7105 3547,7107 3522,7110 3497,7112 3473,7114 3448,7116 3425,7118 3402,7119 3378,7120 3354,7121 3330,7122 3305,7123 3279,7124 3253,7125 3226,7125 3199,7125 3172,7126 3146,7126 3119,7125 3092,7125 3066,7125 3041,7124 3016,7123 2992,7123 2969,7122 2947,7121 2925,7119 2904,7118 2884,7117 2865,7115 2839,7113 2814,7110 2790,7107 2765,7104 2741,7101 2717,7097 2693,7092 2669,7087 2646,7082 2624,7077 2603,7071 2582,7065 2563,7058 2545,7051 2527,7044 2511,7037 2496,7030 2481,7022 2467,7014 2453,7005 2438,6996 2424,6986 2410,6975 2396,6964 2382,6952 2368,6939 2354,6926 2340,6913 2326,6899 2313,6885 2300,6872 2288,6858 2276,6844 2264,6831 2252,6817 2241,6804 2228,6788 2215,6772 2202,6755 2188,6738 2175,6721 2162,6703 2149,6685 2137,6667 2127,6650 2117,6633 2109,6617 2102,6602 2098,6588 2094,6575 2093,6564 2094,6553 2096,6542 2101,6532 2108,6523 2118,6514 2129,6506 2142,6499 2157,6493 2173,6487 2189,6482 2205,6478 2221,6475 2236,6472 2251,6470 2265,6468 2280,6465 2295,6463 2310,6461 2324,6459 2338,6457 2352,6456 2365,6454 2377,6453 2389,6452 2400,6451 2410,6450 2420,6449 2432,6448 2444,6448 2457,6447 2471,6446 2484,6446 2498,6445 "
       fill="#00b000"
       stroke="#000000"
       stroke-width="30px"
       stroke-linejoin="bevel"
       id="polygon12" />
    <!-- Line -->
    <polyline
       points=" 2452,4170 2451,4170 2448,4167 2439,4160 2424,4149 2405,4135  2384,4118 2362,4102 2341,4086 2322,4071 2305,4059 2290,4047 2277,4037 2265,4028  2254,4020 2242,4010 2230,4000 2218,3991 2206,3981 2195,3972 2184,3963 2174,3954  2164,3946 2155,3939 2147,3932 2140,3926 2134,3920 2125,3912 2117,3905 2110,3897  2103,3891 2098,3884 2093,3879 2090,3874 2088,3869 2087,3863 2087,3858 2089,3852  2091,3846 2095,3840 2098,3834 2102,3829 2107,3822 2112,3815 2117,3807 2122,3798  2126,3790 2129,3784 2132,3776 2135,3768 2137,3760 2140,3751 2142,3743 2144,3735  2146,3728 2147,3719 2149,3710 2150,3700 2151,3689 2152,3679 2152,3669 2152,3660  2152,3651 2152,3641 2151,3630 2151,3619 2150,3609 2149,3598 2148,3589 2147,3579  2145,3570 2143,3559 2140,3549 2138,3538 2135,3528 2132,3518 2129,3508 2126,3499  2123,3489 2119,3478 2114,3466 2109,3455 2104,3444 2098,3434 2091,3424 2086,3416  2079,3408 2072,3400 2064,3392 2056,3384 2048,3376 2040,3369 2032,3363 2025,3358  2018,3353 2010,3348 2002,3344 1994,3340 1988,3337 1982,3333 1979,3329 1978,3326  1978,3321 1981,3316 1985,3310 1990,3302 1996,3294 2001,3286 2005,3277 2006,3269  2005,3262 2002,3255 1995,3248 1985,3241 1974,3234 1961,3227 1948,3221 1935,3216  1923,3211 1912,3207 1901,3202 1891,3198 1880,3194 1870,3190 1860,3185 1851,3182  1843,3178 1835,3174 1826,3170 1817,3165 1807,3160 1797,3154 1787,3149 1777,3144  1767,3140 1759,3136 1750,3132 1741,3127 1730,3123 1720,3118 1709,3113 1698,3109  1687,3104 1677,3099 1667,3095 1655,3089 1642,3083 1629,3077 1616,3072 1605,3067  1597,3065 1590,3064 1586,3065 1585,3068 1585,3073 1588,3080 1593,3089 1599,3098  1605,3108 1612,3118 1619,3127 1625,3135 1632,3144 1639,3153 1646,3162 1652,3171  1659,3180 1665,3189 1671,3198 1676,3207 1682,3217 1688,3228 1694,3240 1700,3251  1706,3262 1711,3272 1716,3282 1721,3291 1725,3300 1730,3309 1735,3319 1740,3329  1744,3340 1748,3350 1752,3360 1756,3372 1760,3384 1764,3397 1768,3410 1773,3422  1778,3433 1782,3441 1787,3447 1791,3450 1795,3451 1800,3451 1805,3451 1810,3449  1816,3446 1821,3442 1826,3438 1831,3434 1836,3430 1845,3423 1854,3416 1863,3410  1873,3405 1882,3402 1891,3402 1897,3403 1903,3406 1910,3411 1917,3416 1924,3423  1931,3430 1938,3437 1944,3445 1951,3452 1958,3461 1965,3470 1972,3479 1979,3489  1986,3498 1991,3507 1996,3516 2000,3525 2004,3534 2008,3544 2011,3554 2013,3564  2015,3574 2017,3582 2018,3590 2020,3599 2021,3608 2021,3618 2021,3627 2021,3636  2020,3644 2018,3653 2016,3662 2013,3672 2009,3681 2005,3690 2000,3698 1994,3704  1987,3711 1979,3718 1971,3724 1963,3730 1957,3735 1950,3740 1944,3745 1937,3749  1931,3753 1924,3755 1918,3756 1912,3754 1905,3751 1897,3747 1889,3742 1881,3736  1874,3730 1868,3725 1861,3719 1853,3713 1846,3707 1839,3701 1833,3696 1826,3691  1819,3686 1812,3680 1804,3674 1796,3668 1789,3663 1784,3659 1778,3654 1771,3649  1764,3643 1757,3637 1749,3632 1742,3627 1735,3622 1728,3616 1721,3611 1713,3605  1706,3598 1700,3592 1695,3585 1692,3578 1691,3571 1691,3564 1693,3556 1697,3548  1702,3539 1707,3530 1712,3522 1717,3515 1721,3509 1722,3507 1723,3505 1724,3502  1725,3500 1726,3498 1726,3496 1726,3494 1726,3493 1726,3491 1725,3489 1724,3487  1722,3486 1720,3485 1718,3483 1716,3482 1713,3481 1709,3480 1706,3479 1702,3478  1697,3477 1689,3476 1679,3475 1668,3473 1654,3471 1639,3469 1623,3466 1605,3462  1587,3457 1568,3452 1550,3446 1531,3439 1512,3431 1495,3423 1477,3414 1459,3405  1440,3394 1421,3384 1402,3373 1383,3362 1365,3352 1349,3343 1334,3336 1321,3329  1310,3325 1301,3322 1294,3321 1288,3322 1285,3325 1283,3330 1283,3337 1285,3346  1288,3356 1292,3368 1297,3380 1304,3394 1310,3407 1317,3421 1324,3435 1332,3448  1339,3462 1346,3477 1354,3492 1362,3507 1370,3523 1378,3538 1386,3554 1393,3569  1400,3583 1406,3597 1411,3609 1416,3620 1420,3631 1426,3645 1430,3660 1434,3674  1438,3687 1441,3699 1443,3709 1446,3718 1448,3725 1450,3732 1452,3737 1455,3743  1458,3747 1461,3751 1464,3754 1467,3755 1470,3756 1475,3756 1480,3754 1486,3750  1493,3746 1500,3740 1507,3733 1513,3728 1519,3722 1526,3715 1533,3709 1541,3703  1548,3699 1555,3695 1562,3694 1568,3693 1575,3695 1582,3697 1590,3702 1598,3707  1606,3713 1614,3719 1622,3726 1630,3733 1639,3740 1649,3748 1660,3757 1670,3766  1680,3774 1689,3782 1698,3789 1706,3795 1714,3802 1721,3810 1729,3817 1736,3825  1743,3833 1748,3840 1754,3848 1758,3856 1762,3865 1766,3874 1769,3885 1771,3895  1772,3904 1772,3913 1770,3921 1767,3929 1762,3936 1756,3944 1747,3952 1736,3959  1724,3966 1711,3973 1696,3980 1687,3984 1677,3988 1666,3992 1654,3996 1641,4000  1628,4004 1613,4008 1598,4011 1582,4014 1566,4016 1551,4017 1535,4018 1519,4018  1503,4018 1487,4017 1470,4015 1453,4012 1435,4008 1416,4004 1398,4000 1380,3995  1362,3989 1346,3984 1331,3978 1318,3972 1306,3967 1297,3962 1289,3957 1284,3953  1280,3950 1277,3946 1274,3943 1272,3940 1271,3936 1270,3933 1270,3930 1270,3927  1271,3923 1273,3920 1274,3917 1277,3914 1279,3911 1282,3909 1285,3906 1288,3904  1291,3901 1294,3899 1297,3897 1305,3892 1313,3886 1321,3881 1329,3875 1336,3869  1343,3863 1348,3857 1352,3852 1354,3848 1355,3843 1356,3839 1356,3834 1356,3829  1354,3824 1351,3819 1348,3814 1343,3809 1338,3805 1331,3801 1323,3797 1314,3794  1304,3790 1292,3786 1278,3782 1263,3777 1247,3772 1229,3767 1212,3761 1194,3755  1176,3748 1159,3740 1141,3732 1126,3724 1111,3716 1095,3706 1079,3696 1062,3686  1046,3675 1029,3664 1014,3654 998,3644 984,3635 972,3627 960,3620 950,3614 941,3610  936,3608 932,3607 928,3606 924,3605 921,3605 917,3605 914,3605 912,3606 909,3607  907,3608 905,3610 903,3612 902,3615 901,3618 900,3621 900,3624 899,3628 899,3632  900,3636 900,3641 901,3645 902,3650 903,3655 905,3660 906,3665 908,3671 912,3681  916,3692 921,3705 928,3718 935,3733 943,3748 951,3764 961,3781 970,3797 980,3814  991,3830 1001,3846 1012,3862 1022,3878 1032,3891 1042,3905 1053,3919 1064,3934  1076,3948 1089,3963 1101,3978 1115,3993 1128,4008 1141,4022 1154,4035 1167,4047  1180,4059 1192,4069 1204,4079 1216,4088 1229,4098 1242,4107 1256,4115 1271,4123  1285,4131 1301,4138 1316,4144 1331,4150 1347,4155 1362,4159 1376,4163 1391,4167  1405,4170 1419,4173 1432,4175 1447,4177 1462,4180 1477,4182 1493,4184 1510,4185  1526,4186 1542,4187 1558,4188 1574,4188 1589,4188 1603,4187 1616,4186 1629,4185  1643,4183 1658,4180 1672,4177 1687,4173 1702,4168 1716,4163 1730,4158 1744,4152  1757,4146 1769,4141 1781,4135 1792,4130 1805,4124 1818,4117 1831,4110 1845,4103  1858,4096 1871,4089 1882,4082 1893,4076 1902,4071 1909,4066 1916,4062 1923,4057  1929,4053 1935,4050 1941,4047 1947,4046 1952,4045 1958,4045 1964,4046 1971,4049  1978,4052 1987,4057 1996,4064 2007,4071 2019,4080 2031,4089 2043,4099 2055,4109  2067,4120 2079,4130 2089,4139 2100,4148 2111,4158 2122,4168 2134,4178 2146,4189  2158,4199 2170,4210 2181,4220 2192,4229 2202,4238 2212,4246 2222,4254 2232,4262  2242,4271 2254,4280 2267,4290 2281,4300 2296,4312 2309,4322 2321,4331 2328,4336  2331,4339 2332,4339"
       fill="#ffd600"
       stroke="#000000"
       stroke-width="30px"
       stroke-linejoin="bevel"
       id="polyline12" />
    <!-- Line -->
    <polyline
       points=" 2876,5202 2877,5203 2880,5207 2887,5217 2897,5231 2908,5246  2919,5259 2928,5271 2936,5281 2943,5289 2949,5296 2957,5304 2965,5312 2974,5320  2983,5327 2993,5334 3002,5341 3011,5347 3020,5352 3029,5358 3039,5364 3050,5370  3062,5377 3073,5383 3084,5389 3094,5393 3104,5398 3113,5401 3122,5405 3132,5408  3141,5411 3151,5413 3159,5415 3168,5417 3175,5419 3183,5421 3191,5423 3199,5424  3208,5426 3217,5428 3226,5430 3234,5431 3242,5432 3250,5433 3259,5434 3268,5435  3277,5436 3286,5436 3294,5436 3302,5437 3309,5437 3317,5437 3325,5436 3335,5436  3345,5435 3351,5434 3352,5434"
       stroke="#000000"
       stroke-width="30px"
       stroke-linejoin="bevel"
       id="polyline13" />
    <!-- Line -->
    <polyline
       points=" 3161,5427 3162,5427 3166,5430 3176,5436 3192,5446 3211,5457  3231,5469 3249,5480 3266,5489 3280,5497 3293,5504 3303,5509 3314,5514 3325,5519  3336,5524 3347,5528 3359,5532 3370,5535 3381,5538 3392,5540 3402,5543 3412,5544  3422,5546 3432,5548 3442,5550 3454,5551 3466,5553 3478,5554 3491,5556 3503,5556  3514,5557 3525,5557 3536,5557 3546,5556 3556,5555 3566,5553 3577,5551 3588,5549  3599,5546 3610,5543 3620,5540 3630,5537 3640,5534 3650,5531 3661,5528 3672,5525  3683,5521 3695,5518 3707,5514 3719,5511 3731,5507 3741,5504 3752,5501 3762,5497  3773,5494 3784,5490 3796,5487 3808,5483 3820,5479 3833,5476 3845,5473 3856,5470  3868,5468 3879,5465 3892,5463 3905,5461 3919,5459 3934,5457 3949,5455 3963,5453  3977,5452 3990,5450 4002,5449 4015,5448 4027,5446 4041,5444 4055,5442 4069,5440  4083,5438 4097,5435 4111,5431 4125,5428 4138,5424 4149,5420 4160,5416 4173,5412  4186,5407 4199,5401 4213,5396 4226,5390 4239,5384 4252,5378 4265,5373 4276,5367  4288,5362 4301,5356 4314,5350 4328,5344 4342,5338 4356,5332 4370,5326 4383,5320  4395,5315 4407,5310 4418,5305 4429,5300 4441,5296 4452,5291 4464,5286 4476,5280  4487,5275 4498,5270 4508,5265 4517,5260 4525,5256 4535,5249 4545,5242 4554,5235  4564,5227 4573,5218 4582,5209 4590,5200 4597,5191 4603,5183 4609,5174 4616,5164  4624,5152 4633,5137 4643,5122 4651,5108 4658,5098 4661,5094 4661,5093"
       stroke="#000000"
       stroke-width="30px"
       stroke-linejoin="bevel"
       id="polyline14" />
    <!-- Line -->
    <polygon
       points="2672,4928 2678,4931 2685,4934 2692,4936 2699,4938 2706,4939 2713,4940 2721,4941 2729,4942 2736,4943 2743,4944 2750,4944 2756,4945 2763,4946 2770,4947 2776,4947 2781,4948 2786,4947 2792,4947 2798,4946 2805,4945 2813,4943 2821,4942 2828,4940 2836,4939 2844,4937 2854,4935 2864,4933 2873,4930 2881,4928 2889,4925 2899,4921 2908,4916 2918,4911 2926,4905 2934,4899 2940,4894 2946,4889 2952,4883 2958,4876 2964,4870 2969,4863 2974,4856 2980,4849 2986,4841 2992,4832 2999,4822 3005,4813 3012,4805 3018,4796 3024,4787 3031,4778 3038,4770 3044,4762 3050,4756 3055,4751 3059,4745 3064,4740 3068,4736 3071,4731 3074,4727 3076,4722 3077,4715 3077,4708 3077,4701 3076,4695 3075,4689 3073,4682 3071,4674 3069,4667 3066,4661 3064,4656 3062,4650 3059,4644 3056,4639 3054,4633 3051,4628 3048,4623 3044,4617 3041,4611 3037,4605 3033,4599 3029,4593 3028,4591 3026,4589 3024,4587 3022,4585 3020,4583 3017,4582 3013,4581 3008,4581 3003,4582 2997,4584 2991,4586 2983,4589 2975,4593 2966,4598 2956,4605 2945,4612 2934,4619 2923,4627 2910,4637 2896,4647 2881,4658 2866,4670 2850,4683 2833,4697 2816,4710 2800,4724 2783,4738 2767,4751 2752,4764 2738,4776 2725,4788 2713,4799 2702,4809 2692,4818 2679,4830 2668,4841 2659,4851 2651,4860 2646,4868 2641,4875 2639,4880 2637,4885 2637,4889 2637,4892 2638,4895 2640,4897 2643,4902 2647,4907 2652,4912 2656,4917 2661,4921 2666,4925 "
       fill="#d10000"
       stroke="#000000"
       stroke-width="30px"
       stroke-linejoin="bevel"
       id="polygon14" />
    <!-- Line -->
    <polyline
       points=" 2891,5190 2893,5191 2902,5194 2915,5198 2928,5203 2938,5206  2947,5209 2955,5212 2964,5215 2974,5218 2983,5221 2992,5224 3001,5226 3009,5228  3018,5230 3028,5231 3037,5232 3046,5234 3054,5235 3062,5235 3070,5236 3078,5237  3086,5237 3094,5238 3101,5238 3108,5239 3115,5239 3123,5239 3131,5239 3139,5239  3145,5239 3153,5239 3161,5239 3169,5239 3176,5239 3180,5238 3182,5238 3183,5238  3184,5238 3185,5237 3186,5237 3186,5236 3187,5236 3187,5235"
       stroke="#000000"
       stroke-width="30px"
       stroke-linejoin="bevel"
       id="polyline15" />
    <!-- Line -->
    <polygon
       points="2415,6559 2408,6553 2400,6547 2391,6540 2382,6534 2373,6527 2363,6521 2353,6515 2344,6510 2335,6506 2325,6501 2314,6497 2303,6494 2290,6490 2278,6487 2265,6484 2253,6482 2242,6480 2232,6479 2222,6478 2212,6476 2201,6476 2190,6475 2178,6474 2167,6474 2155,6474 2144,6473 2134,6474 2122,6474 2111,6474 2098,6475 2085,6475 2071,6476 2058,6477 2044,6479 2031,6480 2018,6482 2006,6484 1996,6485 1985,6487 1974,6489 1963,6491 1951,6493 1938,6496 1926,6499 1913,6502 1900,6505 1887,6508 1875,6511 1862,6515 1851,6517 1839,6521 1826,6524 1813,6527 1799,6531 1785,6535 1770,6540 1755,6544 1740,6549 1726,6553 1711,6558 1697,6563 1684,6567 1671,6572 1656,6578 1640,6584 1624,6590 1608,6596 1592,6603 1575,6611 1560,6618 1545,6625 1531,6631 1519,6637 1508,6643 1498,6649 1484,6657 1472,6665 1461,6673 1450,6682 1442,6690 1435,6697 1429,6704 1424,6710 1418,6718 1413,6727 1409,6737 1406,6747 1404,6757 1403,6767 1403,6775 1403,6783 1404,6793 1406,6803 1408,6813 1410,6824 1412,6833 1415,6843 1418,6852 1421,6861 1425,6871 1430,6881 1435,6891 1441,6901 1446,6910 1453,6918 1459,6925 1467,6933 1476,6941 1486,6949 1496,6956 1507,6963 1518,6969 1529,6975 1538,6979 1548,6984 1558,6988 1570,6992 1582,6996 1594,7000 1606,7004 1618,7007 1630,7010 1642,7013 1654,7015 1667,7017 1680,7019 1695,7021 1710,7022 1726,7024 1741,7025 1756,7026 1770,7027 1785,7028 1796,7028 1809,7029 1822,7029 1835,7030 1849,7030 1863,7030 1877,7031 1891,7031 1904,7031 1916,7032 1928,7032 1939,7033 1952,7033 1965,7033 1979,7034 1992,7034 2006,7035 2020,7035 2032,7036 2044,7036 2056,7037 2067,7037 2077,7037 2088,7037 2099,7038 2111,7038 2123,7038 2136,7038 2148,7038 2160,7038 2172,7038 2183,7038 2191,7038 2200,7038 2209,7037 2219,7036 2229,7035 2240,7033 2251,7029 2262,7025 2273,7020 2284,7013 2295,7006 2306,6997 2317,6987 2328,6976 2337,6964 2347,6951 2357,6937 2367,6922 2377,6905 2388,6887 2398,6868 2408,6849 2418,6830 2428,6811 2437,6793 2445,6775 2452,6759 2458,6743 2464,6729 2469,6717 2474,6701 2478,6687 2481,6674 2483,6663 2483,6653 2483,6643 2482,6635 2480,6628 2478,6622 2475,6617 2472,6613 2468,6609 2462,6602 2456,6595 2448,6588 2440,6581 2432,6573 2423,6566 "
       fill="#ffffff"
       stroke="#000000"
       stroke-width="30px"
       stroke-linejoin="bevel"
       id="polygon15" />
    <!-- Line -->
    <polyline
       points=" 4102,4658 4100,4659 4092,4665 4080,4673 4068,4681 4059,4686  4051,4690 4044,4693 4036,4696 4027,4698 4018,4700 4009,4701 4001,4702 3994,4703  3986,4703 3978,4704 3969,4704 3960,4705 3952,4705 3944,4705 3936,4706 3927,4706  3917,4706 3907,4706 3897,4705 3888,4704 3880,4703 3871,4701 3861,4699 3850,4696  3839,4693 3829,4690 3819,4686 3811,4683 3802,4680 3793,4676 3783,4672 3773,4668  3764,4663 3755,4658 3746,4654 3737,4648 3728,4642 3719,4636 3709,4629 3699,4622  3690,4615 3682,4609 3674,4603 3667,4597 3659,4591 3651,4585 3643,4579 3635,4573  3627,4567 3619,4562 3611,4557 3603,4552 3594,4547 3585,4541 3575,4536 3564,4530  3554,4525 3544,4521 3535,4516 3525,4512 3515,4507 3504,4503 3492,4499 3480,4494  3468,4490 3456,4487 3445,4484 3435,4481 3425,4479 3414,4477 3403,4475 3391,4473  3379,4471 3367,4469 3356,4468 3345,4466 3335,4465 3325,4464 3314,4464 3303,4463  3292,4462 3281,4462 3270,4462 3259,4462 3248,4462 3238,4463 3229,4463 3217,4465  3204,4466 3192,4468 3179,4471 3167,4474 3156,4476 3146,4479 3137,4482 3129,4485  3122,4489 3114,4493 3106,4497 3099,4502 3091,4506 3083,4511 3075,4517 3068,4521  3060,4526 3050,4532 3039,4539 3025,4547 3010,4556 2996,4565 2986,4571 2982,4574  2981,4574"
       stroke="#000000"
       stroke-width="30px"
       stroke-linejoin="bevel"
       id="polyline16" />
    <!-- Line -->
    <polyline
       points=" 2940,2986 2939,2985 2932,2981 2920,2973 2905,2963 2891,2954  2879,2947 2869,2941 2859,2937 2849,2933 2839,2930 2827,2927 2816,2924 2804,2922  2792,2920 2781,2919 2770,2918 2760,2918 2748,2917 2736,2918 2724,2918 2712,2919  2700,2921 2689,2923 2679,2925 2669,2928 2659,2932 2648,2936 2637,2941 2627,2946  2617,2952 2608,2957 2601,2963 2593,2969 2586,2976 2579,2983 2572,2991 2566,2999  2560,3008 2556,3016 2552,3024 2548,3033 2545,3042 2542,3053 2540,3063 2538,3074  2536,3085 2535,3095 2534,3105 2534,3114 2534,3124 2534,3135 2534,3145 2536,3156  2537,3166 2540,3175 2542,3184 2546,3193 2550,3202 2555,3212 2560,3222 2567,3231  2573,3240 2579,3248 2586,3255 2592,3262 2599,3268 2607,3275 2616,3281 2624,3288  2632,3293 2640,3298 2648,3303 2656,3307 2664,3311 2673,3315 2683,3319 2693,3323  2702,3326 2712,3329 2721,3331 2730,3333 2740,3335 2750,3336 2762,3338 2773,3339  2783,3340 2794,3340 2803,3341 2812,3341 2822,3341 2832,3342 2842,3342 2852,3341  2862,3341 2871,3341 2880,3340 2889,3339 2898,3339 2907,3337 2917,3336 2926,3335  2935,3334 2944,3332 2951,3331 2961,3329 2970,3328 2980,3326 2989,3324 2997,3323  3005,3323 3012,3322 3019,3322 3026,3323 3033,3324 3040,3326 3047,3329 3053,3332  3061,3336 3070,3340 3079,3344 3088,3348 3097,3350 3107,3352 3117,3353 3129,3352  3140,3352 3150,3351 3159,3349 3167,3348 3175,3346 3182,3343 3188,3340 3193,3336  3197,3331 3200,3325 3203,3317 3205,3308 3206,3298 3206,3287 3206,3278 3205,3268  3204,3257 3201,3246 3198,3235 3195,3225 3191,3217 3187,3210 3181,3203 3173,3195  3164,3187 3158,3182 3157,3181"
       stroke="#000000"
       stroke-width="30px"
       stroke-linejoin="bevel"
       id="polyline17" />
    <!-- Line -->
    <polygon
       points="3382,1943 3394,1932 3405,1922 3417,1913 3428,1904 3440,1895 3452,1886 3466,1878 3480,1869 3495,1861 3511,1853 3528,1845 3544,1839 3561,1834 3577,1830 3592,1828 3607,1828 3621,1829 3632,1831 3644,1835 3656,1839 3668,1845 3679,1853 3691,1861 3702,1871 3713,1882 3723,1893 3733,1904 3741,1916 3749,1928 3756,1940 3762,1952 3767,1965 3772,1978 3777,1991 3781,2006 3785,2021 3788,2037 3791,2054 3793,2071 3795,2088 3797,2106 3798,2123 3798,2140 3799,2157 3799,2174 3799,2189 3799,2205 3798,2222 3798,2239 3797,2258 3796,2277 3795,2296 3793,2316 3792,2336 3790,2356 3787,2376 3785,2395 3783,2414 3780,2433 3777,2451 3774,2469 3770,2486 3767,2504 3763,2522 3758,2541 3753,2560 3748,2580 3743,2599 3737,2619 3731,2638 3724,2657 3718,2676 3711,2693 3705,2710 3698,2726 3692,2741 3685,2756 3677,2773 3669,2789 3661,2805 3651,2821 3641,2837 3631,2853 3620,2869 3609,2884 3597,2899 3586,2912 3574,2925 3562,2936 3551,2947 3539,2957 3527,2967 3514,2976 3500,2985 3486,2993 3471,3001 3455,3009 3439,3016 3422,3022 3405,3027 3389,3031 3373,3034 3358,3036 3343,3037 3328,3038 3313,3037 3298,3036 3283,3033 3267,3030 3251,3025 3235,3019 3219,3013 3204,3005 3189,2997 3175,2988 3162,2979 3150,2969 3139,2958 3129,2948 3120,2936 3111,2924 3103,2911 3095,2896 3087,2881 3080,2865 3074,2849 3068,2832 3063,2816 3059,2799 3055,2784 3052,2768 3049,2754 3047,2740 3045,2726 3044,2712 3043,2697 3042,2683 3042,2667 3042,2652 3043,2636 3044,2620 3046,2604 3048,2588 3051,2572 3055,2557 3058,2542 3062,2526 3066,2512 3071,2498 3076,2483 3081,2467 3088,2451 3094,2433 3101,2416 3109,2398 3116,2379 3124,2361 3132,2344 3140,2326 3148,2309 3156,2293 3164,2277 3172,2262 3180,2247 3188,2231 3196,2216 3204,2200 3213,2184 3222,2168 3232,2152 3241,2136 3250,2120 3260,2105 3269,2091 3277,2077 3286,2065 3294,2053 3301,2041 3309,2031 3318,2017 3328,2004 3338,1992 3349,1979 3360,1967 3371,1955 "
       fill="#ffffff"
       stroke="#000000"
       stroke-width="30px"
       stroke-linejoin="bevel"
       id="polygon17" />
    <!-- Line -->
    <polyline
       points=" 2498,3459 2499,3459 2505,3459 2517,3459 2532,3460 2545,3461  2555,3461 2563,3462 2571,3464 2579,3467 2587,3471 2595,3476 2603,3481 2610,3488  2617,3495 2623,3501 2629,3507 2636,3514 2643,3522 2651,3530 2658,3538 2665,3546  2672,3553 2679,3560 2686,3568 2693,3576 2701,3584 2708,3592 2716,3599 2723,3606  2730,3613 2737,3620 2744,3627 2752,3634 2761,3642 2769,3649 2777,3657 2785,3664  2792,3672 2799,3679 2807,3687 2815,3695 2824,3704 2833,3713 2841,3722 2850,3730  2859,3737 2866,3743 2874,3749 2883,3756 2892,3762 2902,3769 2911,3775 2921,3781  2931,3787 2940,3793 2950,3798 2959,3803 2969,3809 2979,3814 2990,3820 3001,3826  3012,3831 3024,3836 3035,3841 3045,3845 3056,3849 3066,3853 3077,3856 3089,3859  3101,3862 3114,3865 3127,3868 3141,3870 3154,3872 3166,3874 3179,3876 3189,3877  3201,3878 3212,3879 3225,3879 3238,3880 3251,3880 3264,3881 3277,3881 3289,3881  3301,3881 3312,3880 3323,3880 3336,3879 3349,3878 3362,3876 3376,3875 3390,3872  3404,3870 3417,3867 3430,3864 3442,3860 3454,3857 3466,3852 3478,3848 3491,3843  3504,3837 3518,3831 3531,3825 3544,3818 3556,3813 3568,3807 3579,3802 3590,3796  3601,3791 3612,3785 3624,3780 3636,3774 3647,3768 3659,3762 3670,3756 3681,3750  3692,3744 3703,3738 3715,3731 3727,3724 3739,3717 3751,3709 3764,3701 3775,3693  3785,3686 3795,3680 3803,3673 3812,3666 3821,3658 3829,3650 3837,3643 3844,3637  3852,3631 3859,3626 3866,3622 3873,3619 3881,3617 3891,3614 3901,3613 3910,3612  3920,3611 3928,3610 3936,3610 3945,3610 3954,3609 3964,3609 3975,3609 3982,3609  3983,3609"
       stroke="#000000"
       stroke-width="45px"
       stroke-linejoin="bevel"
       id="polyline18" />
    <!-- Line -->
    <polygon
       points="2913,2667 2919,2654 2925,2640 2931,2625 2935,2612 2940,2599 2945,2585 2950,2569 2956,2552 2962,2534 2967,2515 2973,2496 2979,2477 2985,2459 2991,2440 2996,2423 3001,2406 3006,2390 3011,2374 3016,2359 3021,2343 3026,2327 3031,2311 3036,2295 3041,2279 3046,2264 3051,2249 3056,2235 3061,2222 3065,2210 3069,2199 3073,2188 3078,2175 3083,2163 3088,2151 3092,2139 3097,2127 3102,2114 3107,2102 3112,2091 3117,2080 3121,2070 3125,2060 3129,2051 3133,2039 3138,2028 3142,2016 3147,2003 3152,1991 3156,1979 3160,1968 3164,1957 3167,1948 3170,1939 3173,1929 3176,1919 3179,1909 3180,1899 3181,1889 3180,1879 3179,1869 3176,1859 3173,1851 3170,1844 3166,1836 3161,1827 3155,1819 3149,1811 3141,1803 3133,1796 3125,1790 3116,1785 3107,1782 3098,1780 3088,1778 3077,1778 3066,1780 3053,1782 3040,1785 3027,1789 3014,1794 3001,1800 2989,1805 2978,1811 2967,1816 2958,1822 2947,1829 2936,1836 2926,1843 2916,1851 2906,1860 2896,1870 2886,1880 2876,1891 2866,1902 2856,1915 2848,1924 2840,1934 2831,1946 2822,1958 2812,1971 2801,1986 2790,2000 2780,2016 2769,2031 2758,2047 2748,2062 2738,2077 2729,2092 2720,2107 2711,2122 2702,2137 2693,2153 2684,2169 2675,2185 2666,2202 2658,2219 2650,2235 2642,2251 2635,2265 2628,2279 2622,2292 2616,2304 2611,2315 2605,2327 2600,2339 2595,2350 2591,2361 2586,2373 2582,2385 2578,2396 2575,2408 2572,2421 2569,2433 2566,2446 2564,2460 2562,2472 2560,2486 2558,2500 2557,2516 2555,2533 2554,2551 2553,2568 2552,2586 2551,2604 2551,2621 2552,2637 2552,2652 2553,2666 2555,2680 2558,2697 2562,2713 2567,2728 2573,2742 2579,2756 2586,2768 2593,2779 2600,2788 2607,2796 2614,2803 2622,2810 2630,2817 2639,2824 2648,2829 2658,2834 2667,2838 2677,2841 2686,2843 2696,2845 2708,2845 2720,2845 2733,2844 2747,2841 2760,2838 2772,2832 2783,2826 2792,2820 2802,2813 2811,2804 2821,2795 2830,2785 2839,2774 2848,2764 2856,2754 2863,2744 2870,2736 2876,2727 2882,2719 2888,2710 2895,2701 2901,2690 2907,2679 "
       fill="#ffffff"
       stroke="#000000"
       stroke-width="30px"
       stroke-linejoin="bevel"
       id="polygon18" />
    <!-- Line -->
    <polyline
       points=" 3489,1649 3490,1649 3494,1646 3504,1640 3520,1632 3539,1622  3559,1611 3578,1601 3596,1593 3612,1586 3626,1581 3639,1577 3652,1573 3665,1571  3678,1569 3692,1568 3706,1568 3721,1568 3736,1569 3751,1571 3766,1573 3780,1576  3793,1580 3805,1584 3817,1588 3829,1593 3840,1599 3852,1605 3863,1612 3875,1621  3886,1630 3897,1640 3907,1650 3917,1661 3925,1672 3933,1684 3940,1696 3946,1707  3952,1719 3957,1733 3962,1748 3968,1765 3974,1785 3980,1807 3986,1830 3992,1852  3998,1873 4002,1888 4004,1897 4005,1901 4005,1902"
       stroke="#000000"
       stroke-width="30px"
       stroke-linejoin="bevel"
       id="polyline19" />
    <!-- Line -->
    <polyline
       points=" 3278,1680 3278,1679 3277,1674 3274,1664 3270,1650 3265,1634  3260,1620 3256,1607 3251,1598 3246,1589 3241,1583 3234,1576 3227,1571 3219,1566  3209,1561 3199,1557 3188,1553 3177,1550 3165,1548 3154,1546 3143,1545 3132,1544  3120,1543 3107,1543 3093,1544 3079,1545 3064,1547 3050,1550 3037,1554 3024,1558  3011,1563 3001,1569 2991,1575 2980,1582 2969,1590 2957,1599 2945,1609 2933,1620  2920,1631 2908,1643 2896,1654 2885,1666 2873,1678 2864,1688 2854,1697 2844,1708  2834,1719 2823,1730 2812,1742 2801,1755 2789,1768 2778,1782 2766,1795 2755,1809  2744,1823 2734,1836 2724,1849 2714,1862 2705,1876 2696,1889 2687,1903 2678,1917  2669,1932 2660,1948 2651,1964 2642,1980 2633,1997 2624,2014 2616,2030 2608,2046  2601,2062 2594,2077 2588,2092 2582,2106 2576,2119 2570,2134 2564,2150 2558,2165  2553,2181 2547,2197 2541,2213 2536,2229 2531,2244 2526,2260 2521,2274 2517,2288  2512,2301 2508,2313 2504,2325 2499,2338 2495,2352 2489,2366 2484,2380 2479,2394  2473,2409 2467,2423 2462,2437 2456,2451 2451,2464 2446,2477 2441,2490 2437,2503  2432,2517 2426,2532 2420,2549 2413,2568 2406,2590 2398,2613 2391,2635 2385,2652  2381,2664 2379,2669 2379,2670"
       stroke="#000000"
       stroke-width="30px"
       stroke-linejoin="bevel"
       id="polyline20" />
    <!-- Line -->
    <polygon
       points="4117,5666 4128,5673 4138,5679 4147,5685 4157,5691 4165,5696 4176,5703 4187,5710 4198,5717 4210,5724 4221,5732 4233,5739 4245,5747 4255,5754 4265,5760 4275,5767 4284,5773 4294,5779 4304,5785 4314,5792 4323,5798 4333,5805 4342,5810 4350,5816 4357,5820 4363,5824 4373,5831 4382,5836 4391,5841 4399,5845 4406,5848 4412,5850 4419,5851 4426,5851 4433,5851 4440,5850 4446,5848 4451,5846 4457,5844 4462,5840 4467,5837 4471,5834 4475,5830 4479,5826 4482,5821 4486,5816 4490,5811 4493,5806 4497,5801 4501,5796 4506,5790 4509,5785 4512,5780 4516,5774 4519,5767 4521,5760 4523,5753 4524,5747 4524,5740 4524,5734 4523,5727 4522,5719 4521,5713 4520,5707 4518,5702 4515,5697 4512,5691 4508,5686 4504,5682 4499,5677 4494,5673 4489,5668 4482,5663 4475,5658 4468,5653 4461,5648 4454,5643 4446,5638 4437,5632 4427,5626 4417,5620 4408,5614 4400,5609 4391,5604 4382,5598 4371,5591 4361,5584 4351,5578 4341,5571 4332,5565 4322,5559 4313,5553 4303,5546 4292,5540 4283,5534 4274,5528 4266,5523 4258,5519 4252,5515 4245,5511 4238,5507 4231,5503 4224,5499 4217,5495 4210,5491 4203,5486 4195,5480 4186,5474 4177,5468 4167,5460 4158,5453 4149,5447 4142,5442 4136,5437 4131,5434 4127,5431 4124,5429 4120,5428 4116,5428 4112,5428 4106,5428 4100,5429 4093,5430 4085,5431 4076,5433 4066,5434 4054,5436 4042,5438 4029,5440 4017,5441 4005,5443 3993,5445 3981,5447 3969,5449 3957,5450 3944,5452 3932,5455 3920,5457 3910,5459 3900,5460 3892,5462 3885,5464 3882,5465 3880,5465 3878,5466 3876,5467 3874,5468 3872,5468 3871,5469 3869,5470 3868,5471 3867,5472 3867,5474 3866,5475 3866,5476 3866,5478 3866,5479 3867,5481 3868,5483 3869,5485 3870,5487 3872,5489 3874,5491 3876,5493 3878,5496 3881,5498 3884,5501 3887,5504 3894,5510 3904,5517 3914,5526 3926,5535 3939,5545 3954,5555 3968,5566 3983,5576 3997,5586 4011,5596 4024,5605 4036,5613 4048,5621 4060,5629 4071,5637 4083,5644 4095,5652 4106,5659 "
       fill="#ffd600"
       stroke="#000000"
       stroke-width="30px"
       stroke-linejoin="bevel"
       id="polygon20" />
    <!-- Ellipse -->
    <ellipse
       transform="rotate(14,-9198.6973,14733.022)"
       rx="179"
       ry="279"
       fill="#000000"
       stroke="#000000"
       stroke-width="8px"
       id="ellipse20"
       cx="0"
       cy="0" />
    <!-- Line -->
    <polygon
       points="2350,4811 2356,4816 2364,4823 2372,4830 2381,4837 2390,4843 2399,4848 2408,4852 2415,4854 2423,4857 2432,4859 2441,4861 2451,4863 2461,4864 2471,4866 2480,4867 2489,4867 2500,4868 2510,4869 2522,4869 2533,4869 2543,4869 2554,4869 2563,4868 2572,4867 2582,4866 2592,4865 2602,4863 2613,4861 2623,4859 2633,4857 2642,4855 2651,4853 2661,4850 2672,4848 2682,4845 2693,4842 2703,4839 2712,4836 2720,4833 2728,4831 2736,4827 2744,4824 2751,4820 2759,4816 2766,4812 2773,4807 2779,4802 2785,4797 2792,4791 2799,4784 2807,4777 2815,4769 2823,4760 2830,4752 2838,4744 2844,4737 2851,4730 2858,4723 2865,4715 2873,4706 2880,4698 2888,4690 2895,4682 2901,4674 2908,4667 2915,4658 2923,4649 2931,4640 2939,4630 2947,4621 2953,4612 2960,4604 2965,4597 2970,4589 2975,4582 2979,4574 2984,4566 2987,4558 2990,4551 2993,4544 2994,4537 2996,4530 2996,4522 2997,4514 2997,4506 2997,4497 2996,4488 2996,4480 2995,4472 2994,4464 2993,4455 2991,4446 2989,4437 2987,4427 2984,4418 2981,4410 2977,4403 2972,4395 2967,4388 2961,4381 2954,4373 2947,4367 2939,4360 2932,4354 2926,4349 2919,4344 2912,4340 2904,4335 2896,4330 2888,4326 2881,4322 2873,4318 2866,4315 2859,4311 2851,4308 2843,4305 2834,4302 2825,4300 2817,4297 2809,4295 2801,4294 2793,4293 2785,4292 2776,4291 2767,4291 2758,4291 2750,4291 2742,4292 2734,4293 2724,4294 2714,4296 2704,4298 2693,4302 2684,4305 2676,4309 2672,4312 2667,4315 2661,4320 2654,4326 2645,4333 2635,4342 2623,4353 2609,4366 2593,4380 2575,4397 2564,4407 2552,4418 2538,4430 2524,4443 2509,4457 2493,4472 2477,4487 2460,4503 2443,4519 2426,4535 2410,4552 2394,4567 2380,4582 2366,4597 2353,4610 2342,4623 2331,4635 2322,4646 2314,4658 2306,4668 2300,4679 2295,4688 2291,4698 2288,4706 2287,4714 2286,4722 2286,4729 2287,4735 2289,4741 2291,4746 2294,4750 2297,4755 2300,4759 2303,4762 2309,4770 2316,4777 2323,4784 2330,4792 2337,4799 2344,4805 "
       fill="#d10000"
       stroke="#000000"
       stroke-width="30px"
       stroke-linejoin="bevel"
       id="polygon21" />
    <!-- Ellipse -->
    <ellipse
       transform="rotate(14,-8981.5365,12461.832)"
       rx="130"
       ry="238"
       fill="#000000"
       stroke="#000000"
       stroke-width="8px"
       id="ellipse21"
       cx="0"
       cy="0" />
    <!-- Ellipse -->
    <ellipse
       transform="rotate(10,-12889.99,16895.242)"
       rx="55"
       ry="105"
       fill="#ffffff"
       stroke="#000000"
       stroke-width="8px"
       id="ellipse22"
       cx="0"
       cy="0" />
    <!-- Line -->
    <polygon
       points="2342,6773 2351,6764 2360,6757 2369,6750 2378,6743 2386,6738 2395,6732 2403,6726 2413,6721 2422,6716 2430,6711 2439,6707 2448,6703 2456,6699 2465,6694 2474,6689 2484,6684 2495,6679 2506,6674 2518,6668 2529,6663 2540,6658 2550,6653 2560,6649 2570,6645 2580,6641 2591,6637 2602,6633 2614,6629 2626,6626 2637,6622 2648,6619 2659,6616 2670,6614 2681,6611 2692,6608 2705,6606 2718,6603 2731,6601 2744,6598 2757,6596 2770,6594 2782,6592 2794,6591 2805,6589 2817,6588 2829,6586 2842,6585 2855,6584 2868,6583 2880,6583 2892,6582 2903,6582 2914,6582 2925,6581 2936,6582 2948,6582 2960,6582 2972,6583 2985,6584 2997,6585 3008,6586 3020,6587 3031,6589 3041,6590 3053,6592 3065,6594 3077,6597 3090,6599 3102,6602 3114,6605 3126,6607 3136,6610 3146,6613 3158,6617 3170,6620 3182,6625 3195,6629 3207,6634 3218,6639 3228,6644 3238,6650 3248,6655 3258,6661 3268,6668 3279,6676 3290,6684 3300,6692 3309,6700 3318,6709 3325,6715 3332,6722 3339,6730 3346,6738 3353,6746 3360,6755 3367,6763 3373,6772 3378,6780 3383,6788 3389,6797 3394,6808 3399,6820 3404,6832 3409,6844 3413,6856 3416,6868 3420,6879 3422,6888 3424,6898 3426,6908 3428,6919 3430,6930 3432,6940 3433,6951 3435,6960 3436,6970 3437,6978 3437,6983 3437,6988 3437,6993 3436,6998 3435,7004 3433,7009 3431,7014 3427,7020 3422,7025 3417,7030 3410,7036 3402,7041 3393,7046 3382,7050 3371,7055 3358,7060 3346,7064 3333,7068 3319,7072 3303,7076 3287,7080 3268,7084 3248,7088 3227,7091 3205,7095 3182,7098 3157,7101 3133,7104 3107,7106 3081,7108 3056,7109 3030,7109 3004,7110 2978,7109 2952,7108 2926,7107 2902,7105 2877,7102 2852,7099 2826,7096 2800,7092 2773,7088 2746,7083 2718,7077 2690,7071 2662,7065 2634,7059 2607,7052 2581,7045 2556,7038 2531,7031 2508,7024 2486,7017 2466,7010 2447,7003 2429,6996 2413,6990 2398,6983 2381,6976 2366,6968 2352,6960 2339,6952 2328,6944 2318,6936 2309,6928 2302,6920 2296,6912 2291,6904 2288,6896 2285,6888 2284,6881 2283,6874 2283,6867 2284,6861 2286,6854 2288,6848 2292,6837 2298,6827 2305,6815 2313,6804 2322,6793 2332,6783 "
       fill="#ffffff"
       stroke="#000000"
       stroke-width="30px"
       stroke-linejoin="bevel"
       id="polygon22" />
    <!-- Line -->
    <polygon
       points="2176,4272 2169,4278 2162,4286 2154,4294 2147,4303 2140,4313 2135,4320 2130,4329 2125,4338 2119,4349 2114,4359 2110,4369 2106,4379 2104,4387 2101,4396 2099,4405 2098,4414 2097,4423 2096,4432 2096,4441 2096,4449 2095,4458 2095,4466 2095,4475 2095,4484 2095,4495 2095,4505 2096,4514 2096,4523 2098,4532 2099,4540 2102,4548 2105,4557 2109,4566 2114,4575 2119,4583 2125,4591 2131,4599 2138,4606 2147,4614 2156,4622 2166,4630 2176,4638 2186,4645 2196,4651 2204,4656 2213,4661 2222,4665 2231,4668 2240,4671 2250,4674 2260,4676 2269,4677 2279,4679 2289,4680 2300,4681 2312,4683 2325,4684 2338,4685 2351,4686 2362,4686 2373,4687 2384,4688 2395,4688 2407,4688 2418,4688 2430,4688 2442,4686 2452,4685 2463,4683 2472,4680 2481,4677 2490,4674 2500,4670 2510,4665 2521,4660 2530,4655 2540,4650 2548,4644 2557,4639 2567,4632 2577,4624 2587,4616 2597,4607 2606,4598 2614,4589 2620,4581 2626,4573 2631,4565 2635,4558 2639,4550 2642,4541 2645,4533 2647,4526 2648,4519 2650,4512 2651,4504 2653,4494 2654,4484 2654,4473 2654,4462 2653,4451 2651,4442 2649,4432 2647,4421 2644,4410 2641,4398 2637,4387 2633,4377 2630,4368 2626,4359 2621,4351 2616,4342 2610,4334 2604,4326 2597,4319 2591,4312 2584,4306 2577,4301 2571,4296 2563,4291 2554,4286 2544,4281 2533,4276 2521,4271 2509,4266 2496,4262 2483,4257 2471,4254 2458,4250 2444,4247 2429,4244 2413,4240 2397,4237 2381,4234 2365,4232 2351,4230 2337,4228 2325,4227 2314,4226 2299,4225 2286,4225 2274,4226 2263,4228 2253,4230 2245,4233 2238,4236 2232,4239 2224,4242 2216,4247 2207,4251 2198,4256 2190,4261 2183,4267 "
       fill="#d10000"
       stroke="#000000"
       stroke-width="30px"
       stroke-linejoin="bevel"
       id="polygon23" />
    <!-- Ellipse -->
    <ellipse
       transform="rotate(10,-13246.213,19932.485)"
       rx="55"
       ry="105"
       fill="#ffffff"
       stroke="#000000"
       stroke-width="8px"
       id="ellipse23"
       cx="0"
       cy="0" />
    <!-- Line -->
    <polygon
       points="2268,3983 2272,3976 2278,3969 2284,3963 2291,3957 2298,3951 2304,3946 2311,3941 2317,3937 2324,3932 2331,3928 2339,3924 2346,3920 2354,3916 2362,3913 2369,3911 2377,3908 2385,3906 2394,3903 2404,3901 2413,3899 2423,3898 2431,3896 2440,3896 2448,3895 2456,3894 2465,3894 2474,3893 2483,3893 2492,3893 2499,3893 2507,3892 2517,3892 2527,3892 2538,3891 2548,3891 2558,3891 2567,3891 2576,3891 2585,3892 2594,3893 2604,3895 2612,3897 2620,3899 2628,3901 2637,3905 2646,3909 2655,3913 2665,3919 2674,3925 2681,3929 2688,3935 2697,3941 2705,3948 2713,3955 2721,3962 2727,3969 2733,3975 2738,3981 2743,3988 2747,3996 2751,4003 2754,4011 2757,4019 2759,4026 2761,4033 2763,4040 2765,4048 2767,4057 2768,4066 2770,4076 2771,4085 2772,4095 2772,4105 2773,4115 2773,4125 2772,4137 2771,4149 2770,4161 2768,4173 2765,4184 2762,4193 2758,4202 2754,4211 2748,4220 2741,4228 2733,4236 2725,4243 2717,4250 2708,4255 2701,4259 2693,4263 2684,4267 2674,4270 2664,4274 2654,4277 2643,4280 2633,4282 2622,4284 2612,4286 2602,4287 2591,4288 2579,4289 2566,4290 2553,4291 2540,4292 2527,4292 2515,4292 2503,4292 2492,4292 2481,4291 2470,4291 2458,4290 2447,4289 2435,4287 2423,4285 2412,4283 2402,4281 2392,4278 2383,4275 2373,4270 2362,4265 2351,4259 2341,4251 2331,4243 2322,4235 2314,4227 2306,4219 2299,4211 2292,4202 2286,4192 2279,4182 2273,4172 2268,4162 2264,4153 2261,4145 2257,4135 2254,4125 2252,4115 2251,4106 2250,4098 2249,4091 2248,4085 2247,4078 2246,4071 2246,4063 2246,4056 2246,4048 2247,4040 2248,4030 2251,4020 2254,4009 2259,3999 2263,3989 "
       fill="#d10000"
       stroke="#000000"
       stroke-width="30px"
       stroke-linejoin="bevel"
       id="polygon24" />
    <!-- Line -->
    <polyline
       points=" 1481,6669 1482,6670 1487,6673 1499,6680 1516,6690 1534,6700  1551,6710 1567,6719 1580,6726 1593,6732 1605,6737 1615,6741 1626,6745 1637,6749  1649,6752 1661,6756 1674,6759 1687,6762 1700,6765 1713,6767 1725,6770 1737,6771  1749,6773 1762,6775 1774,6776 1788,6778 1802,6779 1817,6780 1833,6781 1848,6782  1864,6783 1879,6783 1894,6784 1908,6784 1922,6784 1934,6784 1946,6784 1959,6784  1973,6784 1987,6784 2002,6783 2017,6783 2032,6783 2047,6782 2062,6782 2077,6781  2092,6780 2107,6780 2121,6779 2138,6779 2156,6778 2175,6777 2194,6776 2213,6776  2232,6775 2250,6774 2267,6773 2282,6773 2295,6772 2306,6772 2315,6771 2317,6771  2319,6771 2321,6771 2323,6771 2325,6771 2326,6771 2328,6771 2329,6771 2330,6771  2331,6771 2332,6770 2333,6770 2334,6770 2335,6770 2334,6771 2333,6771 2332,6771  2331,6771 2330,6771 2329,6771 2328,6771 2327,6771"
       stroke="#000000"
       stroke-width="30px"
       stroke-linejoin="bevel"
       id="polyline24" />
    <!-- Line -->
    <polyline
       points=" 3533,6267 3533,6268 3534,6275 3535,6289 3536,6305 3537,6320  3538,6331 3538,6341 3538,6349 3536,6359 3535,6368 3532,6377 3529,6385 3525,6392  3522,6398 3517,6404 3512,6410 3506,6417 3500,6423 3493,6428 3486,6433 3480,6436  3474,6440 3466,6443 3458,6447 3448,6450 3439,6453 3429,6456 3419,6459 3410,6461  3400,6463 3390,6466 3377,6469 3364,6472 3350,6476 3335,6480 3319,6485 3304,6489  3287,6495 3275,6499 3261,6504 3246,6509 3229,6516 3210,6523 3188,6531 3164,6541  3139,6551 3114,6560 3091,6569 3075,6576 3064,6580 3060,6582 3059,6582"
       stroke="#000000"
       stroke-width="30px"
       stroke-linejoin="bevel"
       id="polyline25" />
    <!-- Line -->
    <polyline
       points=" 3983,6181 3983,6182 3983,6186 3984,6196 3986,6211 3987,6230  3989,6250 3991,6268 3992,6284 3993,6299 3994,6311 3995,6322 3996,6333 3997,6345  3997,6357 3998,6369 3998,6380 3998,6392 3998,6403 3998,6413 3997,6423 3997,6431  3996,6439 3994,6448 3991,6457 3988,6465 3984,6474 3979,6481 3974,6488 3968,6494  3962,6499 3955,6503 3947,6507 3937,6511 3927,6516 3915,6520 3903,6523 3892,6527  3880,6531 3869,6533 3859,6537 3847,6540 3834,6544 3821,6547 3807,6551 3793,6555  3779,6558 3766,6561 3753,6564 3742,6566 3730,6569 3718,6571 3704,6573 3690,6576  3675,6579 3660,6583 3645,6586 3629,6590 3614,6595 3598,6599 3582,6604 3570,6609  3557,6613 3543,6618 3528,6624 3511,6631 3493,6639 3472,6648 3449,6658 3426,6668  3403,6679 3381,6688 3363,6696 3350,6702 3343,6705 3339,6707"
       stroke="#000000"
       stroke-width="30px"
       stroke-linejoin="bevel"
       id="polyline26" />
    <!-- Line -->
    <polygon
       points="2253,6942 2252,6951 2252,6962 2252,6972 2253,6982 2253,6991 2254,7000 2254,7009 2256,7018 2257,7027 2259,7036 2262,7044 2264,7049 2267,7055 2271,7062 2277,7069 2284,7076 2292,7084 2301,7091 2312,7099 2320,7104 2330,7109 2340,7115 2352,7122 2364,7128 2378,7135 2392,7142 2406,7148 2420,7155 2433,7160 2446,7166 2459,7171 2472,7175 2485,7179 2498,7184 2512,7188 2527,7192 2542,7195 2558,7199 2574,7202 2590,7205 2606,7208 2623,7210 2639,7212 2654,7214 2669,7215 2686,7217 2703,7219 2721,7220 2741,7222 2760,7223 2780,7225 2799,7226 2818,7227 2837,7229 2854,7230 2871,7231 2887,7232 2903,7232 2919,7233 2935,7234 2951,7235 2968,7236 2985,7237 3002,7237 3020,7238 3037,7239 3054,7240 3071,7240 3088,7241 3104,7242 3121,7243 3135,7243 3151,7244 3166,7244 3183,7245 3201,7246 3219,7246 3237,7247 3256,7247 3274,7248 3293,7248 3311,7249 3328,7249 3345,7249 3361,7249 3377,7249 3392,7249 3408,7249 3425,7248 3442,7248 3459,7247 3476,7246 3494,7245 3512,7244 3530,7242 3548,7241 3566,7239 3583,7238 3600,7236 3617,7234 3634,7232 3649,7230 3664,7228 3680,7226 3697,7224 3715,7222 3733,7220 3752,7217 3771,7215 3789,7212 3807,7209 3825,7207 3842,7204 3859,7202 3874,7199 3889,7197 3903,7195 3918,7192 3933,7189 3948,7186 3963,7183 3978,7180 3993,7177 4007,7174 4021,7171 4035,7167 4049,7164 4061,7160 4074,7157 4085,7153 4097,7150 4109,7146 4121,7143 4133,7138 4146,7134 4160,7129 4174,7124 4188,7119 4203,7114 4217,7108 4232,7103 4246,7097 4260,7092 4273,7086 4287,7081 4300,7075 4314,7070 4329,7063 4344,7057 4359,7050 4375,7044 4391,7037 4407,7030 4423,7023 4437,7017 4452,7010 4465,7004 4478,6999 4490,6994 4503,6988 4516,6982 4529,6976 4542,6970 4555,6964 4567,6959 4578,6954 4589,6949 4598,6944 4607,6940 4615,6937 4622,6934 4634,6928 4644,6922 4654,6917 4662,6912 4668,6907 4673,6902 4677,6897 4682,6890 4686,6883 4689,6876 4692,6869 4694,6862 4695,6856 4696,6849 4696,6842 4697,6835 4696,6828 4696,6822 4695,6816 4695,6809 4694,6802 4693,6795 4693,6788 4692,6782 4692,6775 4691,6768 4691,6760 4690,6751 4690,6743 4689,6734 4688,6729 4688,6723 4686,6717 4684,6712 4682,6706 4679,6701 4675,6698 4671,6695 4666,6693 4660,6693 4653,6693 4645,6695 4635,6699 4624,6703 4612,6709 4598,6715 4584,6722 4570,6730 4556,6737 4542,6745 4529,6751 4516,6758 4502,6765 4487,6772 4471,6779 4455,6787 4439,6794 4424,6802 4408,6808 4394,6815 4380,6821 4368,6826 4355,6831 4342,6836 4329,6841 4316,6846 4303,6851 4289,6856 4276,6860 4262,6864 4250,6869 4237,6873 4225,6876 4213,6880 4202,6883 4191,6886 4179,6890 4167,6893 4154,6897 4140,6901 4126,6905 4111,6908 4096,6912 4081,6916 4067,6919 4052,6923 4038,6926 4023,6930 4008,6933 3992,6936 3976,6939 3959,6943 3941,6946 3922,6950 3903,6953 3884,6957 3865,6960 3846,6963 3829,6965 3812,6968 3795,6970 3780,6973 3764,6974 3748,6976 3732,6978 3716,6980 3700,6982 3683,6983 3666,6985 3649,6986 3633,6987 3617,6988 3601,6989 3587,6990 3572,6991 3558,6992 3544,6993 3529,6994 3514,6994 3498,6995 3481,6996 3463,6997 3445,6997 3426,6998 3407,6999 3388,7000 3369,7000 3350,7001 3331,7001 3312,7002 3296,7002 3280,7003 3263,7003 3245,7004 3226,7004 3207,7005 3187,7005 3167,7006 3146,7006 3125,7006 3104,7006 3084,7007 3064,7007 3044,7007 3025,7007 3007,7007 2989,7007 2972,7007 2953,7006 2934,7006 2915,7005 2895,7005 2875,7004 2856,7003 2836,7002 2817,7001 2798,7000 2780,6999 2763,6997 2746,6996 2731,6995 2717,6993 2703,6992 2691,6991 2674,6988 2658,6986 2643,6984 2628,6982 2613,6979 2598,6976 2584,6973 2571,6970 2559,6967 2548,6965 2538,6962 2528,6959 2517,6956 2505,6952 2493,6948 2482,6944 2470,6940 2459,6936 2449,6932 2439,6928 2431,6924 2424,6920 2415,6915 2406,6910 2398,6904 2390,6899 2382,6893 2375,6888 2369,6883 2364,6878 2356,6872 2348,6866 2340,6860 2332,6855 2325,6850 2320,6846 2316,6843 2312,6840 2308,6838 2305,6836 2301,6835 2298,6835 2295,6836 2292,6838 2287,6842 2282,6848 2276,6856 2271,6865 2267,6874 2263,6883 2260,6890 2258,6899 2256,6908 2254,6916 2254,6925 2253,6933 "
       fill="#ffffff"
       stroke="#000000"
       stroke-width="30px"
       stroke-linejoin="bevel"
       id="polygon26" />
    <!-- Line -->
    <polyline
       points=" 3095,6246 3096,6246 3100,6246 3109,6246 3123,6247 3141,6248  3159,6248 3177,6249 3193,6251 3207,6252 3220,6253 3232,6255 3244,6257 3256,6260  3269,6263 3283,6266 3299,6271 3317,6276 3337,6282 3358,6289 3378,6295 3394,6301  3405,6304 3409,6306 3410,6306"
       stroke="#00ffff"
       stroke-width="30px"
       stroke-linejoin="bevel"
       id="polyline27" />
    <!-- Line -->
    <polyline
       points=" 3599,6276 3600,6276 3605,6277 3616,6278 3633,6279 3654,6281  3676,6283 3697,6285 3717,6287 3734,6289 3749,6291 3763,6293 3777,6295 3791,6297  3805,6300 3821,6302 3838,6306 3858,6309 3879,6314 3902,6318 3924,6323 3942,6326  3953,6329 3958,6330 3959,6330"
       stroke="#00ffff"
       stroke-width="30px"
       stroke-linejoin="bevel"
       id="polyline28" />
    <!-- Line -->
    <polygon
       points="4337,6279 4344,6279 4352,6280 4359,6282 4366,6284 4373,6287 4380,6290 4387,6294 4394,6300 4401,6306 4408,6312 4414,6319 4420,6326 4426,6334 4432,6343 4437,6353 4441,6363 4444,6373 4445,6380 4446,6388 4447,6397 4447,6407 4446,6417 4445,6426 4444,6435 4443,6444 4441,6452 4439,6461 4436,6470 4433,6479 4430,6489 4426,6497 4422,6505 4418,6513 4413,6519 4408,6526 4401,6533 4395,6540 4387,6546 4380,6551 4373,6554 4366,6558 4357,6560 4346,6562 4336,6562 4325,6561 4315,6559 4306,6557 4297,6554 4288,6550 4279,6545 4271,6541 4263,6536 4257,6531 4250,6526 4245,6521 4239,6516 4234,6510 4230,6504 4227,6499 4224,6492 4221,6486 4219,6478 4218,6470 4217,6462 4217,6454 4216,6446 4217,6437 4217,6428 4218,6418 4220,6409 4221,6402 4223,6394 4224,6386 4227,6378 4230,6370 4234,6361 4238,6354 4242,6347 4246,6341 4251,6333 4257,6326 4263,6319 4269,6312 4275,6306 4281,6302 4288,6296 4297,6291 4305,6287 4314,6283 4322,6281 4330,6280 "
       fill="#ffffff"
       stroke="#000000"
       stroke-width="15px"
       stroke-linejoin="bevel"
       id="polygon28" />
    <!-- Line -->
    <polyline
       points=" 3248,6546 3249,6546 3254,6546 3265,6547 3280,6548 3296,6550  3312,6552 3326,6553 3338,6555 3349,6557 3359,6560 3369,6562 3380,6566 3392,6570  3406,6576 3422,6582 3438,6589 3453,6596 3464,6600 3469,6603 3470,6603"
       stroke="#00ffff"
       stroke-width="30px"
       stroke-linejoin="bevel"
       id="polyline29" />
    <!-- Line -->
    <polyline
       points=" 3440,6504 3441,6504 3445,6504 3456,6504 3470,6504 3485,6504  3500,6505 3513,6505 3525,6506 3535,6507 3545,6508 3555,6510 3565,6512 3577,6515  3590,6518 3606,6523 3622,6528 3637,6532 3647,6535 3652,6537 3653,6537"
       stroke="#00ffff"
       stroke-width="30px"
       stroke-linejoin="bevel"
       id="polyline30" />
    <!-- Line -->
    <polyline
       points=" 3560,6402 3561,6402 3566,6403 3578,6404 3597,6405 3620,6407  3644,6409 3666,6411 3686,6413 3704,6415 3720,6417 3734,6419 3747,6421 3760,6423  3774,6425 3787,6428 3803,6431 3819,6434 3838,6439 3857,6443 3875,6447 3890,6451  3899,6453 3903,6454 3904,6454"
       stroke="#00ffff"
       stroke-width="30px"
       stroke-linejoin="bevel"
       id="polyline31" />
    <!-- Line -->
    <polyline
       points=" 2861,6429 2863,6429 2866,6430 2872,6431 2881,6432 2887,6433  2894,6434 2902,6435 2912,6437 2923,6439 2935,6442 2947,6444 2959,6447 2971,6450  2983,6454 2993,6457 3004,6460 3016,6464 3029,6469 3044,6474 3060,6480 3078,6487  3095,6493 3109,6499 3117,6502 3121,6504 3122,6504"
       stroke="#00ffff"
       stroke-width="30px"
       stroke-linejoin="bevel"
       id="polyline32" />
    <!-- Line -->
    <polyline
       points=" 2594,6492 2595,6492 2600,6492 2611,6493 2628,6493 2649,6494  2671,6495 2692,6497 2712,6498 2729,6499 2745,6501 2759,6502 2774,6504 2786,6506  2799,6508 2813,6511 2828,6514 2845,6517 2864,6521 2884,6526 2906,6531 2927,6536  2945,6540 2959,6543 2968,6545 2971,6546 2972,6546"
       stroke="#00ffff"
       stroke-width="30px"
       stroke-linejoin="bevel"
       id="polyline33" />
    <!-- Line -->
    <polyline
       points=" 3023,6360 3024,6360 3028,6361 3037,6362 3052,6365 3070,6368  3089,6371 3107,6374 3123,6377 3138,6380 3151,6383 3163,6385 3175,6388 3187,6391  3200,6395 3213,6399 3228,6403 3246,6409 3265,6415 3285,6421 3304,6428 3320,6433  3330,6436 3334,6438 3335,6438"
       stroke="#00ffff"
       stroke-width="30px"
       stroke-linejoin="bevel"
       id="polyline34" />
  </g>
</svg>
