<?xml version="1.0" encoding="UTF-8" standalone="no"?>
<svg xmlns="http://www.w3.org/2000/svg" viewBox="0 0 113 118" width="122.576" height="128" fill="none" role="img" aria-label="Community icon">
  <g
     stroke-linecap="round"
     stroke-linejoin="round"
     id="g12">
    <path
       d="m 26,16 h 32 c 8,0 14,6 14,14 v 12 c 0,8 -6,14 -14,14 H 42 L 28,65 V 56 H 26 C 18,56 12,50 12,42 V 30 c 0,-8 6,-14 14,-14 z"
       stroke="#AD282B"
       stroke-width="2.6"
       id="path7" />
    <path
       d="m 63.866377,17.026648 h 12.510911 c 8.340607,0 14.596063,5.993338 14.596063,13.984455 V 41.99889 c 0,7.991117 -6.255456,13.984455 -14.596063,13.984455 h -2.085152 v 8.990007 L 59.696073,55.983345 h -7.298031"
       stroke="#AD282B"
       stroke-width="2.6533"
       id="path8" />
    <circle
       cx="31"
       cy="34"
       r="3.5"
       stroke="#AD282B"
       stroke-width="2.6"
       id="circle8" />
    <circle
       cx="42"
       cy="34"
       r="3.5"
       stroke="#AD282B"
       stroke-width="2.6"
       id="circle9" />
    <circle
       cx="53"
       cy="34"
       r="3.5"
       stroke="#AD282B"
       stroke-width="2.6"
       id="circle10" />
    <circle
       cx="35"
       cy="77"
       r="9"
       stroke="#AD282B"
       stroke-width="2.6"
       id="circle11" />
    <path
       d="m 17,107 c 1,-11 8,-17 18,-17 10,0 17,6 18,17"
       stroke="#AD282B"
       stroke-width="2.6"
       id="path11" />
    <circle
       cx="79"
       cy="77"
       r="9"
       stroke="#AD282B"
       stroke-width="2.6"
       id="circle12" />
    <path
       d="m 61,107 c 1,-11 8,-17 18,-17 10,0 17,6 18,17"
       stroke="#AD282B"
       stroke-width="2.6"
       id="path12" />
  </g>
</svg>
