<?xml version="1.0" encoding="UTF-8" standalone="no"?>
<svg xmlns="http://www.w3.org/2000/svg" width="144.748" height="128" viewBox="0 0 121 107" fill="none" role="img" aria-label="Documentation icon">
  <g
     stroke-linecap="round"
     stroke-linejoin="round"
     id="g16"
     transform="matrix(0.99872194,0,0,1.0786763,0.07668362,-0.96400148)">
    <path
       d="m 14,18 v 66 h 34 q 7,0 12,6 5,-6 12,-6 h 34 V 18 q 0,-5 -5,-5 H 76 Q 67,13 60,18 53,13 44,13 H 19 q -5,0 -5,5 z"
       stroke="#ad282b"
       stroke-width="4.5"
       id="path1"
       style="stroke-width:3.1;stroke-dasharray:none" />
    <path
       d="M 60,18 V 90"
       stroke="#ad282b"
       stroke-width="4.5"
       id="path2"
       style="stroke-width:3.1;stroke-dasharray:none" />
    <path
       d="m 23,35 q 11,-2 24,1"
       stroke="#ad282b"
       stroke-width="4.5"
       id="path3"
       style="stroke-width:3.1;stroke-dasharray:none" />
    <path
       d="m 23,49 q 11,-2 24,1"
       stroke="#ad282b"
       stroke-width="4.5"
       id="path4"
       style="stroke-width:3.1;stroke-dasharray:none" />
    <path
       d="m 23,63 q 11,-2 24,1"
       stroke="#ad282b"
       stroke-width="4.5"
       id="path5"
       style="stroke-width:3.1;stroke-dasharray:none" />
    <path
       d="m 73,35 q 11,-2 24,0"
       stroke="#ad282b"
       stroke-width="4.5"
       id="path6"
       style="stroke-width:3.1;stroke-dasharray:none" />
    <path
       d="m 73,49 q 11,-2 24,0"
       stroke="#ad282b"
       stroke-width="4.5"
       id="path7"
       style="stroke-width:3.1;stroke-dasharray:none" />
    <path
       d="m 73,63 q 11,-2 24,0"
       stroke="#ad282b"
       stroke-width="4.5"
       id="path8"
       style="stroke-width:3.1;stroke-dasharray:none" />
  </g>
</svg>
