<svg xmlns="http://www.w3.org/2000/svg" width="121" height="107" viewBox="0 0 121 107" fill="none">
  <g stroke-linecap="round" stroke-linejoin="round">
    <path d="M14 18V84H48Q55 84 60 90Q65 84 72 84H106V18Q106 13 101 13H76Q67 13 60 18Q53 13 44 13H19Q14 13 14 18Z" stroke="#AD282B" stroke-width="4.5"/>
    <path d="M60 18V90" stroke="#AD282B" stroke-width="4.5"/>
    <path d="M23 35Q34 33 47 36" stroke="#AD282B" stroke-width="4.5"/>
    <path d="M23 49Q34 47 47 50" stroke="#AD282B" stroke-width="4.5"/>
    <path d="M23 63Q34 61 47 64" stroke="#AD282B" stroke-width="4.5"/>
    <path d="M73 35Q84 33 97 35" stroke="#AD282B" stroke-width="4.5"/>
    <path d="M73 49Q84 47 97 49" stroke="#AD282B" stroke-width="4.5"/>
    <path d="M73 63Q84 61 97 63" stroke="#AD282B" stroke-width="4.5"/>

    <path d="M14 18V84H48Q55 84 60 90Q65 84 72 84H106V18Q106 13 101 13H76Q67 13 60 18Q53 13 44 13H19Q14 13 14 18Z" stroke="#AD282B" stroke-width="2.5"/>
    <path d="M60 18V90" stroke="#AD282B" stroke-width="2.5"/>
    <path d="M23 35Q34 33 47 36" stroke="#AD282B" stroke-width="2.5"/>
    <path d="M23 49Q34 47 47 50" stroke="#AD282B" stroke-width="2.5"/>
    <path d="M23 63Q34 61 47 64" stroke="#AD282B" stroke-width="2.5"/>
    <path d="M73 35Q84 33 97 35" stroke="#AD282B" stroke-width="2.5"/>
    <path d="M73 49Q84 47 97 49" stroke="#AD282B" stroke-width="2.5"/>
    <path d="M73 63Q84 61 97 63" stroke="#AD282B" stroke-width="2.5"/>
  </g>
</svg>
