<?xml version="1.0" encoding="UTF-8" standalone="no"?>
<svg
   version="1.1"
   id="svg2"
   xml:space="preserve"
   width="746.15997"
   height="200.64"
   viewBox="0 0 746.15997 200.64"
   sodipodi:docname="FreeBSD-header-logo.svg"
    xmlns:inkscape="http://www.inkscape.org/namespaces/inkscape"
    xmlns:sodipodi="http://sodipodi.sourceforge.net/DTD/sodipodi-0.dtd"
    xmlns="http://www.w3.org/2000/svg"
    xmlns:svg="http://www.w3.org/2000/svg">
    <defs
     id="defs6" />
    <sodipodi:namedview
     id="namedview4"
     pagecolor="#ffffff"
     bordercolor="#666666"
     borderopacity="1.0"
     inkscape:pageshadow="2"
     inkscape:pageopacity="0.0"
     inkscape:pagecheckerboard="0" />
    <g
     id="g8"
     inkscape:groupmode="layer"
     inkscape:label="ink_ext_XXXXXX"
     transform="matrix(1.3333333,0,0,-1.3333333,0,200.64)">
        <g
       id="g10"
       transform="scale(0.1)">
            <path
         d="m 3975.3,745.66 c 0,0 0,-271.39 0,-303.461 0,-8.179 -0.38,-7 8.22,-7 19.97,0 149.91,0 169.83,0 47.28,0 96.34,-1.527 139.84,20.031 55.18,27.372 87.59,100.461 81.76,159.852 -5.9,59.945 -47.1,100.938 -101.75,121.551 -27.28,10.293 -65.43,9.027 -94.51,9.027 -31.11,0 -203.39,0 -203.39,0 z m 0.06,166.465 -0.04,-96.5 228.04,-0.008 c 88.8,0 103.19,124.391 90.73,160.446 -13.01,37.647 -48.56,63.097 -84.76,74.587 -30.06,6.83 -233.97,55.37 -233.97,-138.525 z m 259.5,209.525 c 61.75,-17.42 114.94,-72.02 132.39,-133.611 19.02,-67.098 -2.23,-134.578 -47.4,-185.996 55.31,-30.5 101.76,-76.52 120.38,-138.133 17.22,-57.004 13.06,-122.812 -15.83,-175.359 -31.53,-57.36 -91.79,-102.969 -155.58,-116.61 -35.03,-7.472 -72,-4.91 -107.64,-4.91 -37.19,0 -180.4,0 -217.59,0 -27.7,0 -42.48,19.719 -42.48,45.071 0,54.378 0,108.753 0,163.136 0,158.778 0,188.981 0,347.774 0,258.938 274.65,215.298 333.75,198.638"
         style="fill:#ffffff;fill-opacity:1;fill-rule:nonzero;stroke:none"
         id="path12" />
            <path
         d="M 5097,1056.54 V 438.77 h 163.25 c 165.39,0 253.78,151.839 253.78,305.777 0,158.066 -80.09,311.993 -239.18,311.993 z m -76.97,26 c 0,33.28 19.76,49.91 60.31,49.91 h 205.93 c 204.88,0 309.93,-197.591 309.93,-387.903 0,-194.488 -126.9,-381.676 -330.74,-381.676 h -201.75 c -33.27,0 -43.68,6.231 -43.68,42.617 v 677.052"
         style="fill:#ffffff;fill-opacity:1;fill-rule:nonzero;stroke:none"
         id="path14" />
            <path
         d="m 4708.11,1055.29 c -66.97,0 -128.81,-54.77 -128.81,-126.794 0,-64.902 87.2,-102.437 173.45,-149.098 91.25,-49.707 188.63,-99.406 188.63,-204.906 0,-145.051 -108.52,-220.113 -248.51,-220.113 -63.89,0 -122.73,17.25 -174.46,50.723 -18.25,12.187 -27.38,27.398 -27.38,44.628 0,23.34 11.16,34.489 34.47,34.489 11.18,0 23.34,-4.059 35.53,-12.168 39.54,-24.332 90.26,-38.539 134.9,-38.539 88.27,0 163.29,38.539 163.29,135.918 0,60.851 -73.02,99.414 -152.13,141.004 -99.41,51.722 -210.99,108.515 -210.99,214.007 0,132.889 101.43,209.959 228.22,209.959 54.77,0 114.63,-15.2 172.45,-46.63 19.25,-11.17 28.38,-29.42 28.38,-46.68 0,-20.27 -14.2,-39.56 -35.49,-39.56 -12.18,0 -24.34,9.14 -38.53,18.26 -32.47,20.3 -90.31,35.5 -143.02,35.5"
         style="fill:#ffffff;fill-opacity:1;fill-rule:nonzero;stroke:none"
         id="path16" />
            <path
         d="m 2349.38,399.102 c -0.94,-17.903 -13.14,-34.082 -35.75,-34.082 -22.6,0 -34.86,16.96 -34.86,34.871 v 338.277 c 0,95.164 65.95,170.535 191.28,170.535 65.01,0 114.95,-11.301 156.42,-28.254 16,-6.605 26.39,-21.679 26.39,-33.929 0,-21.672 -16.03,-29.227 -32.04,-29.227 -29.22,0 -68.8,22.629 -130.04,22.629 -88.58,0 -141.36,-43.344 -141.36,-108.352 l -0.04,-332.468"
         style="fill:#ffffff;fill-opacity:1;fill-rule:nonzero;stroke:none"
         id="path18" />
            <path
         d="M 1924.32,744.793 V 398.219 c -0.92,-17.91 -12.68,-33.18 -35.29,-33.18 -22.59,0 -34.87,16.961 -34.87,34.852 v 496.246 11.222 c 4.12,160.631 111.94,240.921 225.4,240.921 h 136.09 c 30.49,0 46.27,-12.62 46.27,-36.81 0,-23.13 -15.78,-34.7 -46.27,-34.7 l -133.25,0.41 c -85.31,0 -156.97,-53.07 -156.97,-170.61 l -0.59,-50.109 c 0,0 0,16.266 -0.04,-40.836 h 234.01 c 19.48,0 35.26,-15.801 35.26,-35.273 0,-19.469 -15.78,-35.254 -35.26,-35.254 l -234.49,-0.305"
         style="fill:#ffffff;fill-opacity:1;fill-rule:nonzero;stroke:none"
         id="path20" />
            <path
         d="m 3728.87,659.77 h -389.75 l 0.49,3.921 c 6.74,51.7 36.03,100.797 80.34,134.747 31.48,24.078 69,35.789 114.77,35.789 47.06,0 86.84,-14.364 125.2,-45.188 34.26,-27.508 68.95,-79.547 68.95,-125.805 z m 72.02,13.742 c -8.79,67.937 -44.78,131.004 -101.38,177.57 -45.8,37.66 -103.6,57.566 -167.13,57.566 -125.73,0 -244.04,-100.339 -263.73,-223.679 -20.62,-129.094 54.94,-258.16 175.8,-300.231 53.15,-18.488 112.97,-18.269 177.92,0.703 20.48,5.981 43.4,13.731 56.44,30.207 9.91,12.481 9.89,33.93 -0.06,45.024 -7.05,7.91 -18.83,12.43 -32.23,12.43 -4.5,0 -8.29,-1.942 -12.71,-4.172 -1.47,-0.758 -3,-1.532 -4.56,-2.239 -9.63,-4.332 -18.57,-7.941 -27.34,-10.98 -36.15,-12.57 -72.25,-15.231 -107.87,-7.941 -38.8,7.96 -70.98,25.171 -98.34,52.562 -22.97,22.973 -40.1,52.129 -49.61,84.277 l -1.3,4.45 h 417.69 c 12.98,0 22.56,3.695 29.27,11.328 14.4,16.39 12.46,47.695 9.14,73.125"
         style="fill:#ffffff;fill-opacity:1;fill-rule:nonzero;stroke:none"
         id="path22" />
            <path
         d="m 3116.49,659.77 h -389.78 l 0.5,3.921 c 6.73,51.7 36.03,100.797 80.33,134.747 31.48,24.078 69.01,35.789 114.76,35.789 47.08,0 86.88,-14.364 125.24,-45.188 34.27,-27.508 68.95,-79.547 68.95,-125.805 z m 72.01,13.742 c -8.77,67.937 -44.78,131.004 -101.37,177.57 -45.79,37.66 -103.61,57.566 -167.15,57.566 -125.74,0 -244.06,-100.339 -263.74,-223.679 -20.63,-129.094 54.95,-258.16 175.79,-300.231 53.16,-18.488 112.99,-18.269 177.97,0.703 20.46,5.981 43.4,13.731 56.42,30.207 9.92,12.481 9.9,33.93 -0.03,45.024 -7.08,7.91 -18.83,12.43 -32.24,12.43 -4.51,0 -8.3,-1.942 -12.72,-4.172 -1.5,-0.758 -3,-1.532 -4.57,-2.239 -9.63,-4.332 -18.58,-7.941 -27.35,-10.98 -36.15,-12.57 -72.26,-15.231 -107.87,-7.941 -38.81,7.96 -70.99,25.171 -98.36,52.562 -22.97,22.973 -40.1,52.129 -49.59,84.277 l -1.31,4.45 h 417.71 c 13,0 22.59,3.695 29.27,11.328 14.41,16.39 12.46,47.695 9.14,73.125"
         style="fill:#ffffff;fill-opacity:1;fill-rule:nonzero;stroke:none"
         id="path24" />
            <path
         d="m 1619.42,1409.15 c 1.39,0 2.73,0.05 4.02,0.16 1.28,0.11 2.4,0.42 3.35,0.94 0.95,0.51 1.72,1.22 2.31,2.14 0.59,0.92 0.88,2.22 0.88,3.91 0,1.39 -0.31,2.49 -0.93,3.3 -0.63,0.8 -1.41,1.43 -2.37,1.86 -0.95,0.45 -2.02,0.72 -3.19,0.83 -1.17,0.11 -2.31,0.16 -3.41,0.16 h -9.02 v -13.3 z m -8.36,-25.85 h -7.48 v 45.54 h 17.27 c 5.5,0 9.64,-1.03 12.43,-3.09 2.79,-2.05 4.18,-5.39 4.18,-10.01 0,-4.1 -1.14,-7.11 -3.41,-9.01 -2.27,-1.91 -5.1,-3.05 -8.47,-3.41 l 12.76,-20.02 h -8.47 l -11.77,19.47 h -7.04 z m 39.6,23.53 c 0,4.99 -0.81,9.57 -2.42,13.75 -1.61,4.19 -3.85,7.78 -6.71,10.78 -2.86,3.01 -6.19,5.34 -10.01,6.99 -3.81,1.65 -7.92,2.48 -12.32,2.48 -4.47,0 -8.63,-0.83 -12.48,-2.48 -3.85,-1.65 -7.21,-3.98 -10.07,-6.99 -2.86,-3 -5.1,-6.59 -6.71,-10.78 -1.61,-4.18 -2.42,-8.76 -2.42,-13.75 0,-4.69 0.74,-9.09 2.2,-13.2 1.47,-4.1 3.57,-7.7 6.33,-10.78 2.75,-3.07 6.06,-5.51 9.95,-7.31 3.89,-1.8 8.29,-2.7 13.2,-2.7 4.4,0 8.51,0.83 12.32,2.48 3.82,1.65 7.15,3.98 10.01,6.98 2.86,3.01 5.1,6.59 6.71,10.73 1.61,4.15 2.42,8.74 2.42,13.8 z m 8.8,0 c 0,-6.15 -1.08,-11.76 -3.25,-16.82 -2.16,-5.07 -5.09,-9.39 -8.79,-12.99 -3.71,-3.59 -8,-6.38 -12.88,-8.36 -4.87,-1.97 -9.99,-2.96 -15.34,-2.96 -5.94,0 -11.38,1.04 -16.33,3.13 -4.95,2.09 -9.21,4.97 -12.76,8.64 -3.56,3.66 -6.35,8.01 -8.36,13.03 -2.02,5.02 -3.03,10.47 -3.03,16.33 0,6.17 1.08,11.78 3.25,16.83 2.16,5.07 5.09,9.39 8.8,12.99 3.7,3.58 8.01,6.37 12.92,8.36 4.91,1.97 10.08,2.97 15.51,2.97 5.35,0 10.47,-1 15.34,-2.97 4.88,-1.99 9.17,-4.78 12.88,-8.36 3.7,-3.6 6.63,-7.92 8.79,-12.99 2.17,-5.05 3.25,-10.66 3.25,-16.83"
         style="fill:#ffffff;fill-opacity:1;fill-rule:nonzero;stroke:none"
         id="path26" />
            <path
         d="m 5554.74,1093.12 c 1.39,0 2.73,0.05 4.01,0.16 1.28,0.11 2.4,0.42 3.36,0.93 0.95,0.52 1.72,1.23 2.3,2.15 0.59,0.92 0.88,2.21 0.88,3.91 0,1.39 -0.31,2.48 -0.93,3.3 -0.62,0.8 -1.41,1.43 -2.36,1.86 -0.96,0.45 -2.02,0.72 -3.2,0.83 -1.17,0.11 -2.31,0.16 -3.4,0.16 h -9.02 v -13.3 z m -8.36,-25.85 h -7.48 v 45.53 h 17.27 c 5.5,0 9.64,-1.02 12.42,-3.08 2.79,-2.05 4.18,-5.39 4.18,-10.01 0,-4.1 -1.13,-7.11 -3.4,-9.01 -2.28,-1.91 -5.1,-3.05 -8.48,-3.41 l 12.77,-20.02 h -8.47 l -11.78,19.46 h -7.03 z m 39.6,23.53 c 0,4.99 -0.81,9.57 -2.42,13.75 -1.62,4.18 -3.85,7.77 -6.71,10.78 -2.87,3.01 -6.2,5.34 -10.01,6.99 -3.82,1.65 -7.92,2.48 -12.32,2.48 -4.48,0 -8.64,-0.83 -12.49,-2.48 -3.85,-1.65 -7.21,-3.98 -10.07,-6.99 -2.85,-3.01 -5.09,-6.6 -6.71,-10.78 -1.61,-4.18 -2.41,-8.76 -2.41,-13.75 0,-4.69 0.73,-9.09 2.19,-13.2 1.47,-4.1 3.58,-7.7 6.33,-10.78 2.75,-3.07 6.07,-5.52 9.95,-7.31 3.89,-1.8 8.29,-2.7 13.21,-2.7 4.4,0 8.5,0.83 12.32,2.48 3.81,1.65 7.14,3.98 10.01,6.98 2.86,3.01 5.09,6.59 6.71,10.73 1.61,4.14 2.42,8.74 2.42,13.8 z m 8.8,0 c 0,-6.16 -1.09,-11.76 -3.25,-16.82 -2.16,-5.07 -5.1,-9.39 -8.8,-12.99 -3.7,-3.59 -7.99,-6.38 -12.87,-8.36 -4.88,-1.97 -9.99,-2.97 -15.34,-2.97 -5.95,0 -11.39,1.05 -16.34,3.14 -4.95,2.09 -9.2,4.97 -12.76,8.64 -3.56,3.66 -6.34,8.01 -8.36,13.03 -2.02,5.02 -3.03,10.47 -3.03,16.33 0,6.16 1.09,11.77 3.25,16.83 2.16,5.07 5.1,9.39 8.8,12.99 3.7,3.59 8.01,6.37 12.92,8.36 4.92,1.97 10.09,2.97 15.52,2.97 5.35,0 10.46,-1 15.34,-2.97 4.88,-1.99 9.17,-4.77 12.87,-8.36 3.7,-3.6 6.64,-7.92 8.8,-12.99 2.16,-5.06 3.25,-10.67 3.25,-16.83"
         style="fill:#ffffff;fill-opacity:1;fill-rule:nonzero;stroke:none"
         id="path28" />
            <path
         d="m 1510.88,1479.11 c 81.02,-80.98 -143.59,-436.95 -181.55,-474.93 -37.97,-37.914 -134.4,-3.04 -215.4,77.97 -81.01,80.99 -115.91,177.44 -77.94,215.41 37.96,37.99 393.9,262.56 474.89,181.55"
         style="fill:#ffffff;fill-opacity:1;fill-rule:nonzero;stroke:none"
         id="path30" />
            <path
         d="m 374.773,1393.42 c -123.691,70.19 -299.6714,148.25 -355.6636,92.26 -56.7383,-56.71 24.1914,-236.67 95.1056,-360.59 63.105,109.73 152.89,202.09 260.558,268.33"
         style="fill:#ffffff;fill-opacity:1;fill-rule:nonzero;stroke:none"
         id="path32" />
            <path
         d="m 1387.33,1032.12 c 11.38,-38.64 9.33,-70.557 -9.13,-88.983 -43.16,-43.168 -159.7,2.773 -264.75,102.763 -7.35,6.57 -14.61,13.4 -21.76,20.56 -37.98,38 -67.54,78.47 -86.45,115.72 -36.799,66 -46.002,124.3 -18.185,152.11 15.155,15.15 39.405,19.28 68.985,13.95 19.29,12.19 42.05,25.79 67.02,39.71 -101.53,52.95 -216.962,82.87 -339.435,82.87 C 377.477,1470.82 48.1875,1141.6 48.1875,735.402 48.1875,329.262 377.477,0 783.625,0 c 406.165,0 735.445,329.262 735.445,735.402 0,131.168 -34.42,254.176 -94.58,360.808 -12.99,-23.72 -25.63,-45.46 -37.16,-64.09"
         style="fill:#ffffff;fill-opacity:1;fill-rule:nonzero;stroke:none"
         id="path34" />
        </g>
    </g>
</svg>
