<?xml version="1.0" encoding="UTF-8"?>
<svg xmlns="http://www.w3.org/2000/svg" viewBox="0 0 115 128" width="115.0" height="128" role="img" aria-label="Jails icon" fill="none">
  <g
    stroke="#AD282B"
    stroke-width="2.6"
    stroke-linecap="round"
    stroke-linejoin="round"
    fill="none">
    <rect
      x="10.5"
      y="14.1"
      width="94"
      height="9.9"
      rx="3.3" />
    <path d="M16 24.2V91.9" />
    <path d="M36.5 24.2V91.9" />
    <path d="M57 24.2V91.9" />
    <path d="M77.5 24.9V74.9" />
    <path d="M98 24.3V51.0" />
    <path d="M80.4 78.4V72.1C80.4 64.3 84.9 59.6 90.7 59.6C96.5 59.6 101 64.3 101 72.1V78.4" />
    <rect
      x="73.75"
      y="79.95"
      width="33.81"
      height="27.98"
      rx="6.15" />
    <circle cx="91" cy="90.5" r="3.2" />
    <path d="M91 94V102" />
    <path d="M70.36 93.61H12.16C10.82 93.61 9.73 94.69 9.73 96.03V101.53C9.73 102.87 10.82 103.95 12.16 103.95H70.36" />
  </g>
</svg>
