<?xml version="1.0" encoding="utf-8"?>
<!-- Generator: Adobe Illustrator 17.0.2, SVG Export Plug-In . SVG Version: 6.00 Build 0)  -->
<!DOCTYPE svg PUBLIC "-//W3C//DTD SVG 1.1//EN" "http://www.w3.org/Graphics/SVG/1.1/DTD/svg11.dtd">
<svg version="1.1" id="Layer_1" xmlns="http://www.w3.org/2000/svg" xmlns:xlink="http://www.w3.org/1999/xlink" x="0px" y="0px"
	 width="595.276px" height="841.89px" viewBox="0 0 595.276 841.89" enable-background="new 0 0 595.276 841.89"
	 xml:space="preserve">
<g>
	<g>
		<path d="M465.396,638.868c0,0.558-0.451,1.008-1.009,1.008h-13.604c-0.558,0-1.01-0.45-1.01-1.008l0,0
			c0-0.558,0.452-1.01,1.01-1.01h13.604C464.945,637.858,465.396,638.31,465.396,638.868L465.396,638.868z"/>
		<circle cx="461.71" cy="644.494" r="1"/>
		<path d="M452.379,637.856c-0.553,0-1-0.449-1-1.001c0-0.052,0.004-0.104,0.013-0.153h-1.5v1.895h2.499v-0.741
			C452.387,637.854,452.383,637.856,452.379,637.856z"/>
		<path d="M451.379,640.817c0-0.553,0.447-1.001,1-1.001c0.004,0,0.008,0.001,0.012,0.001v-0.704h-2.499v1.896h1.505
			C451.385,640.947,451.379,640.883,451.379,640.817z"/>
		<path d="M462.938,636.442c0.058,0.126,0.089,0.265,0.089,0.412c0,0.552-0.447,1.001-1,1.001c-0.024,0-0.049-0.003-0.074-0.005
			v1.004h2.24v-2.412H462.938z"/>
		<path d="M457.168,630.672c-4.537,0-8.214,3.678-8.214,8.215s3.677,8.215,8.214,8.215c2.011,0,3.852-0.723,5.279-1.921
			l-1.441-1.419c-1.056,0.833-2.389,1.33-3.838,1.33c-3.426,0-6.204-2.778-6.204-6.205c0-3.427,2.778-6.204,6.204-6.204
			c3.428,0,6.205,2.777,6.205,6.204c0,0.019,0,0.036,0,0.054h2.01c0-0.018,0.002-0.035,0.002-0.054
			C465.385,634.35,461.706,630.672,457.168,630.672z"/>
	</g>
	<g>
		<path d="M484.238,638.868c0,0.558-0.451,1.008-1.009,1.008h-13.604c-0.558,0-1.009-0.45-1.009-1.008l0,0
			c0-0.558,0.451-1.01,1.009-1.01h13.604C483.787,637.858,484.238,638.31,484.238,638.868L484.238,638.868z"/>
		<circle cx="480.552" cy="644.494" r="1"/>
		<path d="M471.221,637.856c-0.553,0-1-0.449-1-1.001c0-0.052,0.006-0.104,0.013-0.153h-1.5v1.895h2.499v-0.741
			C471.227,637.854,471.225,637.856,471.221,637.856z"/>
		<path d="M470.221,640.817c0-0.553,0.447-1.001,1-1.001c0.004,0,0.007,0.001,0.012,0.001v-0.704h-2.499v1.896h1.505
			C470.227,640.947,470.221,640.883,470.221,640.817z"/>
		<path d="M481.78,636.442c0.057,0.126,0.09,0.265,0.09,0.412c0,0.552-0.448,1.001-1.001,1.001c-0.025,0-0.049-0.003-0.074-0.005
			v1.004h2.24v-2.412H481.78z"/>
		<path d="M476.01,630.672c-4.536,0-8.215,3.678-8.215,8.215s3.679,8.215,8.215,8.215c2.012,0,3.853-0.723,5.279-1.921l-1.441-1.419
			c-1.056,0.833-2.389,1.33-3.838,1.33c-3.426,0-6.203-2.778-6.203-6.205c0-3.427,2.777-6.204,6.203-6.204
			c3.428,0,6.206,2.777,6.206,6.204c0,0.019-0.001,0.036-0.001,0.054h2.01c0-0.018,0.001-0.035,0.001-0.054
			C484.226,634.35,480.548,630.672,476.01,630.672z"/>
	</g>
	<g>
		<path d="M442.064,632.566c0.002,0.008,0.006,0.018,0.01,0.026c-1.945,0.359-3.42,2.064-3.42,4.113c0,0.076,0.002,0.15,0.006,0.227
			v9.136c0,0.57-0.463,1.033-1.033,1.033c-0.571,0-1.034-0.463-1.034-1.033v-9.687c0.209-2.991,2.539-5.398,5.495-5.727
			c0.42,0.114,0.728,0.497,0.728,0.952C442.815,632.071,442.495,632.459,442.064,632.566z"/>
		<circle cx="446.895" cy="633.672" r="1"/>
		<path d="M446.273,634.513c0.373-0.591,0.818-1.132,1.326-1.609c-1.138-1.414-2.882-2.319-4.837-2.319
			c-3.3,0-5.998,2.576-6.193,5.826h2.025c0.192-2.134,1.983-3.807,4.168-3.807C444.234,632.604,445.527,633.364,446.273,634.513z"/>
	</g>
	<path d="M512.718,647.021c3.003-0.345,5.797-3.244,5.31-6.336c-0.205-1.308-1.062-2.656-2.48-3.595
		c-1.109-0.733-6.525-3.294-7.476-3.952c-0.583-0.446-1.726-1.669-1.81-2.457c-0.228-2.124,0.931-3.032,2.105-3.576
		c0.484-0.228,1.109-0.312,1.367-0.341c2.191-0.257,2.903,0.142,4.908,1.093c0.207,0.098,0.412,0.103,0.634,0.067
		c0.675-0.105,1.14-0.401,1.034-1.075c-0.08-0.5-0.357-0.729-0.88-0.988c-1.397-0.691-4.019-1.52-6.228-1.173
		c-0.037,0.006-0.072,0.014-0.109,0.02l-0.005-0.031c-3.064,0.51-5.491,3.28-5.008,6.354c0.261,1.652,1.531,3.036,2.831,3.882
		c0.87,0.729,4.016,1.993,7.127,3.719c1.105,0.612,1.549,1.217,1.711,2.586c0.168,1.421-1.478,3.034-2.764,3.523
		c-2,0.587-4.351-0.245-5.916-1.073c-0.469-0.305-0.683-0.466-1.113-0.397c-0.674,0.105-1.134,0.738-1.028,1.412
		c0.071,0.448,0.329,0.763,0.769,0.956C508.481,646.863,510.359,647.29,512.718,647.021z"/>
	<g>
		<path d="M426.862,629.982c0.009,0.004,0.019,0.008,0.028,0.011c0.375-2.03,2.154-3.569,4.293-3.569
			c0.08,0,0.158,0.003,0.236,0.007h4.379c0.596,0,1.079-0.483,1.079-1.079s-0.483-1.079-1.079-1.079h-4.953
			c-3.123,0.219-5.635,2.65-5.978,5.737c0.12,0.437,0.518,0.757,0.993,0.757C426.347,630.767,426.752,630.433,426.862,629.982z"/>
		<path d="M425.562,635.963c0,0.586,0.475,1.06,1.06,1.06h6.742c0.586,0,1.061-0.475,1.061-1.06l0,0c0-0.585-0.475-1.06-1.061-1.06
			h-6.742C426.037,634.903,425.562,635.378,425.562,635.963L425.562,635.963z"/>
		<path d="M429.67,625.338c0,0.576,0.527,1.044,1.178,1.044h0.93c0.65,0,1.179-0.468,1.179-1.044l0,0
			c0-0.578-0.528-1.046-1.179-1.046h-0.93C430.197,624.292,429.67,624.76,429.67,625.338L429.67,625.338z"/>
		<g>
			<path d="M425.947,628.036c0.596,0,1.079,0.351,1.079,0.782v17.369c0,0.432-0.483,0.781-1.079,0.781l0,0
				c-0.596,0-1.079-0.35-1.079-0.781v-16.353C424.868,629.403,425.352,628.036,425.947,628.036L425.947,628.036z"/>
		</g>
		<path d="M427.151,638.566c0-0.267,0.067-0.517,0.186-0.734c0.262-0.48,0.77-0.808,1.355-0.808h0.508v-1.552h-3.748v3.4h1.698
			V638.566z"/>
		<path d="M427.151,633.352c0,0.266,0.067,0.516,0.186,0.734c0.262,0.482,0.77,0.808,1.355,0.808h0.508v1.552h-3.748v-3.4h1.698
			V633.352z"/>
		<path d="M426.968,630.478c0.094-2.123,1.731-3.845,3.817-4.069v-2.106c-3.246,0.233-5.82,2.894-5.917,6.176H426.968z"/>
	</g>
	<g>
		<path d="M487.866,646.079c0-0.562,0.515-1.02,1.149-1.02h9.323c0.635,0,1.149,0.457,1.149,1.02l0,0
			c0,0.562-0.515,1.019-1.149,1.019h-9.323C488.381,647.098,487.866,646.642,487.866,646.079L487.866,646.079z"/>
		<path d="M488.728,647.038c-0.563,0-1.019-0.514-1.019-1.148v-15.481c0-0.635,0.456-1.149,1.019-1.149l0,0
			c0.562,0,1.02,0.515,1.02,1.149v15.481C489.748,646.524,489.291,647.038,488.728,647.038L488.728,647.038z"/>
		<path d="M497.805,634.129v1.994c2.434,0.038,4.397,2.021,4.397,4.465s-1.963,4.427-4.397,4.465v2.11
			c3.592-0.009,6.501-2.923,6.501-6.517C504.306,637.053,501.396,634.138,497.805,634.129z"/>
		<path d="M488.246,635.058c0,0.571,0.463,1.033,1.033,1.033h8.387c0.57,0,1.033-0.462,1.033-1.033l0,0
			c0-0.57-0.463-1.033-1.033-1.033h-8.387C488.709,634.024,488.246,634.487,488.246,635.058L488.246,635.058z"/>
		<path d="M492.717,625.311c0,0.562,0.286,1.019,0.639,1.019h2.574c0.352,0,0.637-0.456,0.637-1.019l0,0
			c0-0.562-0.285-1.019-0.637-1.019h-2.574C493.003,624.292,492.717,624.748,492.717,625.311L492.717,625.311z"/>
		<path d="M489.795,637.333c0-0.259,0.066-0.503,0.182-0.716c0.254-0.469,0.752-0.787,1.322-0.787h0.495v-1.513h-3.655v3.314h1.656
			V637.333z"/>
		<path d="M489.795,632.599c0,0.26,0.066,0.504,0.182,0.717c0.254,0.469,0.752,0.787,1.322,0.787h0.495v1.513h-3.655v-3.314h1.656
			V632.599z"/>
		<path d="M495.699,624.287v1.939c2.182,0.008,3.948,1.778,3.948,3.963c0,2.184-1.767,3.954-3.948,3.963v1.94
			c3.253-0.008,5.889-2.648,5.889-5.902C501.588,626.934,498.952,624.294,495.699,624.287z"/>
		<path d="M495.406,624.403v1.901c2.183,0.009,3.949,1.744,3.949,3.885s-1.767,3.876-3.949,3.884v1.901
			c3.254-0.007,5.889-2.595,5.889-5.785C501.295,626.998,498.66,624.411,495.406,624.403z"/>
		<path d="M489.727,630.323c0.091-2.07,1.688-3.749,3.723-3.968v-2.054c-3.166,0.227-5.676,2.82-5.771,6.021H489.727z"/>
	</g>
	<g>
		<path d="M520.271,645.896c0-0.521,0.352-0.942,0.787-0.942h6.385c0.436,0,0.787,0.422,0.787,0.942l0,0
			c0,0.522-2.115,0.943-2.55,0.943h-4.622C520.623,646.84,520.271,646.418,520.271,645.896L520.271,645.896z"/>
		<path d="M522.104,643.486c0,0.259,0.066,0.503,0.182,0.717c0.254,0.468,0.75,0.786,1.321,0.786h0.495v1.514h-3.654v-3.315h1.656
			V643.486z"/>
		<path d="M525.913,624.764c-0.099-0.013-0.179-0.02-0.232-0.02h-2.044l0.001,0.012c-0.017,0-0.034,0-0.052,0
			c-1.847,0-3.363,1.411-3.529,3.215v17.72c0,0.635,0.456,1.149,1.019,1.149s1.019-0.515,1.019-1.149v-17.604
			c0.002-0.255,0.067-0.494,0.182-0.704c0.205-0.377,0.566-0.656,0.998-0.751h3.384c4.614,0.58,8.182,4.465,8.182,9.171
			c0,5.021-4.059,9.105-9.116,9.243v1.803c6.068-0.138,10.945-5.03,10.945-11.046C536.668,629.851,531.893,624.999,525.913,624.764z
			"/>
	</g>
</g>
<path d="M44.87,698.61c-4.754,4.753,7.459,24.674,9.561,26.776c2.102,2.101,7.658-0.05,12.412-4.803
	c4.754-4.753,6.904-10.311,4.803-12.412C69.544,706.069,49.624,693.857,44.87,698.61z"/>
<path fill="#FFFFFF" d="M46.03,699.203c-4.332,4.118,7.322,23.4,9.304,25.485c1.982,2.085,7.101,0.438,11.431-3.68
	c4.33-4.119,6.233-9.148,4.25-11.232C69.032,707.69,50.359,695.087,46.03,699.203z"/>
<path d="M45.755,698.539c-4.226,4.02,8.028,23.765,10.078,25.923c2.051,2.156,7.14,0.646,11.366-3.373
	c4.226-4.02,5.991-9.026,3.939-11.183C69.087,707.75,49.981,694.519,45.755,698.539z"/>
<path fill="#FF3300" d="M46.315,698.872c-3.644,3.848,9.112,21.837,11.166,23.782c2.056,1.945,6.673,0.401,10.316-3.446
	c3.642-3.848,4.93-8.544,2.875-10.488C68.617,706.774,49.957,695.024,46.315,698.872z"/>
<g>
	<circle cx="84.439" cy="737.544" r="38.751"/>
</g>
<circle fill="#FFFFFF" cx="84.439" cy="737.544" r="37.763"/>
<g>
	<circle cx="82.958" cy="736.062" r="37.271"/>
</g>
<ellipse fill="#FF3300" cx="80.366" cy="732.482" rx="32.211" ry="32.951"/>
<path d="M123.256,698.499c4.731,4.732-7.662,24.798-9.785,26.921c-2.123,2.123-7.679,0.008-12.411-4.725
	c-4.733-4.732-6.847-10.29-4.725-12.412C98.458,706.16,118.524,693.767,123.256,698.499z"/>
<path fill="#FFFFFF" d="M122.018,699.984c4.323,4.324-7.407,23.062-9.399,25.055c-1.992,1.992-7.111,0.102-11.435-4.221
	c-4.323-4.323-6.212-9.443-4.221-11.436C98.957,707.391,117.695,695.661,122.018,699.984z"/>
<path d="M121.861,699.03c4.152,4.153-8.129,23.168-10.176,25.214c-2.047,2.048-7.072,0.34-11.225-3.812
	c-4.153-4.152-5.86-9.179-3.813-11.225C98.693,707.16,117.709,694.878,121.861,699.03z"/>
<path fill="#FF3300" d="M122.063,698.598c3.808,4.082-9.573,22.756-11.727,24.766c-2.154,2.011-6.988,0.328-10.797-3.755
	c-3.808-4.082-5.151-9.021-2.996-11.03C98.696,706.567,118.253,694.515,122.063,698.598z"/>
<path d="M113.396,724.509c-1.999,2-7.237,0.006-11.696-4.453c-4.459-4.459-6.452-9.696-4.452-11.698
	c0.438-0.437,1.688-1.34,3.423-2.439c-2.569-1.027-4.726-1.088-5.883,0.069c-2.361,2.362,0.338,8.89,6.029,14.581
	c5.691,5.691,12.219,8.391,14.581,6.029c1.065-1.065,1.098-2.981,0.293-5.285C114.659,722.927,113.816,724.09,113.396,724.509z"/>
<g>
	<path d="M125.322,599.258c4.276,4.274-7.578,23.062-9.582,25.066c-2.004,2.001-7.094,0.16-11.369-4.115
		c-4.276-4.274-6.118-9.365-4.114-11.369C102.261,606.835,121.047,594.982,125.322,599.258z"/>
	<path d="M65.36,603.78c-6.528-3.704-15.816-7.824-18.771-4.869c-2.995,2.993,1.277,12.491,5.019,19.031
		C54.938,612.151,59.677,607.276,65.36,603.78z"/>
	<path d="M118.801,622.85c0.601,2.039,0.492,3.724-0.482,4.696c-2.278,2.278-8.429-0.146-13.973-5.424
		c-0.388-0.347-0.771-0.707-1.148-1.085c-2.004-2.006-3.565-4.142-4.562-6.107c-1.942-3.483-2.428-6.561-0.96-8.028
		c0.8-0.8,2.08-1.018,3.641-0.736c1.019-0.643,2.22-1.361,3.538-2.096c-5.359-2.795-11.451-4.374-17.915-4.374
		c-21.436,0-38.815,17.376-38.815,38.815c0,21.435,17.379,38.813,38.815,38.813c21.437,0,38.816-17.378,38.816-38.813
		c0-6.923-1.817-13.415-4.992-19.043C120.077,620.719,119.41,621.866,118.801,622.85z"/>
</g>
<path d="M321.377,598.268c-4.753,4.753,7.46,24.674,9.561,26.774c2.101,2.103,7.657-0.048,12.41-4.802
	c4.755-4.754,6.905-10.312,4.804-12.412C346.051,605.726,326.132,593.515,321.377,598.268z"/>
<path fill="#FFFFFF" d="M322.536,598.859c-4.33,4.119,7.321,23.4,9.305,25.486c1.983,2.084,7.101,0.438,11.432-3.682
	c4.331-4.117,6.233-9.146,4.25-11.231C345.539,607.347,326.866,594.742,322.536,598.859z"/>
<path d="M322.264,598.195c-4.228,4.019,8.026,23.766,10.077,25.922c2.051,2.157,7.141,0.646,11.367-3.371
	c4.226-4.021,5.988-9.027,3.938-11.184C345.596,607.406,326.488,594.178,322.264,598.195z"/>
<path fill="#FFFFFF" d="M322.821,598.529c-3.643,3.848,9.112,21.836,11.168,23.782c2.054,1.943,6.672,0.401,10.313-3.446
	c3.644-3.849,4.931-8.545,2.876-10.49C345.125,606.43,326.463,594.682,322.821,598.529z"/>
<g>
	<circle cx="360.946" cy="637.199" r="38.751"/>
</g>
<circle fill="#FFFFFF" cx="360.947" cy="637.199" r="37.764"/>
<g>
	<circle cx="359.465" cy="635.719" r="37.27"/>
</g>
<circle fill="#FFFFFF" cx="358.108" cy="632.632" r="33.444"/>
<path d="M399.764,598.156c4.732,4.732-7.663,24.796-9.784,26.921c-2.122,2.121-7.68,0.007-12.411-4.726
	c-4.732-4.731-6.848-10.289-4.726-12.411C374.966,605.817,395.03,593.424,399.764,598.156z"/>
<path fill="#FFFFFF" d="M398.525,599.642c4.323,4.323-7.406,23.062-9.398,25.054c-1.992,1.992-7.113,0.103-11.437-4.221
	c-4.322-4.322-6.212-9.441-4.219-11.435C375.464,607.048,394.201,595.318,398.525,599.642z"/>
<path d="M398.369,598.687c4.151,4.153-8.13,23.169-10.177,25.215c-2.047,2.046-7.071,0.34-11.226-3.813
	c-4.152-4.152-5.859-9.178-3.815-11.225C375.2,606.815,394.215,594.533,398.369,598.687z"/>
<path fill="#FFFFFF" d="M398.569,598.254c3.81,4.083-9.572,22.757-11.727,24.767c-2.154,2.009-6.988,0.328-10.796-3.755
	c-3.81-4.083-5.151-9.022-2.997-11.03C375.204,606.225,394.761,594.172,398.569,598.254z"/>
<path d="M389.904,624.166c-2.001,2-7.238,0.005-11.698-4.454c-4.459-4.459-6.451-9.695-4.452-11.697
	c0.438-0.436,1.69-1.341,3.422-2.438c-2.565-1.028-4.725-1.088-5.882,0.069c-2.361,2.361,0.339,8.89,6.029,14.58
	c5.691,5.691,12.22,8.391,14.581,6.028c1.065-1.064,1.097-2.98,0.293-5.283C391.167,622.584,390.322,623.745,389.904,624.166z"/>
<path fill="#DE9000" d="M577.447,813.371c0.339-0.093,0.587-0.399,0.587-0.768c0-0.375-0.26-0.688-0.607-0.773
	c0.004-0.007,0.007-0.015,0.009-0.022c-1.57-0.29-2.759-1.664-2.759-3.318c0-0.062,0.001-0.123,0.004-0.182v-13.677
	c0-0.461-0.373-0.834-0.834-0.834c-0.461,0-0.834,0.373-0.834,0.834v14.12C573.182,811.164,575.061,813.106,577.447,813.371z
	 M471.579,821.173c-1.883,0-3.407,1.525-3.407,3.407c0,1.882,1.524,3.408,3.407,3.408c0.794,0,1.522-0.276,2.102-0.73
	c0.024-0.016,0.048-0.032,0.068-0.053c0.006-0.005,0.013-0.009,0.019-0.016l-0.002-0.002c0.069-0.073,0.111-0.172,0.111-0.281
	c0-0.229-0.185-0.414-0.414-0.414c-0.112,0-0.214,0.043-0.288,0.115l-0.005-0.005c-0.438,0.345-0.99,0.552-1.591,0.552
	c-1.111,0-2.056-0.706-2.417-1.694h0.023c-0.006-0.025-0.008-0.053-0.008-0.079c0-0.182,0.118-0.334,0.279-0.391h5.116
	c0.231,0,0.419-0.188,0.419-0.417c0-0.032-0.004-0.062-0.011-0.093C474.928,822.646,473.427,821.173,471.579,821.173z
	 M473.594,824.152c-0.011,0-0.021,0-0.031-0.001v0.002h-3.967v-0.001c-0.001,0-0.002,0-0.003,0c-0.23,0-0.416-0.185-0.416-0.416
	c0-0.021,0.002-0.042,0.005-0.062h-0.009c0.367-0.974,1.304-1.667,2.406-1.667c1.125,0,2.08,0.724,2.429,1.732
	C474.008,823.967,473.822,824.152,473.594,824.152z M489.867,825.038c-0.033-0.058-2.19-1.483-2.224-1.495
	c-0.174-0.146-0.292-0.355-0.318-0.594c-0.046-0.415,0.193-0.793,0.56-0.942c0.076-0.017,0.152-0.029,0.233-0.038
	c0.573-0.065,1.123,0.082,1.57,0.377l0.003-0.011c0.065,0.028,0.139,0.043,0.214,0.034c0.236-0.026,0.407-0.239,0.38-0.475
	c-0.018-0.168-0.132-0.303-0.282-0.356c-0.568-0.328-1.242-0.486-1.945-0.407c-0.012,0.001-0.023,0.002-0.033,0.004l-0.001-0.01
	c-0.945,0.113-1.625,0.967-1.52,1.915c0.057,0.508,0.328,0.941,0.713,1.218c0.019,0.018,2.051,1.352,2.054,1.352
	c0.143,0.141,0.241,0.331,0.265,0.546c0.048,0.436-0.22,0.833-0.621,0.965c-0.049,0.008-0.101,0.016-0.152,0.021
	c-0.611,0.068-1.197-0.084-1.677-0.394l-0.001,0.003c-0.076-0.047-0.164-0.071-0.26-0.06c-0.225,0.025-0.386,0.227-0.36,0.451
	c0.016,0.145,0.105,0.262,0.226,0.322l-0.001,0.003c0.605,0.377,1.331,0.571,2.092,0.511l0.001-0.001l0.002,0.009
	c0.013-0.002,0.025-0.003,0.038-0.004c0.953-0.106,1.64-0.964,1.534-1.916C490.31,825.66,490.132,825.306,489.867,825.038z
	 M561.855,800.018c-3.661,0-6.63,2.967-6.63,6.629c0,3.66,2.969,6.628,6.63,6.628c1.328,0,2.564-0.39,3.602-1.062l0,0
	c0.132-0.062,0.279-0.096,0.437-0.096c0.418,0,0.778,0.249,0.938,0.608h0.052c0.077,0.369,0.406,0.646,0.799,0.646
	c0.453,0,0.819-0.364,0.819-0.818v-6.097c0-0.076-0.011-0.15-0.031-0.219C568.26,802.767,565.379,800.018,561.855,800.018z
	 M561.855,811.652c-2.766,0-5.008-2.241-5.008-5.006c0-2.767,2.242-5.008,5.008-5.008c2.765,0,5.005,2.241,5.005,5.008
	C566.86,809.411,564.62,811.652,561.855,811.652z M479.12,811.83c0.004-0.007,0.007-0.015,0.009-0.022
	c-1.57-0.29-2.759-1.664-2.759-3.318c0-0.062,0.001-0.123,0.004-0.182v-6.075h0.005c0.053-0.268,0.244-0.487,0.496-0.581h2.009
	c0.44,0,0.797-0.358,0.797-0.797c0-0.44-0.357-0.798-0.797-0.798h-2.007c-0.267-0.098-0.463-0.339-0.503-0.629v-1.83
	c0-0.461-0.373-0.834-0.834-0.834c-0.461,0-0.834,0.373-0.834,0.834v1.664h-0.017c0.001,0.021,0.002,0.041,0.002,0.061
	c0,0.339-0.215,0.625-0.516,0.734h-0.433c-0.441,0-0.798,0.358-0.798,0.798c0,0.439,0.357,0.797,0.798,0.797h0.445
	c0.249,0.095,0.437,0.313,0.489,0.581h0.028v6.519c0.169,2.413,2.049,4.355,4.436,4.62c0.338-0.093,0.586-0.399,0.586-0.768
	C479.727,812.229,479.469,811.916,479.12,811.83z M578.555,822.113c0.004-0.005,0.008-0.01,0.013-0.014
	c-0.472-0.588-1.196-0.963-2.006-0.963c-1.37,0-2.489,1.069-2.57,2.416h0.011v4.005c0,0.238,0.192,0.431,0.429,0.431
	c0.237,0,0.429-0.192,0.429-0.431v-3.789c-0.002-0.029-0.003-0.061-0.003-0.094c0-0.408,0.146-0.782,0.383-1.08
	c0.033-0.039,0.067-0.078,0.104-0.115c0.021-0.021,0.041-0.041,0.062-0.061c0.307-0.275,0.711-0.444,1.157-0.444
	c0.558,0,1.052,0.267,1.368,0.675c0.001,0.001,0.001,0.001,0.003,0.003c0.028,0.038,0.058,0.075,0.084,0.115
	c0.003-0.007,0.008-0.012,0.012-0.017c0.069,0.051,0.154,0.082,0.247,0.082c0.227,0,0.414-0.184,0.414-0.416
	C578.69,822.297,578.637,822.19,578.555,822.113z M454.217,817.82c-0.232,0-0.421,0.188-0.421,0.422v3.051
	c-0.038,0.255-0.258,0.448-0.523,0.448c-0.092,0-0.18-0.024-0.255-0.065v0.008c-0.522-0.323-1.137-0.511-1.797-0.511
	c-1.881,0-3.406,1.525-3.406,3.407c0,1.882,1.525,3.408,3.406,3.408c1.883,0,3.407-1.526,3.407-3.408c0-0.007,0-0.015,0-0.021
	c0.005-0.028,0.01-0.058,0.01-0.089v-6.229C454.639,818.009,454.45,817.82,454.217,817.82z M451.222,827.154
	c-1.42,0-2.572-1.152-2.572-2.574c0-1.421,1.152-2.573,2.572-2.573c1.422,0,2.573,1.152,2.573,2.573
	C453.795,826.002,452.644,827.154,451.222,827.154z M453.983,796.555c-0.061-0.236-0.236-0.44-0.486-0.514
	c-0.034-0.012-0.068-0.016-0.103-0.022c-0.013-0.001-0.024-0.005-0.037-0.007c-0.024-0.002-0.048-0.001-0.072-0.001
	c-0.023,0-0.047-0.001-0.071,0.001c-0.014,0.002-0.024,0.006-0.038,0.007c-0.034,0.006-0.067,0.01-0.101,0.022
	c-0.251,0.074-0.427,0.276-0.486,0.512l-4.985,15.895c-0.117,0.38,0.099,0.781,0.479,0.898c0.38,0.115,0.782-0.101,0.898-0.481
	l1.592-5.077c0.08-0.155,0.239-0.262,0.425-0.264c1.45,0.408,3.173,0.45,4.585,0.095c0.011-0.001,0.02-0.002,0.032-0.002
	c0.168,0,0.313,0.088,0.4,0.218l1.577,5.03c0.115,0.38,0.518,0.596,0.898,0.481c0.38-0.117,0.594-0.519,0.479-0.898L453.983,796.555
	z M455.032,806.191c0.001,0.005,0.005,0.008,0.006,0.013c-0.291,0.098-0.609,0.168-0.941,0.211c-0.907,0.083-1.89-0.032-2.695-0.329
	c-0.115-0.096-0.182-0.214-0.19-0.335l1.763-5.62h0.003c0.018-0.167,0.159-0.297,0.329-0.297c0.088,0,0.167,0.035,0.227,0.09
	l1.786,5.696c-0.001,0.002-0.003,0.003-0.003,0.003c0.008,0.02,0.015,0.04,0.019,0.062
	C455.372,805.873,455.246,806.069,455.032,806.191z M469.164,803.097c0.363,0.538,0.576,1.188,0.576,1.888
	c0,0.06-0.002,0.121-0.004,0.182v7.372c0,0.461,0.373,0.833,0.834,0.833c0.461,0,0.834-0.372,0.834-0.833v-7.793h0.003
	c-0.158-2.623-2.335-4.701-4.997-4.701c-2.663,0-4.839,2.078-4.997,4.701h0.02v7.793c0,0.461,0.372,0.833,0.834,0.833
	c0.459,0,0.834-0.372,0.834-0.833v-7.372c-0.004-0.06-0.005-0.122-0.005-0.182c0-0.866,0.327-1.656,0.862-2.254
	c0.615-0.65,1.485-1.058,2.452-1.058C467.547,801.673,468.552,802.235,469.164,803.097z M487.767,800.114
	c-3.661,0-6.629,2.968-6.629,6.629c0,3.661,2.968,6.628,6.629,6.628s6.629-2.967,6.629-6.628
	C494.395,803.082,491.428,800.114,487.767,800.114z M487.767,811.749c-2.766,0-5.007-2.24-5.007-5.006
	c0-2.766,2.241-5.007,5.007-5.007c2.765,0,5.007,2.241,5.007,5.007C492.773,809.509,490.531,811.749,487.767,811.749z
	 M522.169,821.009c-1.881,0-3.406,1.524-3.406,3.408c0,1.881,1.525,3.405,3.406,3.405c0.683,0,1.319-0.2,1.854-0.547v0.002
	c0.067-0.032,0.143-0.051,0.223-0.051c0.21,0,0.388,0.121,0.474,0.298v0.975c0.002,0.03,0.003,0.062,0.003,0.095
	c0,0.445-0.168,0.85-0.444,1.156c-0.315,0.336-0.764,0.545-1.26,0.545c-0.101,0-0.199-0.009-0.295-0.025v0.005
	c-0.011-0.001-0.021-0.002-0.031-0.002c-0.229,0-0.416,0.184-0.416,0.414c0,0.229,0.187,0.414,0.416,0.414
	c0.011,0,0.021-0.002,0.031-0.003v0.017c0.098,0.011,0.196,0.017,0.295,0.017c1.369,0,2.486-1.067,2.568-2.416h-0.01v-1.176
	c0.007-0.028,0.01-0.058,0.01-0.087v-3.135c0-0.04-0.006-0.077-0.015-0.113C525.462,822.422,523.981,821.009,522.169,821.009z
	 M524.733,824.602c-0.008,0.035-0.015,0.069-0.015,0.108v0.042c-0.165,1.262-1.242,2.235-2.55,2.235
	c-1.42,0-2.572-1.151-2.572-2.571c0-1.422,1.152-2.574,2.572-2.574c1.422,0,2.574,1.152,2.574,2.574
	C524.743,824.479,524.738,824.54,524.733,824.602z M540.239,808.671h-0.02v-7.792c0-0.462-0.373-0.835-0.834-0.835
	c-0.46,0-0.834,0.373-0.834,0.835v7.371c0.004,0.06,0.005,0.12,0.005,0.182c0,0.866-0.327,1.657-0.863,2.255
	c-0.614,0.649-1.484,1.056-2.451,1.056c-1.137,0-2.143-0.562-2.753-1.423c-0.363-0.54-0.578-1.188-0.578-1.888
	c0-0.061,0.003-0.122,0.005-0.182v-7.371c0-0.462-0.373-0.835-0.834-0.835c-0.46,0-0.834,0.373-0.834,0.835v7.792h-0.004
	c0.158,2.622,2.336,4.7,4.998,4.7S540.082,811.293,540.239,808.671z M541.06,821.137c-1.368,0-2.485,1.069-2.568,2.416h0.01v4.005
	c0,0.238,0.192,0.431,0.429,0.431c0.237,0,0.43-0.192,0.43-0.431v-3.789c-0.003-0.029-0.004-0.061-0.004-0.094
	c0-0.443,0.168-0.851,0.443-1.157c0.317-0.335,0.766-0.544,1.261-0.544c0.585,0,1.101,0.29,1.415,0.733
	c0.188,0.277,0.298,0.611,0.298,0.969c0,0.033-0.001,0.065-0.004,0.094v3.789c0,0.238,0.192,0.431,0.43,0.431
	c0.236,0,0.429-0.192,0.429-0.431v-4.005h0.001C543.548,822.206,542.429,821.137,541.06,821.137z M553.456,801.916
	c-0.917-1.141-2.325-1.872-3.903-1.872c-2.661,0-4.839,2.078-4.997,4.701h0.02v7.793c0,0.461,0.374,0.833,0.834,0.833
	c0.461,0,0.834-0.372,0.834-0.833v-7.372c-0.004-0.06-0.005-0.122-0.005-0.182c0-0.873,0.334-1.666,0.877-2.264
	c0.613-0.645,1.478-1.048,2.438-1.048c1.086,0,2.047,0.517,2.664,1.313c0.001,0.001,0.004,0.004,0.005,0.005
	c0.057,0.073,0.114,0.144,0.165,0.222c0.007-0.01,0.015-0.021,0.021-0.03c0.135,0.1,0.299,0.16,0.479,0.16
	c0.445,0,0.808-0.362,0.808-0.808c0-0.235-0.103-0.446-0.266-0.594C553.44,801.933,553.447,801.924,553.456,801.916z
	 M504.895,819.024c-0.323,0-0.588,0.265-0.588,0.591c0,0.323,0.265,0.586,0.588,0.586c0.326,0,0.589-0.263,0.589-0.586
	C505.483,819.289,505.221,819.024,504.895,819.024z M504.885,821.174c-0.249,0-0.452,0.203-0.452,0.453v5.908
	c0,0.25,0.203,0.453,0.452,0.453c0.25,0,0.453-0.203,0.453-0.453v-5.908C505.338,821.377,505.135,821.174,504.885,821.174z
	 M559.397,821.173c-1.881,0-3.406,1.525-3.406,3.407c0,1.882,1.525,3.408,3.406,3.408c0.796,0,1.524-0.276,2.104-0.732
	c0.024-0.013,0.046-0.031,0.065-0.049c0.008-0.008,0.014-0.012,0.021-0.018l-0.004-0.002c0.071-0.073,0.113-0.172,0.113-0.281
	c0-0.229-0.187-0.414-0.416-0.414c-0.11,0-0.212,0.043-0.286,0.115l-0.005-0.005c-0.438,0.345-0.99,0.552-1.593,0.552
	c-1.111,0-2.054-0.706-2.415-1.694h0.023c-0.006-0.025-0.008-0.053-0.008-0.079c0-0.182,0.118-0.334,0.279-0.391h5.116
	c0.231,0,0.418-0.188,0.418-0.417c0-0.032-0.003-0.061-0.01-0.091C562.749,822.648,561.248,821.173,559.397,821.173z
	 M561.414,824.152c-0.011,0-0.022,0-0.031-0.001v0.002h-3.967v-0.001c-0.001,0-0.002,0-0.005,0c-0.228,0-0.414-0.185-0.414-0.416
	c0-0.021,0.002-0.042,0.005-0.062h-0.009c0.365-0.974,1.304-1.667,2.404-1.667c1.127,0,2.082,0.724,2.431,1.732
	C561.828,823.967,561.642,824.152,561.414,824.152z M502.376,800.044c-2.661,0-4.839,2.078-4.997,4.701h0.018v7.793
	c0,0.461,0.375,0.833,0.836,0.833c0.461,0,0.834-0.372,0.834-0.833v-7.372c-0.004-0.06-0.005-0.122-0.005-0.182
	c0-0.866,0.327-1.656,0.862-2.254c0.615-0.65,1.485-1.058,2.452-1.058c1.137,0,2.142,0.562,2.754,1.424
	c0.364,0.538,0.577,1.188,0.577,1.888c0,0.06-0.003,0.121-0.005,0.182v7.372c0,0.461,0.373,0.833,0.834,0.833
	c0.46,0,0.834-0.372,0.834-0.833v-7.793h0.004C507.215,802.122,505.038,800.044,502.376,800.044z M526.789,808.517
	c-0.003-0.021-0.007-0.038-0.009-0.058c-0.01-0.061-0.019-0.122-0.03-0.183c-0.36-2.232-2.215-3.962-4.506-4.121h-4.833
	c-0.452,0-0.82,0.365-0.82,0.818c0,0.454,0.368,0.822,0.82,0.822h4.395c0.06-0.005,0.12-0.006,0.18-0.006
	c0.497,0,0.969,0.11,1.392,0.307c1.058,0.569,1.779,1.686,1.779,2.971c0,0.062-0.002,0.122-0.005,0.184v1.081
	c-0.426,0.312-0.891,0.579-1.39,0.796c-0.013,0.005-0.025,0.008-0.038,0.013c-0.861,0.37-1.81,0.573-2.806,0.573
	c-2.713,0-5.072-1.51-6.284-3.735c-0.001-0.002-0.002-0.005-0.003-0.008c-0.045-0.083-0.089-0.169-0.13-0.255
	c-0.015-0.027-0.028-0.054-0.041-0.082c-0.029-0.062-0.06-0.128-0.088-0.192c-0.021-0.053-0.045-0.102-0.066-0.156
	c-0.02-0.045-0.037-0.092-0.054-0.139c-0.028-0.072-0.056-0.144-0.081-0.217c-0.012-0.032-0.021-0.065-0.033-0.098
	c-0.028-0.086-0.056-0.172-0.081-0.26c-0.008-0.026-0.016-0.055-0.023-0.083c-0.023-0.086-0.047-0.175-0.067-0.261
	c-0.009-0.034-0.017-0.069-0.024-0.104c-0.017-0.077-0.032-0.153-0.046-0.231c-0.011-0.049-0.02-0.099-0.028-0.148
	c-0.01-0.061-0.019-0.12-0.027-0.178c-0.009-0.07-0.018-0.14-0.025-0.209c-0.005-0.04-0.009-0.082-0.013-0.122
	c-0.008-0.087-0.016-0.174-0.02-0.263c-0.003-0.024-0.003-0.052-0.005-0.077c-0.004-0.099-0.007-0.2-0.008-0.3
	c0-0.02,0-0.039,0-0.057c0.001-0.102,0.004-0.201,0.008-0.302c0.002-0.023,0.002-0.049,0.004-0.072
	c0.005-0.09,0.011-0.176,0.021-0.263c0.004-0.038,0.006-0.079,0.011-0.118c0.007-0.066,0.016-0.132,0.024-0.198
	c0.01-0.06,0.018-0.12,0.027-0.18c0.007-0.041,0.015-0.083,0.021-0.124c0.016-0.083,0.031-0.165,0.051-0.248
	c0.001-0.014,0.005-0.027,0.008-0.042c0.559-2.462,2.408-4.554,5.009-5.297c0.983-0.28,1.977-0.341,2.928-0.212
	c0.001,0,0.001-0.001,0.001-0.001c0.67,0.09,1.312,0.273,1.908,0.534c0.01-0.009,0.017-0.017,0.025-0.027
	c0.068,0.02,0.137,0.032,0.21,0.032c0.452,0,0.819-0.367,0.819-0.818c0-0.307-0.168-0.568-0.417-0.71
	c-0.007-0.012-0.02-0.021-0.043-0.033c-0.735-0.313-1.523-0.526-2.344-0.629c-0.007-0.003-0.008-0.005-0.016-0.007
	c-0.048-0.006-0.094-0.009-0.14-0.014c-0.032-0.003-0.064-0.007-0.097-0.011c-0.122-0.011-0.245-0.021-0.367-0.027
	c-0.021,0-0.042-0.002-0.062-0.003c-0.131-0.007-0.264-0.009-0.395-0.009c-0.01,0-0.021-0.002-0.03-0.002
	c-0.011,0-0.021,0.002-0.031,0.002c-0.121,0-0.245,0.001-0.368,0.009c-0.036,0.001-0.069,0.003-0.104,0.004
	c-0.102,0.006-0.202,0.014-0.304,0.023c-0.06,0.006-0.12,0.011-0.181,0.018c-0.071,0.008-0.143,0.017-0.214,0.027
	c-0.092,0.012-0.182,0.025-0.271,0.041c-0.041,0.006-0.083,0.016-0.125,0.021c-0.118,0.022-0.236,0.047-0.354,0.073
	c-0.017,0.004-0.034,0.008-0.051,0.012c-0.139,0.032-0.277,0.068-0.413,0.107c-0.002,0-0.003,0-0.004,0
	c-0.002,0.002-0.002,0.002-0.004,0.002c-0.143,0.041-0.284,0.084-0.424,0.133c-0.004,0-0.006,0.002-0.009,0.003
	c-0.132,0.045-0.263,0.094-0.393,0.145c-0.015,0.006-0.028,0.011-0.041,0.017c-0.113,0.045-0.225,0.093-0.335,0.144
	c-0.031,0.013-0.062,0.025-0.093,0.041c-0.088,0.042-0.177,0.086-0.264,0.129c-0.051,0.026-0.101,0.051-0.149,0.076
	c-0.064,0.034-0.128,0.069-0.191,0.106c-0.069,0.038-0.137,0.077-0.205,0.117c-0.041,0.025-0.082,0.051-0.124,0.078
	c-0.085,0.051-0.17,0.107-0.253,0.161c-0.023,0.015-0.045,0.031-0.067,0.047c-0.099,0.067-0.194,0.136-0.29,0.206
	c-0.01,0.007-0.018,0.015-0.026,0.021c-0.106,0.08-0.211,0.16-0.312,0.245c-0.003,0.001-0.003,0.001-0.004,0.003
	c-0.108,0.088-0.213,0.181-0.317,0.274c0,0-0.001,0.001-0.003,0.003c-0.101,0.092-0.201,0.187-0.299,0.284
	c-0.008,0.008-0.015,0.016-0.022,0.024c-0.089,0.09-0.178,0.18-0.262,0.274c-0.021,0.022-0.041,0.045-0.061,0.068
	c-0.07,0.08-0.142,0.159-0.208,0.241c-0.037,0.044-0.072,0.089-0.107,0.134c-0.049,0.062-0.1,0.123-0.146,0.186
	c-0.052,0.068-0.102,0.139-0.151,0.21c-0.028,0.041-0.06,0.08-0.086,0.121c-0.065,0.094-0.126,0.189-0.186,0.285
	c-0.014,0.02-0.026,0.038-0.039,0.058c-0.069,0.114-0.137,0.229-0.2,0.344c-0.003,0.006-0.006,0.01-0.008,0.015
	c-0.203,0.363-0.38,0.741-0.529,1.134c-0.002,0.006-0.005,0.011-0.006,0.016c-0.044,0.114-0.085,0.232-0.123,0.35
	c-0.008,0.021-0.016,0.043-0.022,0.063c-0.031,0.101-0.062,0.202-0.091,0.302c-0.012,0.042-0.024,0.085-0.036,0.127
	c-0.022,0.08-0.041,0.16-0.06,0.242c-0.016,0.067-0.031,0.133-0.045,0.199c-0.014,0.059-0.024,0.118-0.036,0.179
	c-0.017,0.091-0.035,0.184-0.049,0.274c-0.007,0.038-0.012,0.077-0.017,0.114c-0.017,0.115-0.032,0.231-0.045,0.348
	c-0.002,0.018-0.004,0.037-0.005,0.058c-0.014,0.134-0.023,0.269-0.031,0.403c0,0.008,0,0.016,0,0.023
	c-0.008,0.143-0.012,0.286-0.012,0.431c0,0.004,0,0.007,0,0.01c0,0.004,0,0.008,0,0.012c0,0.138,0.004,0.273,0.011,0.409
	c0.001,0.021,0.002,0.045,0.002,0.066c0.007,0.116,0.016,0.231,0.027,0.345c0.004,0.047,0.009,0.094,0.014,0.14
	c0.011,0.086,0.021,0.171,0.034,0.258c0.01,0.075,0.022,0.152,0.034,0.228c0.009,0.056,0.019,0.111,0.029,0.166
	c0.019,0.105,0.041,0.208,0.065,0.312c0.007,0.029,0.013,0.059,0.021,0.091c0.029,0.123,0.06,0.246,0.095,0.368
	c0.003,0.009,0.004,0.017,0.008,0.027c0.001,0.006,0.005,0.014,0.007,0.021c0.037,0.128,0.077,0.257,0.12,0.383
	c0.005,0.017,0.011,0.031,0.017,0.048c0.041,0.12,0.084,0.236,0.13,0.354c0.01,0.025,0.021,0.054,0.032,0.081
	c0.04,0.099,0.082,0.196,0.127,0.294c0.018,0.043,0.037,0.087,0.058,0.129c0.036,0.077,0.073,0.151,0.11,0.228
	c0.032,0.062,0.062,0.124,0.097,0.186c0.026,0.052,0.055,0.102,0.084,0.154c0.045,0.081,0.092,0.16,0.139,0.24
	c0.017,0.029,0.036,0.058,0.054,0.088c0.06,0.097,0.122,0.193,0.186,0.288c0.008,0.01,0.014,0.02,0.021,0.03
	c0.393,0.58,0.851,1.106,1.36,1.568c0.011,0.009,0.021,0.019,0.033,0.028c0.091,0.081,0.182,0.162,0.275,0.24
	c0.032,0.026,0.065,0.05,0.097,0.075c0.074,0.06,0.147,0.119,0.225,0.176c0.057,0.044,0.114,0.085,0.172,0.126
	c0.054,0.037,0.105,0.077,0.157,0.113c0.084,0.056,0.169,0.108,0.253,0.164c0.029,0.019,0.06,0.038,0.092,0.058
	c0.103,0.064,0.209,0.125,0.314,0.184c0.015,0.008,0.027,0.016,0.042,0.025c0.116,0.064,0.235,0.127,0.356,0.188
	c0.004,0.001,0.008,0.003,0.012,0.005c0.123,0.061,0.247,0.118,0.372,0.174c0.004,0.001,0.008,0.004,0.012,0.005
	c0.119,0.053,0.241,0.102,0.362,0.148c0.012,0.004,0.023,0.009,0.035,0.013c0.11,0.043,0.222,0.081,0.335,0.12
	c0.025,0.007,0.053,0.017,0.078,0.025c0.097,0.03,0.192,0.06,0.289,0.087c0.046,0.013,0.092,0.027,0.139,0.04
	c0.076,0.02,0.153,0.038,0.231,0.057c0.069,0.017,0.141,0.033,0.211,0.049c0.055,0.013,0.111,0.022,0.167,0.033
	c0.096,0.018,0.19,0.036,0.286,0.051c0.034,0.006,0.07,0.011,0.104,0.016c0.118,0.019,0.236,0.032,0.354,0.045
	c0.019,0.002,0.036,0.004,0.053,0.005c0.136,0.015,0.272,0.024,0.408,0.031c0.006,0,0.013,0,0.02,0.001
	c0.144,0.008,0.288,0.011,0.434,0.011c0.002,0,0.006,0,0.009,0c0.004,0,0.006,0,0.01,0c0.143,0,0.286-0.003,0.431-0.012
	c0.019-0.001,0.041-0.003,0.061-0.003c0.119-0.006,0.238-0.017,0.359-0.028c0.045-0.005,0.088-0.009,0.133-0.014
	c0.089-0.01,0.178-0.021,0.265-0.034c0.074-0.011,0.148-0.022,0.222-0.034c0.056-0.01,0.11-0.021,0.166-0.03
	c0.104-0.021,0.206-0.041,0.308-0.064c0.027-0.005,0.053-0.013,0.08-0.018c0.125-0.031,0.251-0.063,0.376-0.099
	c0.004,0,0.006-0.002,0.01-0.003c0.007-0.001,0.013-0.003,0.021-0.005c0.139-0.041,0.276-0.084,0.413-0.13
	c0.017-0.008,0.033-0.013,0.051-0.02c0.123-0.042,0.246-0.088,0.366-0.137c0.033-0.013,0.067-0.027,0.101-0.04
	c0.062-0.027,0.126-0.052,0.188-0.078c0.005-0.002,0.005-0.005,0.009-0.009c0.606-0.269,1.172-0.597,1.689-0.981
	c0.36-0.092,0.63-0.416,0.63-0.808v-0.064c0.002-0.026,0.002-0.052,0-0.079v-1.877c-0.006-0.097-0.021-0.191-0.033-0.285
	C526.786,808.519,526.787,808.518,526.789,808.517z"/>
<path d="M321.377,697.759c-4.753,4.754,7.46,24.674,9.561,26.775c2.101,2.102,7.657-0.049,12.41-4.803
	c4.755-4.753,6.905-10.31,4.804-12.412C346.051,705.217,326.132,693.006,321.377,697.759z"/>
<path fill="#FFFFFF" d="M322.536,698.352c-4.33,4.118,7.321,23.399,9.305,25.485c1.983,2.084,7.101,0.438,11.432-3.681
	c4.331-4.118,6.233-9.148,4.25-11.232C345.539,706.839,326.866,694.233,322.536,698.352z"/>
<path d="M322.264,697.687c-4.228,4.02,8.026,23.766,10.077,25.922c2.051,2.158,7.141,0.646,11.367-3.371
	c4.226-4.02,5.988-9.026,3.938-11.183C345.596,706.898,326.488,693.669,322.264,697.687z"/>
<path fill="#FFFFFF" d="M322.821,698.021c-3.643,3.848,9.112,21.836,11.168,23.782c2.054,1.943,6.672,0.401,10.313-3.446
	c3.644-3.849,4.931-8.545,2.876-10.489C345.125,705.922,326.463,694.173,322.821,698.021z"/>
<g>
	<circle cx="360.946" cy="736.69" r="38.751"/>
</g>
<circle fill="#FFFFFF" cx="360.947" cy="736.69" r="37.764"/>
<path d="M399.764,697.648c4.732,4.731-7.663,24.797-9.784,26.921c-2.122,2.122-7.68,0.007-12.411-4.726
	c-4.732-4.731-6.848-10.289-4.726-12.411C374.966,705.309,395.03,692.915,399.764,697.648z"/>
<path fill="#FFFFFF" d="M398.525,699.133c4.323,4.324-7.406,23.062-9.398,25.055c-1.992,1.992-7.113,0.102-11.437-4.221
	c-4.322-4.323-6.212-9.442-4.219-11.435C375.464,706.539,394.201,694.81,398.525,699.133z"/>
<path d="M398.369,698.178c4.151,4.153-8.13,23.169-10.177,25.216c-2.047,2.046-7.071,0.339-11.226-3.814
	c-4.152-4.153-5.859-9.179-3.815-11.226C375.2,706.308,394.215,694.025,398.369,698.178z"/>
<path fill="#FFFFFF" d="M398.569,697.745c3.81,4.083-9.572,22.757-11.727,24.767c-2.154,2.01-6.988,0.328-10.796-3.755
	c-3.81-4.083-5.151-9.02-2.997-11.03C375.204,705.716,394.761,693.663,398.569,697.745z"/>
<path d="M389.904,723.657c-2.001,2-7.238,0.006-11.698-4.454c-4.459-4.459-6.451-9.695-4.452-11.696
	c0.438-0.438,1.69-1.342,3.422-2.439c-2.565-1.027-4.725-1.088-5.882,0.069c-2.361,2.361,0.339,8.89,6.029,14.581
	c5.691,5.69,12.22,8.39,14.581,6.027c1.065-1.064,1.097-2.979,0.293-5.283C391.167,722.076,390.322,723.237,389.904,723.657z"/>
<g>
	<g>
		<path d="M188.617,737.534c0,0.558-0.452,1.008-1.009,1.008h-13.605c-0.557,0-1.009-0.45-1.009-1.008l0,0
			c0-0.558,0.452-1.01,1.009-1.01h13.605C188.165,736.524,188.617,736.977,188.617,737.534L188.617,737.534z"/>
		<circle cx="184.931" cy="743.16" r="1"/>
		<path d="M175.599,736.521c-0.552,0-1-0.449-1-1.001c0-0.052,0.005-0.104,0.013-0.153h-1.5v1.895h2.498v-0.741
			C175.607,736.521,175.603,736.521,175.599,736.521z"/>
		<path d="M174.599,739.483c0-0.553,0.448-1.001,1-1.001c0.004,0,0.008,0.001,0.012,0.001v-0.704h-2.498v1.896h1.505
			C174.605,739.613,174.599,739.549,174.599,739.483z"/>
		<path d="M186.159,735.108c0.057,0.126,0.089,0.265,0.089,0.412c0,0.552-0.448,1.001-1.001,1.001c-0.024,0-0.049-0.003-0.075-0.005
			v1.004h2.24v-2.412H186.159z"/>
		<path d="M180.389,729.338c-4.537,0-8.214,3.678-8.214,8.215c0,4.537,3.677,8.215,8.214,8.215c2.01,0,3.852-0.723,5.279-1.921
			l-1.442-1.419c-1.056,0.833-2.388,1.33-3.837,1.33c-3.426,0-6.205-2.778-6.205-6.205c0-3.427,2.778-6.204,6.205-6.204
			c3.427,0,6.205,2.777,6.205,6.204c0,0.019,0,0.036,0,0.054h2.011c0-0.017,0.001-0.035,0.001-0.054
			C188.605,733.016,184.927,729.338,180.389,729.338z"/>
	</g>
	<g>
		<path d="M207.459,737.534c0,0.558-0.452,1.008-1.009,1.008h-13.605c-0.557,0-1.008-0.45-1.008-1.008l0,0
			c0-0.558,0.451-1.01,1.008-1.01h13.605C207.007,736.524,207.459,736.977,207.459,737.534L207.459,737.534z"/>
		<circle cx="203.773" cy="743.16" r="1"/>
		<path d="M194.441,736.521c-0.552,0-0.999-0.449-0.999-1.001c0-0.052,0.005-0.104,0.012-0.153h-1.5v1.895h2.499v-0.741
			C194.448,736.521,194.445,736.521,194.441,736.521z"/>
		<path d="M193.442,739.483c0-0.553,0.447-1.001,0.999-1.001c0.004,0,0.007,0.001,0.012,0.001v-0.704h-2.499v1.896h1.505
			C193.448,739.613,193.442,739.549,193.442,739.483z"/>
		<path d="M205.001,735.108c0.057,0.126,0.09,0.265,0.09,0.412c0,0.552-0.448,1.001-1,1.001c-0.025,0-0.05-0.003-0.075-0.005v1.004
			h2.24v-2.412H205.001z"/>
		<path d="M199.231,729.338c-4.537,0-8.215,3.678-8.215,8.215c0,4.537,3.678,8.215,8.215,8.215c2.011,0,3.852-0.723,5.279-1.921
			l-1.441-1.419c-1.056,0.833-2.389,1.33-3.838,1.33c-3.426,0-6.204-2.778-6.204-6.205c0-3.427,2.778-6.204,6.204-6.204
			c3.428,0,6.205,2.777,6.205,6.204c0,0.019-0.001,0.036-0.001,0.054h2.01c0-0.017,0.001-0.035,0.001-0.054
			C207.446,733.016,203.769,729.338,199.231,729.338z"/>
	</g>
	<g>
		<path d="M165.285,731.232c0.003,0.008,0.006,0.018,0.011,0.026c-1.946,0.359-3.421,2.064-3.421,4.113
			c0,0.076,0.002,0.15,0.006,0.227v9.136c0,0.57-0.463,1.033-1.034,1.033s-1.034-0.463-1.034-1.033v-9.686
			c0.209-2.991,2.539-5.398,5.496-5.727c0.419,0.114,0.727,0.497,0.727,0.952C166.036,730.737,165.716,731.125,165.285,731.232z"/>
		<circle cx="170.115" cy="732.338" r="1"/>
		<path d="M169.494,733.179c0.373-0.591,0.819-1.132,1.327-1.609c-1.138-1.414-2.882-2.319-4.837-2.319
			c-3.3,0-5.998,2.576-6.193,5.826h2.025c0.192-2.134,1.984-3.807,4.168-3.807C167.455,731.269,168.748,732.03,169.494,733.179z"/>
	</g>
	<path d="M235.938,745.687c3.003-0.345,5.797-3.244,5.31-6.336c-0.205-1.308-1.063-2.656-2.481-3.595
		c-1.109-0.733-6.524-3.294-7.475-3.952c-0.583-0.446-1.726-1.669-1.81-2.457c-0.229-2.124,0.931-3.032,2.106-3.576
		c0.484-0.227,1.11-0.312,1.367-0.341c2.192-0.257,2.904,0.142,4.909,1.093c0.206,0.098,0.412,0.102,0.634,0.067
		c0.674-0.105,1.14-0.401,1.034-1.075c-0.08-0.5-0.357-0.729-0.88-0.988c-1.398-0.691-4.019-1.52-6.227-1.173
		c-0.037,0.006-0.073,0.014-0.109,0.019l-0.005-0.031c-3.064,0.51-5.491,3.28-5.008,6.354c0.26,1.652,1.531,3.036,2.831,3.882
		c0.87,0.729,4.015,1.993,7.127,3.719c1.105,0.612,1.549,1.217,1.711,2.586c0.168,1.421-1.478,3.034-2.764,3.522
		c-2,0.587-4.351-0.245-5.917-1.073c-0.468-0.305-0.682-0.466-1.113-0.397c-0.673,0.105-1.134,0.738-1.028,1.412
		c0.071,0.448,0.329,0.763,0.768,0.956C231.702,745.529,233.581,745.956,235.938,745.687z"/>
	<g>
		<path d="M150.083,728.648c0.009,0.004,0.019,0.008,0.028,0.011c0.375-2.03,2.154-3.569,4.294-3.569
			c0.08,0,0.158,0.003,0.237,0.007h4.378c0.596,0,1.079-0.483,1.079-1.079s-0.483-1.079-1.079-1.079h-4.954
			c-3.122,0.219-5.634,2.65-5.977,5.737c0.12,0.437,0.519,0.757,0.994,0.757C149.567,729.433,149.972,729.099,150.083,728.648z"/>
		<path d="M148.784,734.629c0,0.586,0.474,1.061,1.06,1.061h6.743c0.585,0,1.06-0.475,1.06-1.061l0,0c0-0.585-0.475-1.06-1.06-1.06
			h-6.743C149.258,733.569,148.784,734.044,148.784,734.629L148.784,734.629z"/>
		<path d="M152.89,724.004c0,0.576,0.528,1.044,1.179,1.044h0.929c0.651,0,1.179-0.468,1.179-1.044l0,0
			c0-0.578-0.528-1.046-1.179-1.046h-0.929C153.418,722.958,152.89,723.426,152.89,724.004L152.89,724.004z"/>
		<g>
			<path d="M149.167,726.702c0.596,0,1.08,0.351,1.08,0.782v17.369c0,0.432-0.483,0.781-1.08,0.781l0,0
				c-0.595,0-1.079-0.35-1.079-0.781v-16.353C148.089,728.069,148.572,726.702,149.167,726.702L149.167,726.702z"/>
		</g>
		<path d="M150.372,737.232c0-0.267,0.068-0.517,0.186-0.734c0.262-0.48,0.77-0.808,1.355-0.808h0.509v-1.552h-3.749v3.4h1.699
			V737.232z"/>
		<path d="M150.372,732.018c0,0.266,0.068,0.516,0.186,0.734c0.262,0.481,0.77,0.808,1.355,0.808h0.509v1.552h-3.749v-3.4h1.699
			V732.018z"/>
		<path d="M150.189,729.144c0.094-2.123,1.731-3.845,3.817-4.069v-2.106c-3.246,0.233-5.82,2.894-5.917,6.176H150.189z"/>
	</g>
	<g>
		<path d="M211.087,744.745c0-0.562,0.514-1.02,1.149-1.02h9.323c0.635,0,1.15,0.457,1.15,1.02l0,0c0,0.562-0.515,1.019-1.15,1.019
			h-9.323C211.601,745.764,211.087,745.308,211.087,744.745L211.087,744.745z"/>
		<path d="M211.949,745.704c-0.564,0-1.019-0.514-1.019-1.148v-15.482c0-0.635,0.456-1.149,1.019-1.149l0,0
			c0.562,0,1.019,0.515,1.019,1.149v15.482C212.968,745.19,212.512,745.704,211.949,745.704L211.949,745.704z"/>
		<path d="M221.025,732.795v1.994c2.434,0.038,4.396,2.021,4.396,4.465s-1.962,4.427-4.396,4.465v2.11
			c3.591-0.009,6.501-2.923,6.501-6.517C227.526,735.719,224.617,732.804,221.025,732.795z"/>
		<path d="M211.466,733.724c0,0.571,0.463,1.033,1.034,1.033h8.386c0.571,0,1.034-0.462,1.034-1.033l0,0
			c0-0.57-0.463-1.033-1.034-1.033h-8.386C211.93,732.69,211.466,733.153,211.466,733.724L211.466,733.724z"/>
		<path d="M215.938,723.977c0,0.562,0.286,1.018,0.638,1.018h2.574c0.352,0,0.637-0.456,0.637-1.018l0,0
			c0-0.562-0.286-1.019-0.637-1.019h-2.574C216.224,722.958,215.938,723.414,215.938,723.977L215.938,723.977z"/>
		<path d="M213.016,735.999c0-0.259,0.066-0.503,0.182-0.716c0.254-0.469,0.751-0.787,1.321-0.787h0.496v-1.513h-3.655v3.315h1.656
			V735.999z"/>
		<path d="M213.016,731.265c0,0.26,0.066,0.504,0.182,0.717c0.254,0.469,0.751,0.787,1.321,0.787h0.496v1.513h-3.655v-3.315h1.656
			V731.265z"/>
		<path d="M218.92,722.953v1.939c2.182,0.008,3.948,1.778,3.948,3.963c0,2.184-1.767,3.954-3.948,3.963v1.939
			c3.253-0.008,5.889-2.647,5.889-5.902C224.809,725.6,222.173,722.96,218.92,722.953z"/>
		<path d="M218.627,723.069v1.901c2.182,0.009,3.949,1.744,3.949,3.885c0,2.141-1.767,3.876-3.949,3.884v1.901
			c3.253-0.007,5.889-2.595,5.889-5.785C224.516,725.664,221.881,723.077,218.627,723.069z"/>
		<path d="M212.947,728.989c0.091-2.07,1.689-3.749,3.723-3.968v-2.054c-3.166,0.227-5.676,2.82-5.77,6.022H212.947z"/>
	</g>
	<g>
		<path d="M243.492,744.562c0-0.521,0.352-0.942,0.787-0.942h6.385c0.434,0,0.787,0.422,0.787,0.942l0,0
			c0,0.521-2.116,0.943-2.55,0.943h-4.622C243.844,745.506,243.492,745.084,243.492,744.562L243.492,744.562z"/>
		<path d="M245.324,742.152c0,0.259,0.066,0.503,0.182,0.717c0.255,0.468,0.751,0.786,1.322,0.786h0.496v1.514h-3.655v-3.315h1.656
			V742.152z"/>
		<path d="M249.134,723.43c-0.099-0.013-0.179-0.019-0.232-0.019h-2.044l0.001,0.012c-0.017,0-0.035,0-0.052,0
			c-1.847,0-3.363,1.411-3.529,3.215v17.72c0,0.635,0.456,1.15,1.019,1.15s1.019-0.515,1.019-1.15v-17.604
			c0.002-0.255,0.067-0.494,0.181-0.704c0.205-0.377,0.567-0.656,0.999-0.751h3.384c4.615,0.58,8.182,4.465,8.182,9.171
			c0,5.021-4.059,9.105-9.117,9.243v1.803c6.068-0.138,10.945-5.03,10.945-11.046C259.888,728.517,255.113,723.665,249.134,723.43z"
			/>
	</g>
</g>
<g>
	<g>
		<path d="M188.617,640.534c0,0.558-0.452,1.008-1.009,1.008h-13.605c-0.557,0-1.009-0.45-1.009-1.008l0,0
			c0-0.558,0.452-1.01,1.009-1.01h13.605C188.165,639.524,188.617,639.977,188.617,640.534L188.617,640.534z"/>
		<circle cx="184.931" cy="646.16" r="1"/>
		<path d="M175.599,639.521c-0.552,0-1-0.449-1-1.001c0-0.052,0.005-0.104,0.013-0.153h-1.5v1.895h2.498v-0.741
			C175.607,639.521,175.603,639.521,175.599,639.521z"/>
		<path d="M174.599,642.483c0-0.553,0.448-1.001,1-1.001c0.004,0,0.008,0.001,0.012,0.001v-0.704h-2.498v1.896h1.505
			C174.605,642.613,174.599,642.549,174.599,642.483z"/>
		<path d="M186.159,638.108c0.057,0.126,0.089,0.265,0.089,0.412c0,0.552-0.448,1.001-1.001,1.001c-0.024,0-0.049-0.003-0.075-0.005
			v1.004h2.24v-2.412H186.159z"/>
		<path d="M180.389,632.338c-4.537,0-8.214,3.678-8.214,8.215c0,4.537,3.677,8.215,8.214,8.215c2.01,0,3.852-0.723,5.279-1.921
			l-1.442-1.419c-1.056,0.833-2.388,1.33-3.837,1.33c-3.426,0-6.205-2.778-6.205-6.205c0-3.427,2.778-6.204,6.205-6.204
			c3.427,0,6.205,2.777,6.205,6.204c0,0.019,0,0.036,0,0.054h2.011c0-0.017,0.001-0.035,0.001-0.054
			C188.605,636.016,184.927,632.338,180.389,632.338z"/>
	</g>
	<g>
		<path d="M207.459,640.534c0,0.558-0.452,1.008-1.009,1.008h-13.605c-0.557,0-1.008-0.45-1.008-1.008l0,0
			c0-0.558,0.451-1.01,1.008-1.01h13.605C207.007,639.524,207.459,639.977,207.459,640.534L207.459,640.534z"/>
		<circle cx="203.773" cy="646.16" r="1"/>
		<path d="M194.441,639.521c-0.552,0-0.999-0.449-0.999-1.001c0-0.052,0.005-0.104,0.012-0.153h-1.5v1.895h2.499v-0.741
			C194.448,639.521,194.445,639.521,194.441,639.521z"/>
		<path d="M193.442,642.483c0-0.553,0.447-1.001,0.999-1.001c0.004,0,0.007,0.001,0.012,0.001v-0.704h-2.499v1.896h1.505
			C193.448,642.613,193.442,642.549,193.442,642.483z"/>
		<path d="M205.001,638.108c0.057,0.126,0.09,0.265,0.09,0.412c0,0.552-0.448,1.001-1,1.001c-0.025,0-0.05-0.003-0.075-0.005v1.004
			h2.24v-2.412H205.001z"/>
		<path d="M199.231,632.338c-4.537,0-8.215,3.678-8.215,8.215c0,4.537,3.678,8.215,8.215,8.215c2.011,0,3.852-0.723,5.279-1.921
			l-1.441-1.419c-1.056,0.833-2.389,1.33-3.838,1.33c-3.426,0-6.204-2.778-6.204-6.205c0-3.427,2.778-6.204,6.204-6.204
			c3.428,0,6.205,2.777,6.205,6.204c0,0.019-0.001,0.036-0.001,0.054h2.01c0-0.017,0.001-0.035,0.001-0.054
			C207.446,636.016,203.769,632.338,199.231,632.338z"/>
	</g>
	<g>
		<path d="M165.285,634.232c0.003,0.008,0.006,0.018,0.011,0.026c-1.946,0.359-3.421,2.064-3.421,4.113
			c0,0.076,0.002,0.15,0.006,0.227v9.136c0,0.57-0.463,1.033-1.034,1.033s-1.034-0.463-1.034-1.033v-9.686
			c0.209-2.991,2.539-5.398,5.496-5.727c0.419,0.114,0.727,0.497,0.727,0.952C166.036,633.737,165.716,634.125,165.285,634.232z"/>
		<circle cx="170.115" cy="635.338" r="1"/>
		<path d="M169.494,636.179c0.373-0.591,0.819-1.132,1.327-1.609c-1.138-1.414-2.882-2.319-4.837-2.319
			c-3.3,0-5.998,2.576-6.193,5.826h2.025c0.192-2.134,1.984-3.807,4.168-3.807C167.455,634.269,168.748,635.03,169.494,636.179z"/>
	</g>
	<path d="M235.938,648.687c3.003-0.345,5.797-3.244,5.31-6.336c-0.205-1.308-1.063-2.656-2.481-3.595
		c-1.109-0.733-6.524-3.294-7.475-3.952c-0.583-0.446-1.726-1.669-1.81-2.457c-0.229-2.124,0.931-3.032,2.106-3.576
		c0.484-0.228,1.11-0.312,1.367-0.341c2.192-0.257,2.904,0.142,4.909,1.093c0.206,0.098,0.412,0.103,0.634,0.067
		c0.674-0.105,1.14-0.401,1.034-1.075c-0.08-0.5-0.357-0.729-0.88-0.988c-1.398-0.691-4.019-1.52-6.227-1.173
		c-0.037,0.006-0.073,0.014-0.109,0.02l-0.005-0.031c-3.064,0.51-5.491,3.28-5.008,6.354c0.26,1.652,1.531,3.036,2.831,3.882
		c0.87,0.729,4.015,1.993,7.127,3.719c1.105,0.612,1.549,1.217,1.711,2.586c0.168,1.421-1.478,3.034-2.764,3.522
		c-2,0.587-4.351-0.245-5.917-1.073c-0.468-0.305-0.682-0.466-1.113-0.397c-0.673,0.105-1.134,0.738-1.028,1.412
		c0.071,0.448,0.329,0.763,0.768,0.956C231.702,648.529,233.581,648.956,235.938,648.687z"/>
	<g>
		<path d="M150.083,631.648c0.009,0.004,0.019,0.008,0.028,0.011c0.375-2.03,2.154-3.569,4.294-3.569
			c0.08,0,0.158,0.003,0.237,0.007h4.378c0.596,0,1.079-0.483,1.079-1.079s-0.483-1.079-1.079-1.079h-4.954
			c-3.122,0.219-5.634,2.65-5.977,5.737c0.12,0.437,0.519,0.757,0.994,0.757C149.567,632.433,149.972,632.099,150.083,631.648z"/>
		<path d="M148.784,637.629c0,0.586,0.474,1.061,1.06,1.061h6.743c0.585,0,1.06-0.475,1.06-1.061l0,0c0-0.585-0.475-1.06-1.06-1.06
			h-6.743C149.258,636.569,148.784,637.044,148.784,637.629L148.784,637.629z"/>
		<path d="M152.89,627.004c0,0.576,0.528,1.044,1.179,1.044h0.929c0.651,0,1.179-0.468,1.179-1.044l0,0
			c0-0.578-0.528-1.046-1.179-1.046h-0.929C153.418,625.958,152.89,626.426,152.89,627.004L152.89,627.004z"/>
		<g>
			<path d="M149.167,629.702c0.596,0,1.08,0.351,1.08,0.782v17.369c0,0.432-0.483,0.781-1.08,0.781l0,0
				c-0.595,0-1.079-0.35-1.079-0.781v-16.353C148.089,631.069,148.572,629.702,149.167,629.702L149.167,629.702z"/>
		</g>
		<path d="M150.372,640.232c0-0.267,0.068-0.517,0.186-0.734c0.262-0.48,0.77-0.808,1.355-0.808h0.509v-1.552h-3.749v3.4h1.699
			V640.232z"/>
		<path d="M150.372,635.018c0,0.266,0.068,0.516,0.186,0.734c0.262,0.481,0.77,0.808,1.355,0.808h0.509v1.552h-3.749v-3.4h1.699
			V635.018z"/>
		<path d="M150.189,632.144c0.094-2.123,1.731-3.845,3.817-4.069v-2.106c-3.246,0.233-5.82,2.894-5.917,6.176H150.189z"/>
	</g>
	<g>
		<path d="M211.087,647.745c0-0.562,0.514-1.02,1.149-1.02h9.323c0.635,0,1.15,0.457,1.15,1.02l0,0c0,0.562-0.515,1.019-1.15,1.019
			h-9.323C211.601,648.764,211.087,648.308,211.087,647.745L211.087,647.745z"/>
		<path d="M211.949,648.704c-0.564,0-1.019-0.514-1.019-1.148v-15.482c0-0.635,0.456-1.149,1.019-1.149l0,0
			c0.562,0,1.019,0.515,1.019,1.149v15.482C212.968,648.19,212.512,648.704,211.949,648.704L211.949,648.704z"/>
		<path d="M221.025,635.795v1.994c2.434,0.038,4.396,2.021,4.396,4.465s-1.962,4.427-4.396,4.465v2.11
			c3.591-0.009,6.501-2.923,6.501-6.517C227.526,638.719,224.617,635.804,221.025,635.795z"/>
		<path d="M211.466,636.724c0,0.571,0.463,1.033,1.034,1.033h8.386c0.571,0,1.034-0.462,1.034-1.033l0,0
			c0-0.57-0.463-1.033-1.034-1.033h-8.386C211.93,635.69,211.466,636.153,211.466,636.724L211.466,636.724z"/>
		<path d="M215.938,626.977c0,0.562,0.286,1.019,0.638,1.019h2.574c0.352,0,0.637-0.456,0.637-1.019l0,0
			c0-0.562-0.286-1.019-0.637-1.019h-2.574C216.224,625.958,215.938,626.414,215.938,626.977L215.938,626.977z"/>
		<path d="M213.016,638.999c0-0.259,0.066-0.503,0.182-0.716c0.254-0.469,0.751-0.787,1.321-0.787h0.496v-1.513h-3.655v3.315h1.656
			V638.999z"/>
		<path d="M213.016,634.265c0,0.26,0.066,0.504,0.182,0.717c0.254,0.469,0.751,0.787,1.321,0.787h0.496v1.513h-3.655v-3.315h1.656
			V634.265z"/>
		<path d="M218.92,625.953v1.939c2.182,0.008,3.948,1.778,3.948,3.963c0,2.184-1.767,3.954-3.948,3.963v1.939
			c3.253-0.008,5.889-2.647,5.889-5.902C224.809,628.6,222.173,625.96,218.92,625.953z"/>
		<path d="M218.627,626.069v1.901c2.182,0.009,3.949,1.744,3.949,3.885c0,2.141-1.767,3.876-3.949,3.884v1.901
			c3.253-0.007,5.889-2.595,5.889-5.785C224.516,628.664,221.881,626.077,218.627,626.069z"/>
		<path d="M212.947,631.989c0.091-2.07,1.689-3.749,3.723-3.968v-2.054c-3.166,0.227-5.676,2.82-5.77,6.022H212.947z"/>
	</g>
	<g>
		<path d="M243.492,647.562c0-0.521,0.352-0.942,0.787-0.942h6.385c0.434,0,0.787,0.422,0.787,0.942l0,0
			c0,0.521-2.116,0.943-2.55,0.943h-4.622C243.844,648.506,243.492,648.084,243.492,647.562L243.492,647.562z"/>
		<path d="M245.324,645.152c0,0.259,0.066,0.503,0.182,0.717c0.255,0.468,0.751,0.786,1.322,0.786h0.496v1.514h-3.655v-3.315h1.656
			V645.152z"/>
		<path d="M249.134,626.43c-0.099-0.013-0.179-0.02-0.232-0.02h-2.044l0.001,0.012c-0.017,0-0.035,0-0.052,0
			c-1.847,0-3.363,1.411-3.529,3.215v17.72c0,0.635,0.456,1.15,1.019,1.15s1.019-0.515,1.019-1.15v-17.604
			c0.002-0.255,0.067-0.494,0.181-0.704c0.205-0.377,0.567-0.656,0.999-0.751h3.384c4.615,0.58,8.182,4.465,8.182,9.171
			c0,5.021-4.059,9.105-9.117,9.243v1.803c6.068-0.138,10.945-5.03,10.945-11.046C259.888,631.517,255.113,626.665,249.134,626.43z"
			/>
	</g>
</g>
<g>
	<path d="M878.598,605.07c8.066,8.064-14.297,43.508-18.077,47.29c-3.78,3.774-13.383,0.302-21.448-7.764
		c-8.066-8.063-11.541-17.669-7.761-21.448C835.093,619.365,870.532,597.005,878.598,605.07z"/>
	<path d="M765.474,613.603c-12.314-6.987-29.839-14.761-35.414-9.187c-5.648,5.647,2.41,23.566,9.47,35.904
		C745.813,629.396,754.755,620.198,765.474,613.603z"/>
	<path d="M866.295,649.578c1.135,3.848,0.928,7.025-0.908,8.86c-4.299,4.298-15.901-0.276-26.362-10.233
		c-0.729-0.653-1.454-1.333-2.167-2.046c-3.78-3.784-6.725-7.813-8.607-11.522c-3.663-6.572-4.58-12.377-1.81-15.146
		c1.508-1.508,3.923-1.919,6.868-1.389c1.92-1.214,4.186-2.568,6.674-3.953c-10.111-5.273-21.603-8.252-33.799-8.252
		c-40.441,0-73.228,32.781-73.228,73.226c0,40.44,32.786,73.225,73.228,73.225c40.442,0,73.229-32.784,73.229-73.225
		c0-13.06-3.427-25.308-9.416-35.926C868.702,645.559,867.444,647.723,866.295,649.578z"/>
</g>
<g>
	<g>
		<path d="M465.396,738.476c0,0.558-0.451,1.008-1.009,1.008h-13.604c-0.558,0-1.01-0.45-1.01-1.008l0,0
			c0-0.558,0.452-1.01,1.01-1.01h13.604C464.945,737.466,465.396,737.918,465.396,738.476L465.396,738.476z"/>
		<circle cx="461.71" cy="744.102" r="1"/>
		<path d="M452.379,737.463c-0.553,0-1-0.449-1-1.001c0-0.052,0.004-0.104,0.013-0.153h-1.5v1.895h2.499v-0.741
			C452.387,737.462,452.383,737.463,452.379,737.463z"/>
		<path d="M451.379,740.425c0-0.553,0.447-1.001,1-1.001c0.004,0,0.008,0.001,0.012,0.001v-0.704h-2.499v1.896h1.505
			C451.385,740.555,451.379,740.49,451.379,740.425z"/>
		<path d="M462.938,736.05c0.058,0.126,0.089,0.265,0.089,0.412c0,0.552-0.447,1.001-1,1.001c-0.024,0-0.049-0.003-0.074-0.005
			v1.004h2.24v-2.412H462.938z"/>
		<path d="M457.168,730.279c-4.537,0-8.214,3.678-8.214,8.215c0,4.537,3.677,8.215,8.214,8.215c2.011,0,3.852-0.723,5.279-1.921
			l-1.441-1.419c-1.056,0.833-2.389,1.33-3.838,1.33c-3.426,0-6.204-2.778-6.204-6.205c0-3.427,2.778-6.204,6.204-6.204
			c3.428,0,6.205,2.777,6.205,6.204c0,0.019,0,0.036,0,0.054h2.01c0-0.018,0.002-0.035,0.002-0.054
			C465.385,733.957,461.706,730.279,457.168,730.279z"/>
	</g>
	<g>
		<path d="M484.238,738.476c0,0.558-0.451,1.008-1.009,1.008h-13.604c-0.558,0-1.009-0.45-1.009-1.008l0,0
			c0-0.558,0.451-1.01,1.009-1.01h13.604C483.787,737.466,484.238,737.918,484.238,738.476L484.238,738.476z"/>
		<circle cx="480.552" cy="744.102" r="1"/>
		<path d="M471.221,737.463c-0.553,0-1-0.449-1-1.001c0-0.052,0.006-0.104,0.013-0.153h-1.5v1.895h2.499v-0.741
			C471.227,737.462,471.225,737.463,471.221,737.463z"/>
		<path d="M470.221,740.425c0-0.553,0.447-1.001,1-1.001c0.004,0,0.007,0.001,0.012,0.001v-0.704h-2.499v1.896h1.505
			C470.227,740.555,470.221,740.49,470.221,740.425z"/>
		<path d="M481.78,736.05c0.057,0.126,0.09,0.265,0.09,0.412c0,0.552-0.448,1.001-1.001,1.001c-0.025,0-0.049-0.003-0.074-0.005
			v1.004h2.24v-2.412H481.78z"/>
		<path d="M476.01,730.279c-4.536,0-8.215,3.678-8.215,8.215c0,4.537,3.679,8.215,8.215,8.215c2.012,0,3.853-0.723,5.279-1.921
			l-1.441-1.419c-1.056,0.833-2.389,1.33-3.838,1.33c-3.426,0-6.203-2.778-6.203-6.205c0-3.427,2.777-6.204,6.203-6.204
			c3.428,0,6.206,2.777,6.206,6.204c0,0.019-0.001,0.036-0.001,0.054h2.01c0-0.018,0.001-0.035,0.001-0.054
			C484.226,733.957,480.548,730.279,476.01,730.279z"/>
	</g>
	<g>
		<path d="M442.064,732.174c0.002,0.008,0.006,0.018,0.01,0.026c-1.945,0.359-3.42,2.063-3.42,4.113c0,0.076,0.002,0.15,0.006,0.227
			v9.136c0,0.57-0.463,1.033-1.033,1.033c-0.571,0-1.034-0.463-1.034-1.033v-9.686c0.209-2.991,2.539-5.398,5.495-5.727
			c0.42,0.114,0.728,0.497,0.728,0.952C442.815,731.679,442.495,732.066,442.064,732.174z"/>
		<circle cx="446.895" cy="733.279" r="1"/>
		<path d="M446.273,734.12c0.373-0.591,0.818-1.132,1.326-1.609c-1.138-1.414-2.882-2.319-4.837-2.319
			c-3.3,0-5.998,2.576-6.193,5.826h2.025c0.192-2.134,1.983-3.807,4.168-3.807C444.234,732.211,445.527,732.972,446.273,734.12z"/>
	</g>
	<path d="M512.718,746.628c3.003-0.345,5.797-3.244,5.31-6.336c-0.205-1.308-1.062-2.656-2.48-3.595
		c-1.109-0.733-6.525-3.294-7.476-3.952c-0.583-0.446-1.726-1.669-1.81-2.457c-0.228-2.124,0.931-3.032,2.105-3.576
		c0.484-0.228,1.109-0.312,1.367-0.341c2.191-0.257,2.903,0.142,4.908,1.093c0.207,0.098,0.412,0.102,0.634,0.067
		c0.675-0.106,1.14-0.401,1.034-1.075c-0.08-0.5-0.357-0.729-0.88-0.988c-1.397-0.691-4.019-1.52-6.228-1.173
		c-0.037,0.006-0.072,0.014-0.109,0.02l-0.005-0.031c-3.064,0.51-5.491,3.28-5.008,6.354c0.261,1.652,1.531,3.036,2.831,3.882
		c0.87,0.73,4.016,1.993,7.127,3.719c1.105,0.612,1.549,1.217,1.711,2.586c0.168,1.421-1.478,3.034-2.764,3.522
		c-2,0.587-4.351-0.245-5.916-1.073c-0.469-0.305-0.683-0.466-1.113-0.397c-0.674,0.105-1.134,0.738-1.028,1.412
		c0.071,0.448,0.329,0.763,0.769,0.956C508.481,746.471,510.359,746.898,512.718,746.628z"/>
	<g>
		<path d="M426.862,729.59c0.009,0.004,0.019,0.008,0.028,0.011c0.375-2.03,2.154-3.569,4.293-3.569c0.08,0,0.158,0.003,0.236,0.007
			h4.379c0.596,0,1.079-0.483,1.079-1.079s-0.483-1.079-1.079-1.079h-4.953c-3.123,0.219-5.635,2.65-5.978,5.737
			c0.12,0.437,0.518,0.757,0.993,0.757C426.347,730.374,426.752,730.04,426.862,729.59z"/>
		<path d="M425.562,735.57c0,0.586,0.475,1.061,1.06,1.061h6.742c0.586,0,1.061-0.475,1.061-1.061l0,0
			c0-0.585-0.475-1.06-1.061-1.06h-6.742C426.037,734.511,425.562,734.985,425.562,735.57L425.562,735.57z"/>
		<path d="M429.67,724.945c0,0.576,0.527,1.044,1.178,1.044h0.93c0.65,0,1.179-0.468,1.179-1.044l0,0
			c0-0.578-0.528-1.046-1.179-1.046h-0.93C430.197,723.899,429.67,724.367,429.67,724.945L429.67,724.945z"/>
		<g>
			<path d="M425.947,727.644c0.596,0,1.079,0.35,1.079,0.782v17.369c0,0.432-0.483,0.781-1.079,0.781l0,0
				c-0.596,0-1.079-0.35-1.079-0.781v-16.353C424.868,729.011,425.352,727.644,425.947,727.644L425.947,727.644z"/>
		</g>
		<path d="M427.151,738.174c0-0.267,0.067-0.517,0.186-0.734c0.262-0.481,0.77-0.808,1.355-0.808h0.508v-1.552h-3.748v3.4h1.698
			V738.174z"/>
		<path d="M427.151,732.959c0,0.266,0.067,0.516,0.186,0.734c0.262,0.481,0.77,0.808,1.355,0.808h0.508v1.552h-3.748v-3.4h1.698
			V732.959z"/>
		<path d="M426.968,730.085c0.094-2.123,1.731-3.845,3.817-4.069v-2.106c-3.246,0.233-5.82,2.893-5.917,6.176H426.968z"/>
	</g>
	<g>
		<path d="M487.866,745.687c0-0.562,0.515-1.02,1.149-1.02h9.323c0.635,0,1.149,0.457,1.149,1.02l0,0
			c0,0.562-0.515,1.019-1.149,1.019h-9.323C488.381,746.705,487.866,746.249,487.866,745.687L487.866,745.687z"/>
		<path d="M488.728,746.646c-0.563,0-1.019-0.514-1.019-1.148v-15.481c0-0.635,0.456-1.149,1.019-1.149l0,0
			c0.562,0,1.02,0.515,1.02,1.149v15.481C489.748,746.132,489.291,746.646,488.728,746.646L488.728,746.646z"/>
		<path d="M497.805,733.736v1.994c2.434,0.038,4.397,2.021,4.397,4.465c0,2.443-1.963,4.427-4.397,4.465v2.11
			c3.592-0.009,6.501-2.923,6.501-6.517C504.306,736.66,501.396,733.745,497.805,733.736z"/>
		<path d="M488.246,734.665c0,0.571,0.463,1.033,1.033,1.033h8.387c0.57,0,1.033-0.462,1.033-1.033l0,0
			c0-0.57-0.463-1.033-1.033-1.033h-8.387C488.709,733.632,488.246,734.095,488.246,734.665L488.246,734.665z"/>
		<path d="M492.717,724.918c0,0.562,0.286,1.018,0.639,1.018h2.574c0.352,0,0.637-0.456,0.637-1.018l0,0
			c0-0.562-0.285-1.019-0.637-1.019h-2.574C493.003,723.899,492.717,724.356,492.717,724.918L492.717,724.918z"/>
		<path d="M489.795,736.94c0-0.259,0.066-0.503,0.182-0.716c0.254-0.469,0.752-0.787,1.322-0.787h0.495v-1.513h-3.655v3.315h1.656
			V736.94z"/>
		<path d="M489.795,732.206c0,0.26,0.066,0.504,0.182,0.717c0.254,0.469,0.752,0.787,1.322,0.787h0.495v1.513h-3.655v-3.315h1.656
			V732.206z"/>
		<path d="M495.699,723.894v1.94c2.182,0.008,3.948,1.778,3.948,3.963c0,2.184-1.767,3.954-3.948,3.963v1.939
			c3.253-0.008,5.889-2.647,5.889-5.902C501.588,726.541,498.952,723.901,495.699,723.894z"/>
		<path d="M495.406,724.011v1.901c2.183,0.009,3.949,1.744,3.949,3.885c0,2.141-1.767,3.876-3.949,3.884v1.901
			c3.254-0.007,5.889-2.595,5.889-5.785C501.295,726.606,498.66,724.019,495.406,724.011z"/>
		<path d="M489.727,729.931c0.091-2.07,1.688-3.749,3.723-3.968v-2.054c-3.166,0.227-5.676,2.82-5.771,6.022H489.727z"/>
	</g>
	<g>
		<path d="M520.271,745.504c0-0.521,0.352-0.942,0.787-0.942h6.385c0.436,0,0.787,0.422,0.787,0.942l0,0
			c0,0.521-2.115,0.943-2.55,0.943h-4.622C520.623,746.447,520.271,746.025,520.271,745.504L520.271,745.504z"/>
		<path d="M522.104,743.094c0,0.259,0.066,0.503,0.182,0.717c0.254,0.468,0.75,0.786,1.321,0.786h0.495v1.514h-3.654v-3.315h1.656
			V743.094z"/>
		<path d="M525.913,724.371c-0.099-0.013-0.179-0.019-0.232-0.019h-2.044l0.001,0.012c-0.017,0-0.034,0-0.052,0
			c-1.847,0-3.363,1.411-3.529,3.215v17.72c0,0.635,0.456,1.149,1.019,1.149s1.019-0.515,1.019-1.149v-17.604
			c0.002-0.255,0.067-0.494,0.182-0.704c0.205-0.377,0.566-0.656,0.998-0.751h3.384c4.614,0.58,8.182,4.465,8.182,9.171
			c0,5.021-4.059,9.105-9.116,9.243v1.803c6.068-0.138,10.945-5.03,10.945-11.046C536.668,729.458,531.893,724.606,525.913,724.371z
			"/>
	</g>
</g>
<g>
	<g>
		<path fill="#FFFFFF" d="M332.683,198.108c0,1.337-1.083,2.418-2.419,2.418H297.64c-1.336,0-2.419-1.081-2.419-2.418l0,0
			c0-1.336,1.083-2.42,2.419-2.42h32.624C331.6,195.689,332.683,196.773,332.683,198.108L332.683,198.108z"/>
		<circle fill="#FFFFFF" cx="323.844" cy="211.601" r="2.399"/>
		<path fill="#FFFFFF" d="M301.467,195.68c-1.323,0-2.398-1.075-2.398-2.399c0-0.125,0.012-0.247,0.031-0.367h-3.597v4.543h5.991
			v-1.778C301.485,195.678,301.476,195.68,301.467,195.68z"/>
		<path fill="#FFFFFF" d="M299.068,202.784c0-1.326,1.075-2.4,2.398-2.4c0.009,0,0.019,0.002,0.027,0.002v-1.689h-5.991v4.546h3.61
			C299.084,203.094,299.068,202.94,299.068,202.784z"/>
		<path fill="#FFFFFF" d="M326.789,192.292c0.137,0.303,0.214,0.636,0.214,0.988c0,1.324-1.073,2.399-2.398,2.399
			c-0.06,0-0.119-0.005-0.18-0.011v2.408h5.372v-5.785H326.789z"/>
		<path fill="#FFFFFF" d="M312.953,178.454c-10.88,0-19.699,8.82-19.699,19.699c0,10.88,8.819,19.698,19.699,19.698
			c4.82,0,9.235-1.732,12.659-4.606l-3.458-3.4c-2.531,1.996-5.727,3.188-9.201,3.188c-8.217,0-14.878-6.662-14.878-14.879
			c0-8.217,6.662-14.878,14.878-14.878c8.218,0,14.878,6.661,14.878,14.878c0,0.044,0,0.086-0.001,0.13h4.821
			c0-0.044,0.002-0.086,0.002-0.13C332.653,187.274,323.834,178.454,312.953,178.454z"/>
	</g>
	<g>
		<path fill="#FFFFFF" d="M377.864,198.108c0,1.337-1.082,2.418-2.418,2.418h-32.625c-1.336,0-2.418-1.081-2.418-2.418l0,0
			c0-1.336,1.082-2.42,2.418-2.42h32.625C376.782,195.689,377.864,196.773,377.864,198.108L377.864,198.108z"/>
		<circle fill="#FFFFFF" cx="369.026" cy="211.601" r="2.399"/>
		<path fill="#FFFFFF" d="M346.648,195.68c-1.325,0-2.396-1.075-2.396-2.399c0-0.125,0.012-0.247,0.03-0.367h-3.598v4.543h5.991
			v-1.778C346.666,195.678,346.657,195.68,346.648,195.68z"/>
		<path fill="#FFFFFF" d="M344.252,202.784c0-1.326,1.071-2.4,2.396-2.4c0.009,0,0.018,0.002,0.027,0.002v-1.689h-5.991v4.546h3.61
			C344.267,203.094,344.252,202.94,344.252,202.784z"/>
		<path fill="#FFFFFF" d="M371.971,192.292c0.136,0.303,0.215,0.636,0.215,0.988c0,1.324-1.074,2.399-2.398,2.399
			c-0.06,0-0.12-0.005-0.18-0.011v2.408h5.372v-5.785H371.971z"/>
		<path fill="#FFFFFF" d="M358.135,178.454c-10.879,0-19.699,8.82-19.699,19.699c0,10.88,8.82,19.698,19.699,19.698
			c4.821,0,9.236-1.732,12.658-4.606l-3.456-3.4c-2.532,1.996-5.727,3.188-9.202,3.188c-8.216,0-14.878-6.662-14.878-14.879
			c0-8.217,6.662-14.878,14.878-14.878c8.219,0,14.88,6.661,14.88,14.878c0,0.044-0.002,0.086-0.002,0.13h4.82
			c0-0.044,0.001-0.086,0.001-0.13C377.834,187.274,369.016,178.454,358.135,178.454z"/>
	</g>
	<g>
		<path fill="#FFFFFF" d="M276.732,182.997c0.008,0.02,0.016,0.042,0.026,0.063c-4.667,0.861-8.203,4.948-8.203,9.864
			c0,0.183,0.005,0.361,0.015,0.543v21.906c0,1.369-1.109,2.478-2.479,2.478c-1.369,0-2.478-1.108-2.478-2.478v-23.227
			c0.501-7.173,6.088-12.944,13.178-13.732c1.005,0.274,1.743,1.191,1.743,2.282C278.534,181.812,277.767,182.741,276.732,182.997z"
			/>
		<circle fill="#FFFFFF" cx="288.315" cy="185.649" r="2.398"/>
		<path fill="#FFFFFF" d="M286.826,187.666c0.895-1.419,1.965-2.716,3.181-3.86c-2.728-3.391-6.91-5.561-11.599-5.561
			c-7.913,0-14.382,6.176-14.851,13.971h4.857c0.46-5.117,4.757-9.129,9.994-9.129C281.938,183.087,285.037,184.911,286.826,187.666
			z"/>
	</g>
	<path fill="#FFFFFF" d="M446.157,217.657c7.202-0.826,13.9-7.779,12.733-15.191c-0.493-3.137-2.549-6.371-5.95-8.621
		c-2.659-1.759-15.646-7.899-17.925-9.477c-1.397-1.07-4.139-4.002-4.341-5.892c-0.548-5.093,2.232-7.272,5.05-8.575
		c1.16-0.547,2.661-0.747,3.277-0.819c5.257-0.614,6.963,0.341,11.77,2.622c0.495,0.234,0.987,0.246,1.52,0.162
		c1.617-0.254,2.734-0.963,2.48-2.579c-0.19-1.2-0.857-1.749-2.109-2.37c-3.353-1.658-9.638-3.645-14.933-2.811
		c-0.089,0.013-0.175,0.032-0.263,0.046l-0.013-0.074c-7.346,1.222-13.168,7.865-12.008,15.236c0.624,3.962,3.672,7.281,6.788,9.309
		c2.087,1.75,9.628,4.781,17.091,8.918c2.647,1.468,3.715,2.918,4.102,6.201c0.403,3.406-3.543,7.276-6.628,8.447
		c-4.796,1.406-10.432-0.588-14.188-2.575c-1.121-0.73-1.636-1.116-2.668-0.953c-1.615,0.255-2.719,1.77-2.466,3.387
		c0.17,1.075,0.789,1.829,1.842,2.294C435.999,217.281,440.503,218.305,446.157,217.657z"/>
	<g>
		<path fill="#FFFFFF" d="M240.28,176.802c0.021,0.01,0.044,0.017,0.066,0.026c0.9-4.869,5.166-8.559,10.296-8.559
			c0.19,0,0.379,0.006,0.567,0.016h10.499c1.428,0,2.587-1.158,2.587-2.587c0-1.43-1.159-2.588-2.587-2.588h-11.879
			c-7.487,0.524-13.511,6.355-14.333,13.757c0.288,1.047,1.245,1.816,2.383,1.816C239.043,178.683,240.014,177.882,240.28,176.802z"
			/>
		<path fill="#FFFFFF" d="M237.164,191.143c0,1.404,1.137,2.542,2.542,2.542h16.168c1.404,0,2.542-1.138,2.542-2.541l0,0
			c0-1.404-1.137-2.543-2.542-2.543h-16.168C238.301,188.601,237.164,189.739,237.164,191.143L237.164,191.143z"/>
		<path fill="#FFFFFF" d="M247.011,165.663c0,1.383,1.266,2.504,2.826,2.504h2.228c1.562,0,2.827-1.121,2.827-2.504l0,0
			c0-1.385-1.266-2.507-2.827-2.507h-2.228C248.277,163.156,247.011,164.278,247.011,165.663L247.011,165.663z"/>
		<g>
			<path fill="#FFFFFF" d="M238.085,172.135c1.43,0,2.588,0.84,2.588,1.875v41.65c0,1.036-1.158,1.875-2.588,1.875l0,0
				c-1.428,0-2.587-0.839-2.587-1.875v-39.212C235.498,175.413,236.657,172.135,238.085,172.135L238.085,172.135z"/>
		</g>
		<path fill="#FFFFFF" d="M240.973,197.386c0-0.639,0.163-1.238,0.446-1.762c0.627-1.152,1.846-1.935,3.25-1.935h1.22v-3.722h-8.991
			v8.154h4.074V197.386z"/>
		<path fill="#FFFFFF" d="M240.973,184.88c0,0.639,0.163,1.238,0.446,1.763c0.627,1.153,1.846,1.935,3.25,1.935h1.22v3.722h-8.991
			v-8.153h4.074V184.88z"/>
		<path fill="#FFFFFF" d="M240.533,177.989c0.225-5.091,4.151-9.219,9.154-9.758v-5.052c-7.784,0.559-13.956,6.938-14.189,14.81
			H240.533z"/>
	</g>
	<g>
		<path fill="#FFFFFF" d="M386.564,215.4c0-1.349,1.233-2.443,2.756-2.443h22.357c1.521,0,2.757,1.095,2.757,2.443l0,0
			c0,1.35-1.235,2.443-2.757,2.443H389.32C387.798,217.844,386.564,216.75,386.564,215.4L386.564,215.4z"/>
		<path fill="#FFFFFF" d="M388.632,217.701c-1.351,0-2.443-1.233-2.443-2.756v-37.122c0-1.522,1.093-2.756,2.443-2.756l0,0
			c1.35,0,2.443,1.233,2.443,2.756v37.122C391.075,216.468,389.981,217.701,388.632,217.701L388.632,217.701z"/>
		<path fill="#FFFFFF" d="M410.396,186.745v4.782c5.837,0.09,10.542,4.847,10.542,10.706c0,5.858-4.705,10.615-10.542,10.705V218
			c8.611-0.02,15.589-7.009,15.589-15.627C425.985,193.755,419.008,186.767,410.396,186.745z"/>
		<path fill="#FFFFFF" d="M387.475,188.972c0,1.37,1.11,2.479,2.48,2.479h20.109c1.369,0,2.478-1.108,2.478-2.479l0,0
			c0-1.368-1.109-2.478-2.478-2.478h-20.109C388.585,186.494,387.475,187.604,387.475,188.972L387.475,188.972z"/>
		<path fill="#FFFFFF" d="M398.197,165.599c0,1.35,0.685,2.443,1.528,2.443h6.173c0.844,0,1.528-1.094,1.528-2.442l0,0
			c0-1.351-0.685-2.443-1.528-2.443h-6.173C398.882,163.156,398.197,164.249,398.197,165.599L398.197,165.599z"/>
		<path fill="#FFFFFF" d="M391.189,194.429c0-0.622,0.158-1.207,0.437-1.718c0.608-1.124,1.801-1.887,3.169-1.887h1.188v-3.628
			h-8.765v7.949h3.972V194.429z"/>
		<path fill="#FFFFFF" d="M391.189,183.075c0,0.623,0.158,1.209,0.437,1.719c0.608,1.123,1.801,1.887,3.169,1.887h1.188v3.629
			h-8.765v-7.949h3.972V183.075z"/>
		<path fill="#FFFFFF" d="M405.348,163.144v4.652c5.231,0.018,9.468,4.265,9.468,9.502c0,5.236-4.236,9.482-9.468,9.502v4.651
			c7.801-0.019,14.12-6.348,14.12-14.153C419.468,169.491,413.148,163.161,405.348,163.144z"/>
		<path fill="#FFFFFF" d="M404.646,163.424v4.56c5.232,0.02,9.469,4.182,9.469,9.314c0,5.133-4.236,9.295-9.469,9.312v4.561
			c7.802-0.018,14.12-6.223,14.12-13.873C418.767,169.646,412.448,163.442,404.646,163.424z"/>
		<path fill="#FFFFFF" d="M391.024,177.618c0.219-4.965,4.049-8.988,8.927-9.514v-4.926c-7.592,0.545-13.61,6.765-13.836,14.439
			H391.024z"/>
	</g>
	<g>
		<path fill="#FFFFFF" d="M464.27,214.964c0-1.25,0.845-2.262,1.888-2.262h15.311c1.042,0,1.888,1.012,1.888,2.262l0,0
			c0,1.25-5.074,2.262-6.116,2.262h-11.083C465.115,217.226,464.27,216.214,464.27,214.964L464.27,214.964z"/>
		<path fill="#FFFFFF" d="M468.663,209.183c0,0.621,0.158,1.207,0.436,1.719c0.61,1.123,1.801,1.885,3.169,1.885h1.189v3.63h-8.765
			v-7.95h3.972V209.183z"/>
		<path fill="#FFFFFF" d="M477.799,164.286c-0.237-0.029-0.43-0.045-0.558-0.045h-4.9l0.002,0.028c-0.041,0-0.083-0.002-0.124-0.002
			c-4.429,0-8.063,3.386-8.464,7.709v42.492c0,1.523,1.094,2.757,2.443,2.757c1.349,0,2.442-1.234,2.442-2.757v-42.214
			c0.006-0.611,0.161-1.186,0.435-1.689c0.491-0.905,1.36-1.575,2.395-1.802h8.113c11.066,1.392,19.619,10.707,19.619,21.992
			c0,12.037-9.731,21.834-21.861,22.164v4.322c14.552-0.33,26.246-12.062,26.246-26.486
			C503.587,176.485,492.138,164.851,477.799,164.286z"/>
	</g>
</g>
<g>
	<g>
		<path d="M782.332,801.958c0,1.276-1.034,2.309-2.31,2.309h-31.163c-1.276,0-2.31-1.032-2.31-2.309l0,0
			c0-1.277,1.034-2.312,2.31-2.312h31.163C781.298,799.646,782.332,800.681,782.332,801.958L782.332,801.958z"/>
		<circle cx="773.89" cy="814.846" r="2.291"/>
		<path d="M752.514,799.638c-1.264,0-2.291-1.027-2.291-2.293c0-0.119,0.012-0.235,0.03-0.35h-3.435v4.339h5.723v-1.698
			C752.531,799.636,752.522,799.638,752.514,799.638z"/>
		<path d="M750.223,806.424c0-1.267,1.027-2.293,2.291-2.293c0.009,0,0.018,0.002,0.026,0.002v-1.614h-5.723v4.343h3.448
			C750.238,806.72,750.223,806.573,750.223,806.424z"/>
		<path d="M776.703,796.401c0.13,0.289,0.204,0.607,0.204,0.943c0,1.266-1.025,2.293-2.291,2.293c-0.058,0-0.114-0.005-0.172-0.011
			v2.3h5.132v-5.525H776.703z"/>
		<path d="M763.486,783.183c-10.392,0-18.817,8.426-18.817,18.817c0,10.394,8.425,18.817,18.817,18.817
			c4.604,0,8.822-1.656,12.093-4.4l-3.304-3.248c-2.418,1.906-5.471,3.044-8.789,3.044c-7.85,0-14.213-6.364-14.213-14.213
			s6.363-14.212,14.213-14.212s14.212,6.363,14.212,14.212c0,0.042,0,0.083-0.001,0.124h4.605c0-0.041,0.002-0.082,0.002-0.124
			C782.305,791.608,773.88,783.183,763.486,783.183z"/>
	</g>
	<g>
		<path d="M825.492,801.958c0,1.276-1.034,2.309-2.311,2.309h-31.164c-1.276,0-2.31-1.032-2.31-2.309l0,0
			c0-1.277,1.033-2.312,2.31-2.312h31.164C824.458,799.646,825.492,800.681,825.492,801.958L825.492,801.958z"/>
		<circle cx="817.049" cy="814.846" r="2.291"/>
		<path d="M795.673,799.638c-1.266,0-2.289-1.027-2.289-2.293c0-0.119,0.012-0.235,0.029-0.35h-3.437v4.339h5.723v-1.698
			C795.69,799.636,795.682,799.638,795.673,799.638z"/>
		<path d="M793.384,806.424c0-1.267,1.023-2.293,2.289-2.293c0.009,0,0.017,0.002,0.026,0.002v-1.614h-5.723v4.343h3.448
			C793.398,806.72,793.384,806.573,793.384,806.424z"/>
		<path d="M819.862,796.401c0.129,0.289,0.205,0.607,0.205,0.943c0,1.266-1.026,2.293-2.291,2.293c-0.058,0-0.115-0.005-0.172-0.011
			v2.3h5.132v-5.525H819.862z"/>
		<path d="M806.646,783.183c-10.392,0-18.817,8.426-18.817,18.817c0,10.394,8.426,18.817,18.817,18.817
			c4.605,0,8.823-1.656,12.092-4.4l-3.302-3.248c-2.419,1.906-5.471,3.044-8.79,3.044c-7.849,0-14.212-6.364-14.212-14.213
			s6.363-14.212,14.212-14.212c7.851,0,14.214,6.363,14.214,14.212c0,0.042-0.002,0.083-0.002,0.124h4.604
			c0-0.041,0.001-0.082,0.001-0.124C825.463,791.608,817.039,783.183,806.646,783.183z"/>
	</g>
	<g>
		<path d="M728.887,787.523c0.008,0.018,0.015,0.04,0.024,0.06c-4.457,0.822-7.835,4.727-7.835,9.423
			c0,0.175,0.005,0.345,0.014,0.518v20.926c0,1.308-1.06,2.367-2.367,2.367c-1.309,0-2.368-1.06-2.368-2.367v-22.188
			c0.479-6.852,5.815-12.365,12.588-13.117c0.961,0.262,1.665,1.139,1.665,2.18C730.607,786.39,729.875,787.278,728.887,787.523z"/>
		<circle cx="739.951" cy="790.056" r="2.291"/>
		<path d="M738.528,791.982c0.855-1.355,1.877-2.595,3.039-3.688c-2.605-3.239-6.602-5.312-11.08-5.312
			c-7.56,0-13.739,5.898-14.187,13.346h4.64c0.44-4.889,4.545-8.721,9.547-8.721C733.858,787.608,736.819,789.351,738.528,791.982z"
			/>
	</g>
	<path d="M890.727,820.632c6.88-0.79,13.278-7.432,12.164-14.512c-0.472-2.996-2.435-6.086-5.685-8.236
		c-2.54-1.68-14.945-7.545-17.122-9.052c-1.335-1.022-3.953-3.823-4.147-5.628c-0.523-4.865,2.133-6.947,4.823-8.191
		c1.108-0.523,2.543-0.713,3.131-0.783c5.021-0.586,6.651,0.326,11.244,2.506c0.473,0.224,0.943,0.234,1.451,0.154
		c1.545-0.242,2.612-0.92,2.369-2.463c-0.182-1.147-0.818-1.672-2.015-2.265c-3.202-1.584-9.206-3.481-14.264-2.685
		c-0.085,0.012-0.167,0.03-0.251,0.044l-0.013-0.071c-7.017,1.167-12.578,7.513-11.47,14.554c0.596,3.785,3.507,6.956,6.483,8.893
		c1.994,1.672,9.197,4.567,16.326,8.519c2.529,1.401,3.549,2.787,3.919,5.923c0.385,3.254-3.385,6.95-6.331,8.069
		c-4.581,1.344-9.965-0.562-13.553-2.46c-1.071-0.698-1.562-1.066-2.549-0.911c-1.543,0.244-2.597,1.691-2.355,3.236
		c0.163,1.026,0.754,1.746,1.76,2.191C881.024,820.273,885.326,821.249,890.727,820.632z"/>
	<g>
		<path d="M694.066,781.604c0.021,0.01,0.042,0.017,0.062,0.025c0.859-4.651,4.935-8.177,9.836-8.177
			c0.182,0,0.361,0.005,0.542,0.015h10.029c1.364,0,2.472-1.105,2.472-2.471c0-1.365-1.107-2.473-2.472-2.473h-11.348
			c-7.151,0.502-12.905,6.071-13.69,13.142c0.274,1,1.19,1.735,2.276,1.735C692.885,783.401,693.811,782.636,694.066,781.604z"/>
		<path d="M691.09,795.304c0,1.341,1.086,2.428,2.427,2.428h15.444c1.342,0,2.429-1.087,2.429-2.428l0,0
			c0-1.341-1.087-2.429-2.429-2.429h-15.444C692.176,792.875,691.09,793.963,691.09,795.304L691.09,795.304z"/>
		<path d="M700.496,770.964c0,1.321,1.209,2.392,2.7,2.392h2.128c1.491,0,2.7-1.071,2.7-2.392l0,0c0-1.322-1.209-2.395-2.7-2.395
			h-2.128C701.705,768.569,700.496,769.642,700.496,770.964L700.496,770.964z"/>
		<g>
			<path d="M691.969,777.146c1.366,0,2.473,0.802,2.473,1.791v39.786c0,0.99-1.106,1.791-2.473,1.791l0,0
				c-1.363,0-2.471-0.801-2.471-1.791v-37.457C689.498,780.278,690.605,777.146,691.969,777.146L691.969,777.146z"/>
		</g>
		<path d="M694.727,801.267c0-0.609,0.156-1.183,0.428-1.683c0.599-1.101,1.763-1.849,3.104-1.849h1.166v-3.555h-8.589v7.789h3.891
			V801.267z"/>
		<path d="M694.727,789.321c0,0.609,0.156,1.183,0.428,1.684c0.599,1.102,1.763,1.848,3.104,1.848h1.166v3.555h-8.589v-7.787h3.891
			V789.321z"/>
		<path d="M694.308,782.739c0.215-4.863,3.966-8.807,8.745-9.322v-4.824c-7.438,0.533-13.333,6.627-13.555,14.147H694.308z"/>
	</g>
	<g>
		<path d="M833.803,818.476c0-1.289,1.178-2.334,2.632-2.334h21.357c1.453,0,2.633,1.045,2.633,2.334l0,0
			c0,1.289-1.18,2.334-2.633,2.334h-21.357C834.98,820.81,833.803,819.765,833.803,818.476L833.803,818.476z"/>
		<path d="M835.777,820.673c-1.29,0-2.334-1.178-2.334-2.633v-35.46c0-1.454,1.044-2.632,2.334-2.632l0,0
			c1.289,0,2.334,1.178,2.334,2.632v35.46C838.111,819.495,837.066,820.673,835.777,820.673L835.777,820.673z"/>
		<path d="M856.567,791.102v4.568c5.576,0.086,10.07,4.629,10.07,10.227c0,5.596-4.494,10.141-10.07,10.227v4.834
			c8.227-0.02,14.892-6.694,14.892-14.927C871.459,797.799,864.794,791.123,856.567,791.102z"/>
		<path d="M834.672,793.229c0,1.309,1.06,2.367,2.368,2.367h19.21c1.308,0,2.367-1.059,2.367-2.367l0,0
			c0-1.307-1.06-2.367-2.367-2.367h-19.21C835.732,790.862,834.672,791.923,834.672,793.229L834.672,793.229z"/>
		<path d="M844.915,770.903c0,1.289,0.653,2.334,1.46,2.334h5.896c0.806,0,1.46-1.045,1.46-2.334l0,0c0-1.29-0.654-2.334-1.46-2.334
			h-5.896C845.568,768.569,844.915,769.613,844.915,770.903L844.915,770.903z"/>
		<path d="M838.221,798.442c0-0.594,0.151-1.152,0.417-1.641c0.581-1.074,1.72-1.803,3.026-1.803h1.135v-3.465h-8.372v7.593h3.794
			V798.442z"/>
		<path d="M838.221,787.597c0,0.596,0.151,1.155,0.417,1.643c0.581,1.072,1.72,1.802,3.026,1.802h1.135v3.466h-8.372v-7.593h3.794
			V787.597z"/>
		<path d="M851.745,768.558v4.443c4.997,0.018,9.044,4.074,9.044,9.077c0,5.002-4.047,9.058-9.044,9.077v4.443
			c7.451-0.017,13.488-6.064,13.488-13.52C865.233,774.621,859.196,768.574,851.745,768.558z"/>
		<path d="M851.075,768.825v4.356c4.998,0.018,9.045,3.994,9.045,8.897c0,4.903-4.047,8.879-9.045,8.895v4.358
			c7.452-0.018,13.488-5.945,13.488-13.253C864.563,774.769,858.527,768.843,851.075,768.825z"/>
		<path d="M838.062,782.384c0.209-4.742,3.868-8.586,8.527-9.088v-4.705c-7.252,0.521-13.001,6.462-13.217,13.793H838.062z"/>
	</g>
	<g>
		<path d="M908.03,818.058c0-1.193,0.807-2.16,1.804-2.16h14.626c0.995,0,1.803,0.967,1.803,2.16l0,0
			c0,1.195-4.847,2.161-5.842,2.161h-10.587C908.837,820.219,908.03,819.253,908.03,818.058L908.03,818.058z"/>
		<path d="M912.227,812.536c0,0.593,0.15,1.152,0.416,1.642c0.583,1.073,1.72,1.8,3.027,1.8h1.135v3.468h-8.372v-7.595h3.794
			V812.536z"/>
		<path d="M920.953,769.649c-0.227-0.028-0.41-0.043-0.532-0.043h-4.682l0.002,0.027c-0.039,0-0.079-0.002-0.118-0.002
			c-4.23,0-7.703,3.233-8.085,7.363v40.59c0,1.455,1.045,2.634,2.334,2.634c1.288,0,2.333-1.179,2.333-2.634v-40.324
			c0.006-0.584,0.153-1.133,0.415-1.613c0.469-0.864,1.3-1.504,2.287-1.721h7.75c10.571,1.33,18.741,10.228,18.741,21.008
			c0,11.498-9.296,20.857-20.883,21.172v4.129c13.9-0.315,25.071-11.521,25.071-25.301
			C945.587,781.302,934.65,770.188,920.953,769.649z"/>
	</g>
</g>
<rect x="-27" y="1" fill="none" width="1086" height="846"/>
</svg>
